<?xml version="1.0" encoding="UTF-8" standalone="no"?>
<svg
   width="800"
   height="130"
   version="1.1"
   id="svg1"
   xmlns="http://www.w3.org/2000/svg"
   xmlns:svg="http://www.w3.org/2000/svg">
  <defs
     id="defs1" />
  <g
     class="layer"
     id="g1"
     transform="translate(0.38946881)">
    <title
       id="title1">Layer 1</title>
    <g
       id="layer1"
       transform="translate(-18.4211,-42.1053)">
      <path
         d="m 23.007662,116.57409 c 0,0.66 -0.66,1.98 0,1.98 0.66,0 -0.15,-2.62 0,-1.98 1.35,5.39 0.49,17.19 0.49,23.26 -0.01,0.79 -0.51,4.45 0,4.95 0.11,0.11 0.37,-0.12 0.49,0 0.36,0.36 0.01,1.98 0.49,2.47 0.12,0.12 0.38,-0.11 0.5,0 0.16,0.17 0.33,1.32 0.49,1.49 0.12,0.11 0.38,-0.12 0.5,0 0.23,0.23 -0.24,0.75 0,0.99 0.11,0.11 0.37,-0.12 0.49,0 0.23,0.23 -0.23,0.75 0,0.99 0.25,0.24 0.74,0.24 0.99,0.49 0.12,0.12 -0.12,0.38 0,0.5 0.23,0.23 0.76,-0.24 0.99,0 0.03,0.02 0.96,1.46 0.99,1.48 0.23,0.24 0.75,-0.23 0.99,0 0.24,0.25 0.24,0.75 0.49,0.99 0.33,0.33 1.65,-0.33 1.98,0 0.46,0.47 -0.04,0.5 0.99,0.5 4.95,0 9.9,0.01 14.84,0.01 1.2,0 5.58,0.43 6.44,0 0.2,-0.1 0.28,-0.39 0.49,-0.49 0.98,-0.49 6.6,0 7.92,0 0.33,0 0.69,-0.14 0.99,0 1.55,0.78 3.16,0.1 3.96,0.5 0.2,0.11 0.28,0.39 0.49,0.5 1.27,0.63 4.58,0 5.94,0 4.62,0 9.23,0.01 13.85,0.01 2.32,0 5.16,-0.45 7.42,0 2.350004,0.48 7.390008,1.84 9.900008,1 0.22,-0.07 0.27,-0.42 0.49,-0.49 0.49,-0.17 3.73,-0.27 3.96,-0.5 0.12,-0.11 -0.11,-0.37 0,-0.49 0.24,-0.23 0.7,0.15 0.99,0 0.31,-0.15 2.35,-1.35 2.48,-1.48 0.11,-0.12 -0.12,-0.38 0,-0.5 0.23,-0.23 0.75,0.24 0.99,0 0.25,-0.24 0.25,-0.74 0.49,-0.99 0.12,-0.11 0.35,0.08 0.5,0 0.48,-0.24 1.74,-1.5 1.98,-1.97 0.15,-0.3 -0.15,-0.7 0,-0.99 0.77,-1.54 0.72,-2.43 1.49,-3.96 0.5,-1 -0.27,-2.87 0,-3.96 0.39,-1.59 1.31,-4.61 1.98,-5.94 0.15,-0.3 -0.23,-1.25 0,-1.48 0.12,-0.12 0.38,0.12 0.49,0 0.44,-0.44 -0.41,-4.61 0,-5.44 0.08,-0.15 0.38,0.11 0.5,0 0.35,-0.35 0,-2.92 0,-3.47 0,-6.92 0.01,-13.85 0.01,-20.78 0,-1.08 0.11,-13.260005 0.01,-13.360005 -0.11,-0.11 -0.38,0.12 -0.49,0 -0.58,-0.58 0.58,-2.88 0,-3.46 -0.12,-0.12 -0.38,0.11 -0.5,0 -0.06,-0.06 0,-6.2 0,-6.93 0,-1.98 0.27,-13.1 -0.48,-13.85 -0.12,-0.12 -0.38,0.11 -0.5,0 -0.23,-0.24 0.24,-0.76 0,-0.99 -0.11,-0.12 -0.38,0.11 -0.49,0 -0.12,-0.12 0.11,-0.38 0,-0.5 -0.25,-0.25 -0.74,-0.25 -0.99,-0.49 -0.3,-0.31 -0.33,-1.16 -0.99,-1.49 -0.15,-0.07 -0.38,0.12 -0.49,0 -0.12,-0.12 0.11,-0.38 0,-0.49 -0.22,-0.22 -1.66,-0.78 -1.98,-1 -0.39,-0.25 -0.57,-0.78 -0.99,-0.99 -0.15,-0.07 -0.38,0.12 -0.5,0 -1.02,-1.02 1.57,0.05 -0.49,-0.99 -0.31,-0.15 -1.8,-0.31 -1.98,-0.49 -0.2,-0.2 -0.27,-0.63 -0.99,-0.99 -0.71,-0.36 -9.55,-0.92 -10.39,-0.5 -0.830004,0.41 -0.960004,0.49 -1.980004,0.49 -5.380004,0 -11.660004,-0.8 -16.820004,0.48 -1.11,0.28 -2.94,-0.51 -3.96,0 -0.21,0.11 -0.29,0.39 -0.5,0.5 -0.5,0.25 -2.08,-0.4 -2.47,0 -0.12,0.11 0.15,0.42 0,0.49 -0.54,0.27 -1.4,-0.19 -1.98,0 -0.21,0.07 -2.42,0.97 -2.47,0.99 -1.67,0.41 -3.82,-0.55 -5.45,-0.01 -1.75,0.59 -3.75,-0.07 -5.44,0.49 -1.55,0.52 -2.89,0.11 -4.45,0.5 -4.29,1.06 -9.36,0.49 -13.86,0.48 -3.07,0 -6.97,-1.46 -9.89,0 -0.3,0.14 -0.7,-0.15 -0.99,0 -0.48,0.23 -2.76,1.26 -2.97,1.48 -0.17,0.16 -0.85,1.69 -0.99,1.98 -0.49,0.96 -1.65,1.46 -1.98,2.47 -0.16,0.47 0.22,1.04 0,1.48 -0.68,1.36 -0.97,2.91 -1.49,4.46 -0.4,1.19 0,3.23 0,4.45 0,4.29 0,8.58 -0.01,12.86 0,1.71 0.27,3.8 0,5.45 -0.06,0.36 -0.38,0.64 -0.5,0.99 -0.41,1.24 0.15,1.68 -0.49,2.960005 -0.27,0.54 -0.26,12.21 -0.01,12.87 0.44,1.18 0.99,2.31 1.48,3.46 z"
         fill="#c8a53f"
         id="path3-4" />
      <path
         d="m 127.03767,152.72409 c 0.65,0.01 1.95,0.7 1.96,0.03 0.01,-0.66 -2.61,-0.05 -1.96,-0.03 0.64,0.01 9.84,0.65 10.78,0.2 0.21,-0.11 0.29,-0.39 0.5,-0.5 0.62,-0.3 2.46,0.53 2.94,0.06 0.11,-0.12 -0.11,-0.39 0.01,-0.5 0.05,-0.06 5.3,0.1 5.87,0.11 1.96,0.03 12.19,-0.31 13.23,0.24 1.21,0.65 2.43,0.55 3.91,0.57 0.57,0.01 5.82,0.05 5.88,0.11 0.11,0.12 -0.13,0.38 -0.01,0.5 0.24,0.26 2.06,0.04 2.45,0.05 2.32,0.04 4.69,-0.16 6.84,0.62 1.8,0.65 6.29,0.12 8.33,0.16 2.66,0.05 13.32,-0.4 15.19,0.28 0.21,0.08 0.27,0.4 0.48,0.51 0.96,0.51 6.33,0.11 7.83,0.14 0.3,0.01 1.77,0.23 1.96,0.04 0.12,-0.12 -0.11,-0.39 0.01,-0.5 0.32,-0.32 1.55,0.23 1.96,0.03 0.21,-0.1 0.29,-0.39 0.5,-0.49 0.72,-0.35 1.82,0.18 2.46,-0.45 0.25,-0.25 0.26,-0.75 0.51,-0.99 1.03,-1.02 -0.07,1.58 0.99,-0.49 0.07,-0.14 -0.11,-0.38 0.01,-0.5 0.11,-0.11 0.37,0.13 0.49,0.01 0.23,-0.23 -0.22,-0.77 0.01,-1 0.25,-0.24 0.74,-0.23 0.99,-0.48 0.24,-0.23 -0.21,-0.77 0.02,-1 0.12,-0.11 0.37,0.13 0.49,0.01 0.24,-0.23 -0.22,-0.77 0.02,-1 0.12,-0.12 0.37,0.12 0.49,0.01 0.25,-0.25 0.04,-2.11 0.05,-2.5 0.04,-2.18 0.86,-14.27 0.28,-15.5 -0.1,-0.21 -0.41,-0.28 -0.48,-0.51 -0.39,-1.27 0.64,-3.3 0.08,-4.5 -0.1,-0.21 -0.38,-0.3 -0.48,-0.51 -0.09,-0.2 -0.47,-11.13 -0.27,-11.51 0.79,-1.56 0.76,-3.41 1.56,-4.97 0.32,-0.63 -0.43,-2.53 0.05,-3 0.12,-0.12 0.37,0.12 0.49,0.01 0.75,-0.74 -0.66,-3.76 0.08,-4.5 0.12,-0.12 0.38,0.12 0.49,0.01 0.1,-0.09 0.12,-6.070005 0.13,-7.000005 0.02,-0.87 0.31,-12.42 0.23,-12.5 -0.11,-0.12 -0.37,0.11 -0.49,-0.01 -0.22,-0.24 0.17,-1.2 0.03,-1.5 l -0.94,-2.02 c -0.31,-0.67 0.36,-1.83 0.05,-2.5 -0.07,-0.15 -0.38,0.11 -0.49,-0.01 -0.39,-0.4 0.29,-1.97 0.04,-2.5 -0.34,-0.73 -0.6,-1.29 -0.94,-2.02 -0.38,-0.8 0.43,-2.19 0.05,-3 -0.34,-0.72 -0.6,-1.29 -0.94,-2.01 -0.14,-0.3 0.25,-0.76 0.02,-1 -0.11,-0.12 -0.38,0.11 -0.49,-0.01 -0.23,-0.24 0.24,-0.76 0.02,-1 -0.12,-0.12 -0.38,0.11 -0.49,-0.01 -0.31,-0.32 0.23,-1.58 0.03,-2 -0.35,-0.75 -2.16,-2.67 -2.88,-3.06 -0.65,-0.34 -2.46,0.46 -2.94,-0.05 -0.11,-0.12 0.12,-0.38 0.01,-0.5 -0.24,-0.25 -2.06,-0.04 -2.45,-0.05 l -16.16,-0.29 c -10.79,-0.2 -21.01,0.11 -31.85,-0.09 -2.31,-0.04 -14.42,-0.9 -15.67,-0.29 -1.95,0.95 -3.36,0.94 -5.9,0.89 -0.91,-0.01 -0.7,0.1 -1.48,0.47 -1.85,0.9 -5.01,-1.02 -6.86,-0.12 -0.21,0.1 -0.29,0.39 -0.5,0.49 -0.29,0.14 -0.74,-0.25 -0.98,-0.02 -0.11,0.12 0.11,0.39 -0.01,0.5 -0.16,0.17 -1.31,0.31 -1.47,0.47 -0.12,0.12 0.1,0.39 -0.01,0.5 -0.12,0.12 -0.38,-0.12 -0.49,0 -0.3,0.29 -0.3,0.58 -0.51,0.99 -1.06,2.06 0.04,-0.54 -0.99,0.48 -0.25,0.24 -0.26,0.74 -0.51,0.99 -1.03,1.01 0.07,-1.58 -0.99,0.48 -0.07,0.15 0.11,0.39 -0.01,0.5 -0.12,0.12 -0.37,-0.12 -0.49,-0.01 -0.23,0.23 0.22,0.77 -0.02,1 -0.11,0.12 -0.37,-0.12 -0.49,-0.01 -0.46,0.46 -0.56,2.03 -1.02,2.48 -0.12,0.12 -0.37,-0.12 -0.49,0 -0.24,0.23 0.22,0.76 -0.02,1 -0.12,0.11 -0.37,-0.13 -0.49,-0.01 -0.35,0.34 -0.06,3.49 -0.57,4.49 -0.66,1.28 -0.88,2.68 -1.55,3.97 -0.94,1.85 0.82,5.15 -0.12,7 -0.11,0.21 -0.4,0.28 -0.5,0.49 -0.25,0.49 -0.58,16.960005 -0.33,17.500005 0.96,2.06 0.53,4.25 1.36,6.03 0.18,0.38 -0.19,11.46 -0.21,11.5 -0.11,0.21 -0.39,0.28 -0.5,0.49 -0.5,0.98 -0.11,6.1 -0.14,7.5 -0.01,0.3 0.16,1.81 -0.03,2 -0.12,0.11 -0.38,-0.13 -0.49,-0.01 -0.12,0.11 -0.18,9.47 -0.2,10.5 -0.01,0.73 -0.21,7.42 -0.14,7.5 0.12,0.12 0.38,-0.11 0.49,0.01 0.24,0.25 -0.26,1.24 -0.02,1.5 0.11,0.12 0.37,-0.11 0.49,0.01 0.22,0.24 -0.16,0.7 -0.02,1 0.11,0.24 1.39,2.49 1.42,2.52 0.11,0.12 0.33,0.01 0.49,0.01 z"
         fill="#e5bc9e"
         id="path4-8"
         stroke-width="1" />
      <path
         d="m 224.22767,62.384085 c 0,0.66 -0.66,1.96 0,1.96 0.67,0 0,-2.61 0,-1.96 0,0.64 -0.47,9.85 0,10.78 0.11,0.21 0.4,0.28 0.5,0.49 0.32,0.62 -0.48,2.47 0,2.94 0.12,0.12 0.39,-0.11 0.5,0 0.06,0.06 0,5.31 0,5.88 0,1.95 0.54,12.18 0,13.23 -0.62,1.22 -0.5,2.44 -0.5,3.92 0,0.570005 0.06,5.820005 0,5.880005 -0.11,0.11 -0.38,-0.12 -0.5,0 -0.25,0.24 0,2.06 0,2.45 0,2.33 0.24,4.68 -0.5,6.85 -0.61,1.81 0,6.29 0,8.33 0,2.66 0.64,13.31 0,15.19 -0.07,0.22 -0.39,0.28 -0.5,0.49 -0.49,0.97 0,6.34 0,7.84 0,0.3 -0.19,1.77 0,1.96 0.12,0.11 0.39,-0.12 0.5,0 0.32,0.31 -0.2,1.55 0,1.96 0.11,0.21 0.4,0.28 0.5,0.49 0.37,0.71 -0.14,1.82 0.5,2.45 0.25,0.24 0.75,0.24 1,0.49 1.04,1.01 -1.58,-0.04 0.5,0.98 0.15,0.07 0.39,-0.12 0.5,0 0.12,0.11 -0.11,0.37 0,0.49 0.24,0.23 0.77,-0.23 1,0 0.25,0.24 0.25,0.73 0.5,0.98 0.24,0.23 0.77,-0.23 1.01,0 0.11,0.11 -0.12,0.37 0,0.49 0.23,0.23 0.76,-0.23 1,0 0.11,0.11 -0.12,0.37 0,0.49 0.24,0.24 2.1,0 2.5,0 2.17,0 14.28,0.6 15.5,0 0.21,-0.11 0.27,-0.42 0.5,-0.49 1.26,-0.42 3.31,0.58 4.5,0 0.21,-0.11 0.29,-0.39 0.5,-0.49 0.2,-0.1 11.11,-0.68 11.5,-0.49 1.57,0.77 3.43,0.7 5,1.47 0.63,0.31 2.52,-0.47 3,0 0.12,0.11 -0.12,0.37 0,0.49 0.75,0.73 3.75,-0.74 4.5,0 0.12,0.11 -0.12,0.37 0,0.49 0.09,0.09 6.07,0 7,0 0.88,0 12.42,0.08 12.51,0 0.11,-0.12 -0.12,-0.38 0,-0.49 0.23,-0.23 1.19,0.15 1.5,0 0.72,-0.36 1.27,-0.63 2,-0.98 0.66,-0.33 1.83,0.32 2.5,0 0.15,-0.08 -0.12,-0.38 0,-0.49 0.4,-0.39 1.97,0.25 2.5,0 0.72,-0.36 1.27,-0.63 2,-0.98 0.8,-0.39 2.2,0.39 3,0 0.72,-0.36 1.28,-0.63 2,-0.98 0.3,-0.15 0.76,0.23 1,0 0.12,-0.12 -0.12,-0.38 0,-0.49 0.23,-0.23 0.76,0.23 1,0 0.12,-0.12 -0.12,-0.38 0,-0.49 0.32,-0.31 1.58,0.2 2,0 0.74,-0.37 2.63,-2.21 3,-2.94 0.33,-0.66 -0.5,-2.45 0,-2.94 0.12,-0.12 0.38,0.11 0.5,0 0.25,-0.25 0,-2.07 0,-2.45 0,-5.39 0,-10.78 0,-16.17 0,-10.79 -0.5,-21 -0.5,-31.840005 0,-2.32 0.63,-14.43 0,-15.68 -0.99,-1.93 -1,-3.33 -1,-5.88 0,-0.91 -0.11,-0.7 -0.5,-1.47 -0.94,-1.83 0.93,-5.03 0,-6.86 -0.11,-0.2 -0.4,-0.28 -0.5,-0.49 -0.15,-0.29 0.23,-0.75 0,-0.98 -0.12,-0.11 -0.38,0.12 -0.5,0 -0.17,-0.16 -0.34,-1.3 -0.5,-1.47 -0.12,-0.11 -0.38,0.12 -0.5,0 -0.12,-0.11 0.12,-0.37 0,-0.49 -0.3,-0.29 -0.59,-0.29 -1,-0.49 -2.08,-1.02 0.53,0.04 -0.5,-0.98 -0.25,-0.24 -0.75,-0.24 -1,-0.49 -1.04,-1.01 1.58,0.04 -0.5,-0.98 -0.15,-0.07 -0.38,0.12 -0.5,0 -0.12,-0.11 0.12,-0.37 0,-0.49 -0.24,-0.23 -0.77,0.23 -1,0 -0.12,-0.11 0.12,-0.37 0,-0.49 -0.47,-0.45 -2.04,-0.52 -2.5,-0.98 -0.12,-0.11 0.11,-0.37 0,-0.49 -0.24,-0.23 -0.77,0.23 -1,0 -0.12,-0.11 0.11,-0.37 0,-0.49 -0.36,-0.34 -3.5,0.01 -4.5,-0.49 -1.3,-0.63 -2.7,-0.83 -4,-1.47 -1.87,-0.91 -5.14,0.92 -7.01,0 -0.21,-0.1 -0.28,-0.38 -0.5,-0.49 -0.49,-0.24 -16.96,-0.26 -17.5,0 -2.04,1 -4.23,0.61 -6,1.47 -0.38,0.19 -11.46,0.02 -11.5,0 -0.21,-0.1 -0.29,-0.38 -0.5,-0.49 -1,-0.48 -6.1,0 -7.5,0 -0.31,0 -1.81,0.2 -2,0 -0.12,-0.11 0.12,-0.37 0,-0.49 -0.12,-0.11 -9.48,0 -10.5,0 -0.73,0 -7.43,-0.07 -7.5,0 -0.12,0.12 0.11,0.38 0,0.49 -0.25,0.25 -1.26,-0.24 -1.51,0 -0.11,0.12 0.12,0.38 0,0.49 -0.23,0.24 -0.7,-0.14 -1,0 -0.23,0.12 -2.46,1.44 -2.5,1.47 -0.11,0.12 0,0.33 0,0.49 0,1.15 0,2.29 0,3.43 z"
         fill="#c8a53f"
         id="path5-0"
         stroke-width="1" />
      <path
         d="m 358.90767,61.144085 c -0.66,0 -1.98,-0.66 -1.98,0 0,0.66 2.62,-0.16 1.98,0 -5.39,1.35 -17.19,0.5 -23.26,0.5 -0.79,0 -4.45,-0.5 -4.95,0 -0.11,0.12 0.12,0.38 0,0.49 -0.36,0.36 -1.98,0.01 -2.47,0.5 -0.12,0.12 0.11,0.38 0,0.49 -0.17,0.17 -1.32,0.33 -1.49,0.5 -0.11,0.11 0.12,0.38 0,0.49 -0.23,0.24 -0.75,-0.23 -0.99,0 -0.11,0.12 0.12,0.38 0,0.5 -0.23,0.23 -0.75,-0.24 -0.99,0 -0.24,0.24 -0.24,0.74 -0.49,0.99 -0.12,0.11 -0.38,-0.12 -0.49,0 -0.24,0.23 0.23,0.75 0,0.99 -0.03,0.02 -1.46,0.96 -1.49,0.99 -0.23,0.23 0.23,0.75 0,0.99 -0.25,0.24 -0.74,0.24 -0.99,0.49 -0.33,0.33 0.33,1.65 0,1.98 -0.46,0.46 -0.49,-0.04 -0.49,0.99 0,4.95 0,9.9 0,14.84 0,1.2 -0.43,5.58 0,6.44 0.1,0.2 0.39,0.28 0.49,0.49 0.49,0.97 0,6.600005 0,7.920005 0,0.33 0.15,0.69 0,0.99 -0.78,1.55 -0.1,3.16 -0.49,3.96 -0.11,0.2 -0.39,0.28 -0.5,0.49 -0.63,1.27 0,4.58 0,5.94 0,4.62 0,9.23 0,13.85 0,2.32 0.45,5.16 0,7.42 -0.47,2.35 -1.83,7.39 -0.99,9.9 0.08,0.22 0.42,0.27 0.5,0.49 0.16,0.49 0.26,3.73 0.49,3.96 0.12,0.12 0.38,-0.11 0.5,0 0.23,0.24 -0.15,0.7 0,0.99 0.15,0.31 1.35,2.35 1.48,2.48 0.12,0.11 0.38,-0.12 0.5,0 0.23,0.23 -0.24,0.75 0,0.99 0.24,0.24 0.74,0.24 0.99,0.49 0.11,0.12 -0.08,0.35 0,0.5 0.23,0.47 1.5,1.74 1.97,1.98 0.3,0.14 0.7,-0.15 0.99,0 1.54,0.76 2.43,0.71 3.96,1.48 1,0.5 2.87,-0.27 3.96,0 1.59,0.4 4.61,1.31 5.94,1.98 0.3,0.15 1.25,-0.23 1.48,0 0.12,0.12 -0.11,0.38 0,0.49 0.44,0.44 4.62,-0.41 5.45,0 0.14,0.08 -0.12,0.38 0,0.5 0.35,0.35 2.91,0 3.46,0 6.93,0 13.85,0 20.78,0 1.08,0 13.26,0.1 13.36,0 0.12,-0.12 -0.12,-0.38 0,-0.5 0.58,-0.57 2.89,0.58 3.46,0 0.12,-0.11 -0.11,-0.37 0,-0.49 0.06,-0.06 6.21,0 6.93,0 1.98,0 13.1,0.26 13.86,-0.5 0.11,-0.11 -0.12,-0.37 0,-0.49 0.23,-0.23 0.75,0.23 0.98,0 0.12,-0.12 -0.11,-0.38 0,-0.5 0.12,-0.11 0.38,0.12 0.5,0 0.25,-0.24 0.25,-0.74 0.49,-0.99 0.31,-0.3 1.16,-0.32 1.49,-0.98 0.07,-0.15 -0.12,-0.38 0,-0.5 0.12,-0.12 0.38,0.12 0.49,0 0.22,-0.21 0.78,-1.66 0.99,-1.98 0.26,-0.39 0.78,-0.57 0.99,-0.99 0.08,-0.15 -0.11,-0.38 0,-0.49 1.03,-1.03 -0.04,1.56 0.99,-0.5 0.16,-0.3 0.31,-1.79 0.5,-1.98 0.2,-0.2 0.63,-0.27 0.99,-0.99 0.35,-0.71 0.91,-9.55 0.49,-10.39 -0.41,-0.83 -0.49,-0.96 -0.49,-1.98 0,-5.38 0.79,-11.65 -0.5,-16.82 -0.28,-1.11 0.51,-2.94 0,-3.96 -0.1,-0.21 -0.39,-0.28 -0.49,-0.49 -0.25,-0.51 0.39,-2.08 0,-2.48 -0.12,-0.11 -0.42,0.15 -0.5,0 -0.27,-0.54 0.2,-1.4 0,-1.98 -0.07,-0.21 -0.97,-2.42 -0.99,-2.47 -0.41,-1.66 0.54,-3.82 0,-5.44 -0.58,-1.76 0.07,-3.760005 -0.49,-5.450005 -0.52,-1.55 -0.11,-2.89 -0.5,-4.45 -1.07,-4.28 -0.49,-9.36 -0.49,-13.85 0,-3.08 1.46,-6.97 0,-9.9 -0.15,-0.29 0.15,-0.69 0,-0.99 -0.24,-0.48 -1.27,-2.75 -1.49,-2.97 -0.16,-0.16 -1.68,-0.84 -1.98,-0.99 -0.96,-0.48 -1.46,-1.64 -2.47,-1.98 -0.47,-0.15 -1.04,0.22 -1.48,0 -1.36,-0.68 -2.91,-0.96 -4.46,-1.48 -1.19,-0.4 -3.23,0 -4.45,0 -4.29,0 -8.58,0 -12.86,0 -1.71,0 -3.8,0.27 -5.45,0 -0.36,-0.06 -0.64,-0.38 -0.99,-0.5 -1.24,-0.41 -1.68,0.15 -2.97,-0.49 -0.53,-0.27 -12.2,-0.25 -12.86,0 -1.18,0.44 -2.31,0.99 -3.46,1.48 z"
         fill="#e5bc9e"
         id="path6-4" />
      <path
         d="m 415.30767,114.66409 c 0,0.66 -0.66,1.97 0,1.98 0.66,0 -0.16,-2.62 0,-1.98 1.34,5.38 0.48,17.18 0.48,23.25 0,0.79 -0.51,4.45 0,4.95 0.11,0.12 0.38,-0.12 0.49,0 0.36,0.36 0.01,1.99 0.5,2.47 0.11,0.12 0.37,-0.11 0.49,0 0.16,0.17 0.33,1.32 0.49,1.49 0.12,0.12 0.38,-0.12 0.5,0 0.23,0.23 -0.24,0.76 0,0.99 0.11,0.12 0.38,-0.12 0.49,0 0.24,0.23 -0.23,0.76 0,0.99 0.25,0.25 0.74,0.25 0.99,0.49 0.12,0.12 -0.12,0.38 0,0.5 0.23,0.23 0.76,-0.23 0.99,0 0.03,0.03 0.96,1.46 0.99,1.49 0.23,0.23 0.76,-0.24 0.99,0 0.25,0.24 0.25,0.74 0.49,0.99 0.33,0.33 1.65,-0.33 1.98,0 0.46,0.46 -0.04,0.49 0.99,0.49 4.95,0.01 9.9,0.01 14.85,0.01 1.19,0 5.57,0.43 6.43,0.01 0.21,-0.11 0.28,-0.4 0.49,-0.5 0.98,-0.49 6.6,0 7.92,0.01 0.33,0 0.69,-0.15 0.99,0 1.56,0.78 3.16,0.1 3.96,0.49 0.21,0.11 0.28,0.39 0.49,0.5 1.27,0.63 4.58,0 5.94,0 4.62,0.01 9.24,0.01 13.85,0.01 2.32,0 5.16,-0.45 7.43,0.01 2.35,0.47 7.38,1.83 9.89,0.99 0.22,-0.07 0.27,-0.42 0.5,-0.49 0.48,-0.16 3.72,-0.26 3.95,-0.49 0.12,-0.12 -0.11,-0.38 0.01,-0.5 0.23,-0.23 0.69,0.15 0.98,0 0.31,-0.15 2.35,-1.35 2.48,-1.48 0.12,-0.12 -0.12,-0.38 0,-0.5 0.23,-0.23 0.76,0.24 0.99,0 0.25,-0.24 0.25,-0.74 0.5,-0.98 0.11,-0.12 0.34,0.07 0.49,0 0.48,-0.24 1.74,-1.5 1.98,-1.98 0.15,-0.3 -0.15,-0.7 0,-0.99 0.77,-1.54 0.72,-2.42 1.49,-3.96 0.5,-1 -0.27,-2.87 0,-3.96 0.4,-1.58 1.32,-4.6 1.98,-5.93 0.15,-0.3 -0.23,-1.26 0,-1.49 0.12,-0.12 0.38,0.12 0.5,0 0.43,-0.43 -0.42,-4.61 0,-5.44 0.07,-0.15 0.37,0.12 0.49,0 0.35,-0.35 0,-2.91 0,-3.46 0,-6.93 0.01,-13.86 0.01,-20.79 0,-1.08 0.11,-13.250005 0.01,-13.360005 -0.11,-0.11 -0.37,0.12 -0.49,0 -0.58,-0.57 0.58,-2.88 0,-3.46 -0.12,-0.12 -0.38,0.12 -0.5,0 -0.05,-0.06 0,-6.2 0,-6.93 0,-1.98 0.27,-13.1 -0.48,-13.85 -0.12,-0.12 -0.38,0.11 -0.5,0 -0.23,-0.24 0.24,-0.76 0,-0.99 -0.11,-0.12 -0.37,0.12 -0.49,0 -0.12,-0.12 0.12,-0.38 0,-0.5 -0.25,-0.24 -0.74,-0.24 -0.99,-0.49 -0.3,-0.31 -0.33,-1.16 -0.99,-1.49 -0.15,-0.07 -0.38,0.12 -0.49,0 -0.12,-0.11 0.11,-0.38 0,-0.49 -0.22,-0.22 -1.66,-0.78 -1.98,-0.99 -0.39,-0.26 -0.57,-0.78 -0.99,-0.99 -0.15,-0.08 -0.38,0.11 -0.49,0 -1.03,-1.03 1.56,0.04 -0.5,-0.99 -0.3,-0.16 -1.79,-0.32 -1.98,-0.5 -0.2,-0.2 -0.27,-0.63 -0.99,-0.99 -0.71,-0.36 -9.55,-0.92 -10.39,-0.5 -0.83,0.42 -0.96,0.49 -1.98,0.49 -5.38,0 -11.65,-0.8 -16.82,0.49 -1.11,0.27 -2.94,-0.51 -3.96,-0.01 -0.21,0.11 -0.29,0.39 -0.49,0.5 -0.51,0.25 -2.09,-0.39 -2.48,0 -0.11,0.11 0.15,0.42 0,0.49 -0.54,0.27 -1.4,-0.19 -1.98,0 -0.21,0.07 -2.42,0.98 -2.47,0.99 -1.66,0.41 -3.82,-0.54 -5.44,0 -1.76,0.58 -3.76,-0.07 -5.45,0.49 -1.55,0.51 -2.89,0.1 -4.45,0.49 -4.28,1.07 -9.36,0.49 -13.86,0.49 -3.07,-0.01 -6.97,-1.47 -9.89,-0.01 -0.3,0.15 -0.7,-0.15 -0.99,0 -0.48,0.24 -2.76,1.26 -2.97,1.48 -0.17,0.16 -0.85,1.69 -0.99,1.98 -0.48,0.96 -1.65,1.46 -1.98,2.47 -0.16,0.47 0.22,1.04 0,1.49 -0.68,1.35 -0.97,2.9 -1.49,4.45 -0.4,1.19 0,3.23 0,4.45 0,4.29 0,8.58 -0.01,12.87 0,1.7 0.27,3.79 0,5.44 -0.06,0.36 -0.38,0.64 -0.5,0.99 -0.41,1.25 0.15,1.68 -0.49,2.97 -0.27,0.54 -0.26,12.200005 -0.01,12.860005 0.44,1.18 0.99,2.31 1.48,3.47 z"
         fill="#c8a53f"
         id="path7-0" />
      <path
         d="m 519.32767,150.80409 c 0.66,0.01 1.95,0.7 1.96,0.03 0.01,-0.66 -2.61,-0.04 -1.96,-0.03 0.64,0.01 9.84,0.65 10.78,0.2 0.21,-0.1 0.29,-0.39 0.5,-0.49 0.62,-0.31 2.46,0.52 2.94,0.05 0.11,-0.12 -0.11,-0.38 0.01,-0.5 0.06,-0.06 5.31,0.1 5.87,0.11 1.96,0.03 12.19,-0.31 13.23,0.24 1.21,0.65 2.43,0.55 3.91,0.58 0.57,0.01 5.82,0.04 5.88,0.1 0.11,0.12 -0.12,0.38 -0.01,0.5 0.24,0.26 2.06,0.04 2.45,0.05 2.33,0.04 4.69,-0.15 6.85,0.63 1.79,0.64 6.28,0.11 8.32,0.15 2.66,0.05 13.32,-0.4 15.19,0.28 0.22,0.08 0.27,0.4 0.48,0.51 0.96,0.51 6.33,0.11 7.84,0.14 0.29,0.01 1.76,0.23 1.95,0.04 0.12,-0.12 -0.1,-0.39 0.01,-0.5 0.32,-0.31 1.55,0.24 1.96,0.03 0.21,-0.1 0.29,-0.38 0.5,-0.49 0.73,-0.35 1.82,0.18 2.46,-0.45 0.25,-0.25 0.26,-0.75 0.51,-0.99 1.03,-1.02 -0.07,1.58 0.99,-0.48 0.07,-0.15 -0.11,-0.39 0.01,-0.5 0.12,-0.12 0.37,0.12 0.49,0.01 0.23,-0.24 -0.22,-0.77 0.02,-1 0.25,-0.25 0.74,-0.24 0.99,-0.49 0.23,-0.23 -0.22,-0.77 0.01,-1 0.12,-0.11 0.38,0.13 0.49,0.01 0.24,-0.23 -0.21,-0.77 0.02,-1 0.12,-0.11 0.37,0.13 0.49,0.01 0.25,-0.24 0.04,-2.11 0.05,-2.5 0.04,-2.18 0.86,-14.27 0.28,-15.5 -0.1,-0.21 -0.41,-0.28 -0.48,-0.51 -0.39,-1.27 0.64,-3.3 0.09,-4.5 -0.1,-0.21 -0.39,-0.29 -0.49,-0.51 -0.09,-0.2 -0.47,-11.12 -0.27,-11.51 0.8,-1.55 0.76,-3.41 1.56,-4.97 0.32,-0.62 -0.42,-2.53 0.05,-3 0.12,-0.11 0.38,0.13 0.49,0.01 0.75,-0.74 -0.66,-3.760005 0.09,-4.500005 0.11,-0.11 0.37,0.13 0.49,0.01 0.09,-0.09 0.11,-6.06 0.13,-7 0.01,-0.87 0.3,-12.42 0.23,-12.5 -0.12,-0.12 -0.38,0.11 -0.49,-0.01 -0.23,-0.23 0.17,-1.19 0.02,-1.5 l -0.94,-2.02 c -0.31,-0.67 0.36,-1.82 0.05,-2.5 -0.07,-0.15 -0.38,0.11 -0.49,-0.01 -0.39,-0.4 0.29,-1.97 0.04,-2.5 -0.34,-0.72 -0.6,-1.29 -0.94,-2.01 -0.38,-0.81 0.43,-2.2 0.06,-3 -0.34,-0.73 -0.61,-1.29 -0.95,-2.02 -0.14,-0.3 0.25,-0.76 0.02,-1 -0.11,-0.12 -0.38,0.11 -0.49,-0.01 -0.23,-0.24 0.25,-0.76 0.02,-1 -0.11,-0.12 -0.38,0.11 -0.49,-0.01 -0.31,-0.32 0.23,-1.58 0.04,-2 -0.35,-0.75 -2.16,-2.67 -2.89,-3.05 -0.65,-0.35 -2.45,0.45 -2.94,-0.06 -0.11,-0.12 0.13,-0.38 0.01,-0.5 -0.24,-0.25 -2.06,-0.04 -2.45,-0.04 l -16.16,-0.3 c -10.79,-0.2 -21.01,0.11 -31.85,-0.09 -2.31,-0.04 -14.41,-0.9 -15.67,-0.29 -1.95,0.95 -3.35,0.94 -5.9,0.89 -0.91,-0.01 -0.7,0.1 -1.48,0.48 -1.84,0.9 -5.01,-1.03 -6.85,-0.13 -0.21,0.1 -0.3,0.39 -0.5,0.49 -0.3,0.15 -0.75,-0.25 -0.98,-0.02 -0.12,0.12 0.1,0.39 -0.01,0.5 -0.17,0.17 -1.32,0.31 -1.48,0.48 -0.12,0.11 0.11,0.38 -0.01,0.5 -0.12,0.11 -0.37,-0.13 -0.49,-0.01 -0.3,0.29 -0.3,0.58 -0.51,0.99 -1.06,2.06 0.04,-0.54 -0.99,0.48 -0.25,0.25 -0.26,0.75 -0.51,0.99 -1.03,1.02 0.07,-1.58 -0.99,0.48 -0.07,0.15 0.11,0.39 -0.01,0.5 -0.11,0.12 -0.37,-0.12 -0.49,-0.01 -0.23,0.24 0.22,0.77 -0.01,1 -0.12,0.12 -0.38,-0.12 -0.49,0 -0.47,0.45 -0.56,2.02 -1.03,2.48 -0.12,0.11 -0.37,-0.13 -0.49,-0.01 -0.23,0.23 0.22,0.77 -0.02,1 -0.12,0.11 -0.37,-0.13 -0.49,-0.01 -0.35,0.35 -0.06,3.49 -0.57,4.49 -0.66,1.28 -0.88,2.68 -1.54,3.97 -0.95,1.85 0.82,5.15 -0.13,7 -0.11,0.21 -0.39,0.28 -0.5,0.49 -0.25,0.49 -0.58,16.96 -0.32,17.500005 0.96,2.06 0.52,4.25 1.35,6.03 0.18,0.39 -0.19,11.46 -0.21,11.5 -0.11,0.21 -0.39,0.28 -0.5,0.49 -0.5,0.99 -0.11,6.1 -0.14,7.5 -0.01,0.31 0.16,1.81 -0.03,2 -0.12,0.12 -0.37,-0.12 -0.49,-0.01 -0.12,0.11 -0.18,9.48 -0.2,10.5 -0.01,0.73 -0.21,7.42 -0.13,7.5 0.11,0.12 0.37,-0.11 0.49,0.01 0.24,0.25 -0.27,1.25 -0.03,1.5 0.11,0.12 0.37,-0.11 0.49,0.01 0.22,0.24 -0.16,0.7 -0.02,1 0.11,0.24 1.39,2.49 1.42,2.53 0.12,0.12 0.33,0 0.49,0.01 z"
         fill="#e5bc9e"
         id="path8-5"
         stroke-width="1" />
      <path
         d="m 711.78767,61.194085 c -0.65,-0.01 -1.94,-0.71 -1.96,-0.05 -0.01,0.67 2.62,0.07 1.96,0.05 -0.63,-0.01 -9.83,-0.71 -10.77,-0.26 -0.21,0.1 -0.29,0.39 -0.5,0.49 -0.63,0.3 -2.46,-0.54 -2.94,-0.07 -0.12,0.12 0.1,0.39 -0.01,0.5 -0.06,0.06 -5.31,-0.13 -5.88,-0.14 -1.95,-0.05 -12.19,0.25 -13.23,-0.32 -1.2,-0.65 -2.43,-0.55 -3.9,-0.59 -0.57,-0.01 -5.82,-0.08 -5.88,-0.14 -0.11,-0.12 0.13,-0.38 0.01,-0.5 -0.23,-0.25 -2.06,-0.05 -2.45,-0.06 -2.32,-0.05 -4.69,0.13 -6.84,-0.66 -1.79,-0.66 -6.28,-0.15 -8.33,-0.2 -2.65,-0.06 -13.31,0.32 -15.18,-0.36 -0.22,-0.08 -0.27,-0.41 -0.48,-0.52 -0.96,-0.51 -6.33,-0.15 -7.83,-0.18 -0.3,-0.01 -1.77,-0.24 -1.96,-0.05 -0.12,0.12 0.1,0.39 -0.02,0.5 -0.31,0.31 -1.54,-0.24 -1.95,-0.05 -0.21,0.1 -0.3,0.39 -0.51,0.49 -0.72,0.35 -1.81,-0.19 -2.46,0.44 -0.25,0.25 -0.26,0.75 -0.51,0.99 -1.04,1.01 0.08,-1.58 -0.99,0.48 -0.08,0.15 0.1,0.38 -0.02,0.5 -0.11,0.11 -0.37,-0.13 -0.49,-0.01 -0.23,0.23 0.22,0.77 -0.02,1 -0.25,0.24 -0.74,0.23 -0.99,0.47 -0.24,0.23 0.21,0.77 -0.02,1 -0.12,0.12 -0.38,-0.12 -0.49,-0.01 -0.24,0.23 0.21,0.77 -0.03,1 -0.12,0.12 -0.37,-0.13 -0.49,-0.01 -0.25,0.24 -0.05,2.11 -0.06,2.5 -0.05,2.18 -0.94,14.26 -0.37,15.5 0.1,0.21 0.41,0.28 0.48,0.51 0.38,1.27 -0.66,3.3 -0.11,4.5 0.1,0.21 0.38,0.3 0.48,0.51 0.09,0.2 0.41,11.13 0.21,11.51 -0.8,1.550005 -0.78,3.410005 -1.58,4.960005 -0.33,0.63 0.41,2.53 -0.08,3 -0.11,0.12 -0.37,-0.12 -0.49,-0.01 -0.75,0.73 0.65,3.77 -0.1,4.5 -0.12,0.12 -0.37,-0.13 -0.49,-0.01 -0.09,0.09 -0.15,6.06 -0.17,7 -0.02,0.87 -0.38,12.41 -0.3,12.5 0.11,0.12 0.38,-0.11 0.49,0.01 0.22,0.23 -0.18,1.19 -0.03,1.5 l 0.93,2.02 c 0.31,0.68 -0.37,1.83 -0.06,2.5 0.07,0.15 0.37,-0.11 0.49,0.01 0.38,0.41 -0.31,1.97 -0.06,2.5 0.33,0.73 0.59,1.29 0.93,2.03 0.37,0.8 -0.45,2.19 -0.07,2.99 0.33,0.73 0.59,1.3 0.93,2.03 0.14,0.3 -0.25,0.76 -0.02,1 0.11,0.12 0.37,-0.11 0.49,0.01 0.22,0.24 -0.25,0.76 -0.03,1 0.11,0.12 0.38,-0.11 0.49,0.01 0.3,0.33 -0.24,1.58 -0.05,2 0.35,0.75 2.15,2.68 2.87,3.07 0.65,0.35 2.46,-0.44 2.94,0.07 0.11,0.12 -0.13,0.38 -0.01,0.5 0.23,0.26 2.06,0.05 2.45,0.06 l 16.16,0.39 c 10.79,0.25 21.01,0 31.84,0.26 2.32,0.05 14.42,0.98 15.68,0.37 1.95,-0.94 3.35,-0.92 5.9,-0.86 0.91,0.02 0.7,-0.09 1.48,-0.46 1.85,-0.89 5.01,1.05 6.86,0.16 0.21,-0.1 0.29,-0.39 0.5,-0.49 0.29,-0.14 0.74,0.26 0.98,0.03 0.12,-0.12 -0.11,-0.39 0.01,-0.5 0.17,-0.17 1.32,-0.31 1.48,-0.47 0.12,-0.11 -0.1,-0.38 0.02,-0.5 0.11,-0.11 0.37,0.13 0.48,0.01 0.3,-0.29 0.31,-0.58 0.52,-0.98 1.07,-2.06 -0.05,0.53 0.99,-0.48 0.25,-0.24 0.26,-0.74 0.51,-0.99 1.04,-1.01 -0.07,1.58 1,-0.48 0.07,-0.14 -0.11,-0.38 0.01,-0.5 0.12,-0.11 0.37,0.13 0.49,0.02 0.23,-0.23 -0.21,-0.77 0.02,-1 0.12,-0.12 0.37,0.12 0.49,0.01 0.47,-0.46 0.57,-2.02 1.04,-2.48 0.12,-0.11 0.37,0.13 0.49,0.01 0.24,-0.23 -0.21,-0.77 0.02,-1 0.12,-0.11 0.37,0.13 0.49,0.02 0.36,-0.35 0.08,-3.5 0.6,-4.49 0.67,-1.28 0.89,-2.68 1.57,-3.97 0.95,-1.84 -0.8,-5.15 0.16,-7 0.11,-0.2 0.4,-0.28 0.5,-0.48 0.26,-0.49 0.67,-16.95 0.42,-17.5 -0.95,-2.06 -0.5,-4.25 -1.32,-6.04 -0.18,-0.38 0.25,-11.460005 0.27,-11.490005 0.11,-0.21 0.4,-0.28 0.5,-0.49 0.51,-0.99 0.15,-6.1 0.18,-7.5 0.01,-0.31 -0.14,-1.81 0.05,-2 0.12,-0.12 0.37,0.13 0.49,0.01 0.12,-0.11 0.23,-9.47 0.25,-10.5 0.02,-0.73 0.26,-7.42 0.18,-7.5 -0.11,-0.12 -0.38,0.11 -0.49,-0.01 -0.24,-0.25 0.28,-1.24 0.04,-1.5 -0.12,-0.12 -0.38,0.11 -0.49,-0.01 -0.23,-0.24 0.16,-0.7 0.02,-1 -0.11,-0.24 -1.38,-2.5 -1.41,-2.53 -0.11,-0.13 -0.32,-0.01 -0.49,-0.02 z"
         fill="#c8a53f"
         id="path9"
         stroke-width="1" />
      <path
         d="m 755.49767,56.604085 c -0.66,0 -1.98,-0.66 -1.98,0 0,0.66 2.62,-0.16 1.98,0 -5.39,1.34 -17.19,0.49 -23.26,0.49 -0.79,0 -4.45,-0.5 -4.95,0 -0.11,0.12 0.12,0.38 0,0.5 -0.36,0.36 -1.98,0 -2.47,0.49 -0.12,0.12 0.12,0.38 0,0.5 -0.17,0.16 -1.32,0.33 -1.49,0.49 -0.11,0.12 0.12,0.38 0,0.5 -0.23,0.23 -0.75,-0.24 -0.99,0 -0.11,0.11 0.12,0.37 0,0.49 -0.23,0.23 -0.75,-0.23 -0.99,0 -0.24,0.25 -0.24,0.74 -0.49,0.99 -0.12,0.12 -0.38,-0.12 -0.49,0 -0.24,0.23 0.23,0.76 0,0.99 -0.03,0.03 -1.46,0.96 -1.49,0.99 -0.23,0.23 0.23,0.76 0,0.99 -0.25,0.25 -0.74,0.25 -0.99,0.49 -0.33,0.33 0.33,1.65 0,1.98 -0.46,0.46 -0.49,-0.04 -0.49,0.99 0,4.95 0,9.9 0,14.85 0,1.2 -0.43,5.58 0,6.43 0.1,0.21 0.39,0.29 0.49,0.49 0.49,0.98 0,6.6 0,7.92 0,0.33 0.15,0.7 0,0.99 -0.78,1.56 -0.1,3.160005 -0.49,3.960005 -0.11,0.21 -0.39,0.29 -0.5,0.49 -0.63,1.27 0,4.58 0,5.94 0,4.62 0,9.24 0,13.86 0,2.31 0.45,5.16 0,7.42 -0.47,2.35 -1.83,7.38 -0.99,9.89 0.08,0.22 0.42,0.28 0.5,0.5 0.16,0.48 0.26,3.73 0.49,3.96 0.12,0.11 0.38,-0.12 0.5,0 0.23,0.23 -0.15,0.69 0,0.99 0.15,0.3 1.35,2.34 1.48,2.47 0.12,0.12 0.38,-0.12 0.5,0 0.23,0.23 -0.24,0.76 0,0.99 0.24,0.25 0.74,0.25 0.99,0.49 0.11,0.12 -0.08,0.35 0,0.5 0.23,0.48 1.5,1.74 1.97,1.98 0.3,0.15 0.7,-0.15 0.99,0 1.54,0.77 2.43,0.72 3.96,1.48 1,0.5 2.87,-0.27 3.96,0 1.59,0.4 4.61,1.32 5.94,1.98 0.3,0.15 1.25,-0.23 1.48,0 0.12,0.12 -0.11,0.38 0,0.5 0.44,0.43 4.62,-0.42 5.45,0 0.14,0.07 -0.12,0.38 0,0.49 0.35,0.35 2.91,0 3.46,0 6.93,0 13.85,0 20.78,0 1.08,0 13.26,0.1 13.36,0 0.12,-0.11 -0.12,-0.38 0,-0.49 0.58,-0.58 2.89,0.57 3.46,0 0.12,-0.12 -0.11,-0.38 0,-0.5 0.06,-0.06 6.21,0 6.93,0 1.98,0 13.1,0.26 13.86,-0.49 0.11,-0.12 -0.12,-0.38 0,-0.5 0.23,-0.23 0.75,0.24 0.99,0 0.11,-0.11 -0.12,-0.38 0,-0.49 0.11,-0.12 0.37,0.11 0.49,0 0.25,-0.25 0.25,-0.74 0.49,-0.99 0.31,-0.31 1.16,-0.33 1.49,-0.99 0.07,-0.15 -0.12,-0.38 0,-0.5 0.12,-0.11 0.38,0.12 0.49,0 0.22,-0.21 0.78,-1.66 0.99,-1.98 0.26,-0.38 0.78,-0.57 0.99,-0.98 0.08,-0.15 -0.11,-0.38 0,-0.5 1.03,-1.02 -0.04,1.56 0.99,-0.49 0.16,-0.31 0.31,-1.8 0.5,-1.98 0.2,-0.2 0.63,-0.27 0.99,-0.99 0.35,-0.72 0.91,-9.56 0.49,-10.39 -0.41,-0.84 -0.49,-0.97 -0.49,-1.98 0,-5.38 0.79,-11.66 -0.5,-16.83 -0.28,-1.11 0.51,-2.94 0,-3.95 -0.1,-0.21 -0.39,-0.29 -0.49,-0.5 -0.25,-0.5 0.39,-2.08 0,-2.47 -0.12,-0.12 -0.42,0.14 -0.5,0 -0.27,-0.55 0.2,-1.4 0,-1.98 -0.07,-0.22 -0.97,-2.43 -0.99,-2.48 -0.41,-1.66 0.54,-3.820005 0,-5.440005 -0.58,-1.76 0.07,-3.75 -0.49,-5.44 -0.52,-1.55 -0.11,-2.9 -0.5,-4.46 -1.07,-4.28 -0.49,-9.36 -0.49,-13.85 0,-3.07 1.46,-6.97 0,-9.9 -0.15,-0.29 0.15,-0.69 0,-0.99 -0.24,-0.47 -1.27,-2.75 -1.49,-2.96 -0.16,-0.17 -1.68,-0.85 -1.97,-0.99 -0.97,-0.48 -1.47,-1.65 -2.48,-1.98 -0.47,-0.16 -1.04,0.22 -1.48,0 -1.36,-0.68 -2.9,-0.97 -4.46,-1.49 -1.19,-0.39 -3.23,0 -4.45,0 -4.29,0 -8.58,0 -12.86,0 -1.71,0 -3.79,0.28 -5.45,0 -0.36,-0.06 -0.64,-0.38 -0.99,-0.49 -1.24,-0.42 -1.68,0.15 -2.97,-0.5 -0.53,-0.27 -12.2,-0.24 -12.86,0 -1.18,0.44 -2.31,0.99 -3.46,1.49 z"
         fill="#e5bc9e"
         id="path10" />
    </g>
  </g>
</svg>
