<?xml version="1.0"?>
<svg width="1780" height="130" xmlns="http://www.w3.org/2000/svg" xmlns:svg="http://www.w3.org/2000/svg" version="1.1">

 <g class="layer">
  <title>Layer 1</title>
  <g id="layer1" transform="translate(0 -27.6316) matrix(1 0 0 1 -18.4211 -14.4737)">
   <path d="m26.37,61.47c0,0.65 -0.66,1.96 0,1.96c0.67,0 0,-2.61 0,-1.96c0,0.64 -0.47,9.85 0,10.78c0.11,0.2 0.4,0.28 0.5,0.49c0.32,0.62 -0.48,2.47 0,2.94c0.12,0.11 0.39,-0.12 0.5,0c0.06,0.06 0,5.31 0,5.88c0,1.95 0.54,12.17 0,13.22c-0.62,1.22 -0.5,2.45 -0.5,3.92c0,0.57 0.06,5.82 0,5.88c-0.11,0.12 -0.38,-0.11 -0.5,0c-0.25,0.25 0,2.07 0,2.45c0,2.33 0.24,4.69 -0.5,6.86c-0.61,1.81 0,6.29 0,8.33c0,2.66 0.64,13.31 0,15.19c-0.07,0.22 -0.39,0.28 -0.5,0.49c-0.49,0.97 0,6.33 0,7.84c0,0.29 -0.19,1.76 0,1.96c0.12,0.11 0.39,-0.12 0.5,0c0.32,0.31 -0.2,1.55 0,1.96c0.11,0.2 0.4,0.28 0.5,0.49c0.37,0.71 -0.14,1.81 0.5,2.44c0.25,0.25 0.75,0.25 1,0.49c1.04,1.02 -1.58,-0.04 0.5,0.98c0.15,0.08 0.39,-0.11 0.5,0c0.12,0.12 -0.11,0.38 0,0.49c0.24,0.24 0.77,-0.23 1,0c0.25,0.25 0.25,0.74 0.5,0.98c0.24,0.24 0.77,-0.23 1,0c0.12,0.12 -0.11,0.38 0,0.49c0.24,0.24 0.77,-0.23 1,0c0.12,0.12 -0.11,0.38 0,0.49c0.25,0.25 2.11,0 2.51,0c2.17,0 14.28,0.6 15.5,0c0.21,-0.1 0.27,-0.41 0.5,-0.49c1.26,-0.41 3.31,0.58 4.5,0c0.21,-0.1 0.29,-0.38 0.5,-0.49c0.2,-0.09 11.11,-0.67 11.5,-0.49c1.57,0.77 3.43,0.7 5,1.47c0.63,0.31 2.52,-0.47 3,0c0.12,0.12 -0.12,0.38 0,0.49c0.75,0.74 3.75,-0.73 4.5,0c0.12,0.12 -0.12,0.38 0,0.49c0.09,0.09 6.07,0 7,0c0.87,0 12.42,0.08 12.5,0c0.12,-0.11 -0.11,-0.37 0,-0.49c0.24,-0.22 1.2,0.15 1.5,0c0.73,-0.35 1.28,-0.62 2.01,-0.98c0.66,-0.32 1.83,0.33 2.5,0c0.14,-0.07 -0.12,-0.37 0,-0.49c0.39,-0.39 1.97,0.26 2.5,0c0.72,-0.35 1.27,-0.62 2,-0.98c0.8,-0.39 2.2,0.4 3,0c0.72,-0.35 1.28,-0.62 2,-0.98c0.3,-0.14 0.76,0.24 1,0c0.12,-0.11 -0.12,-0.37 0,-0.49c0.23,-0.23 0.76,0.24 1,0c0.12,-0.11 -0.12,-0.37 0,-0.49c0.31,-0.31 1.58,0.21 2,0c0.74,-0.36 2.63,-2.2 3,-2.93c0.33,-0.66 -0.5,-2.45 0,-2.94c0.12,-0.12 0.38,0.11 0.5,0c0.25,-0.25 0,-2.07 0,-2.45c0,-5.39 0,-10.78 0,-16.17c0,-10.8 -0.5,-21.01 -0.5,-31.85c0,-2.31 0.63,-14.43 0,-15.67c-0.99,-1.94 -1,-3.34 -1,-5.88c0,-0.92 -0.11,-0.7 -0.5,-1.47c-0.94,-1.83 0.93,-5.03 0,-6.86c-0.11,-0.21 -0.4,-0.28 -0.5,-0.49c-0.15,-0.29 0.23,-0.75 0,-0.98c-0.12,-0.12 -0.38,0.11 -0.5,0c-0.17,-0.16 -0.34,-1.31 -0.5,-1.47c-0.12,-0.12 -0.38,0.12 -0.5,0c-0.12,-0.12 0.12,-0.37 0,-0.49c-0.3,-0.29 -0.59,-0.29 -1,-0.49c-2.08,-1.02 0.53,0.03 -0.5,-0.98c-0.25,-0.24 -0.75,-0.24 -1,-0.49c-1.04,-1.01 1.58,0.04 -0.5,-0.98c-0.15,-0.07 -0.39,0.12 -0.5,0c-0.12,-0.12 0.11,-0.37 0,-0.49c-0.24,-0.23 -0.77,0.23 -1,0c-0.12,-0.12 0.11,-0.37 0,-0.49c-0.47,-0.46 -2.04,-0.52 -2.5,-0.98c-0.12,-0.11 0.11,-0.37 0,-0.49c-0.24,-0.23 -0.77,0.23 -1,0c-0.12,-0.11 0.11,-0.37 0,-0.49c-0.36,-0.35 -3.5,0 -4.5,-0.49c-1.3,-0.63 -2.7,-0.83 -4,-1.47c-1.87,-0.91 -5.14,0.92 -7.01,0c-0.21,-0.1 -0.29,-0.39 -0.5,-0.49c-0.49,-0.24 -16.96,-0.26 -17.5,0c-2.04,1 -4.23,0.61 -6,1.47c-0.38,0.19 -11.47,0.02 -11.5,0c-0.21,-0.1 -0.29,-0.39 -0.5,-0.49c-1,-0.49 -6.1,0 -7.5,0c-0.31,0 -1.81,0.19 -2,0c-0.12,-0.11 0.12,-0.37 0,-0.49c-0.12,-0.11 -9.48,0 -10.5,0c-0.73,0 -7.43,-0.08 -7.51,0c-0.11,0.12 0.12,0.38 0,0.49c-0.25,0.25 -1.25,-0.24 -1.5,0c-0.11,0.12 0.12,0.38 0,0.49c-0.23,0.23 -0.7,-0.15 -1,0c-0.23,0.12 -2.46,1.44 -2.5,1.47c-0.11,0.12 0,0.33 0,0.49c0,1.14 0,2.29 0,3.43z" fill="#c8a53f" id="path1" stroke-width="1"/>
   <path d="m161.05,56.28c-0.66,0 -1.98,-0.66 -1.98,0c0,0.66 2.62,-0.16 1.98,0c-5.39,1.35 -17.19,0.5 -23.26,0.5c-0.79,0 -4.45,-0.51 -4.95,0c-0.11,0.11 0.12,0.37 0,0.49c-0.36,0.36 -1.98,0.01 -2.47,0.5c-0.12,0.11 0.11,0.37 0,0.49c-0.17,0.16 -1.32,0.33 -1.49,0.49c-0.11,0.12 0.12,0.38 0,0.5c-0.23,0.23 -0.75,-0.23 -0.99,0c-0.11,0.12 0.12,0.38 0,0.49c-0.23,0.24 -0.75,-0.23 -0.99,0c-0.24,0.25 -0.24,0.75 -0.49,0.99c-0.12,0.12 -0.38,-0.11 -0.5,0c-0.23,0.24 0.24,0.76 0,0.99c-0.02,0.03 -1.45,0.97 -1.48,0.99c-0.23,0.24 0.23,0.76 0,0.99c-0.25,0.25 -0.74,0.25 -0.99,0.5c-0.33,0.33 0.33,1.65 0,1.98c-0.46,0.46 -0.49,-0.04 -0.49,0.99c0,4.94 0,9.89 0,14.84c0,1.2 -0.43,5.58 0,6.43c0.1,0.21 0.39,0.29 0.49,0.5c0.49,0.97 0,6.59 0,7.91c0,0.33 0.15,0.7 0,0.99c-0.78,1.56 -0.1,3.17 -0.49,3.96c-0.11,0.21 -0.39,0.29 -0.5,0.5c-0.63,1.27 0,4.57 0,5.93c0,4.62 0,9.24 0,13.86c0,2.31 0.45,5.16 0,7.42c-0.47,2.35 -1.83,7.38 -0.99,9.9c0.08,0.22 0.42,0.27 0.5,0.49c0.16,0.49 0.26,3.73 0.49,3.96c0.12,0.12 0.38,-0.12 0.5,0c0.23,0.23 -0.15,0.69 0,0.99c0.15,0.31 1.35,2.34 1.48,2.47c0.12,0.12 0.38,-0.11 0.49,0c0.24,0.24 -0.23,0.76 0,0.99c0.25,0.25 0.75,0.25 0.99,0.5c0.12,0.11 -0.07,0.35 0,0.49c0.24,0.48 1.51,1.74 1.98,1.98c0.3,0.15 0.7,-0.15 0.99,0c1.54,0.77 2.43,0.72 3.96,1.49c1,0.5 2.87,-0.28 3.96,0c1.59,0.39 4.61,1.31 5.94,1.98c0.3,0.14 1.25,-0.23 1.48,0c0.12,0.11 -0.11,0.37 0,0.49c0.44,0.44 4.62,-0.41 5.44,0c0.15,0.07 -0.11,0.38 0,0.5c0.35,0.34 2.92,0 3.47,0c6.93,0 13.85,0 20.78,0c1.08,0 13.26,0.1 13.36,0c0.12,-0.12 -0.12,-0.38 0,-0.5c0.58,-0.58 2.89,0.58 3.46,0c0.12,-0.12 -0.11,-0.38 0,-0.49c0.06,-0.06 6.2,0 6.93,0c1.98,0 13.1,0.25 13.85,-0.5c0.12,-0.12 -0.11,-0.38 0,-0.49c0.24,-0.24 0.76,0.23 0.99,0c0.12,-0.12 -0.11,-0.38 0,-0.5c0.12,-0.12 0.38,0.12 0.5,0c0.25,-0.25 0.25,-0.74 0.49,-0.99c0.31,-0.3 1.16,-0.33 1.49,-0.99c0.07,-0.15 -0.12,-0.38 0,-0.49c0.11,-0.12 0.38,0.11 0.49,0c0.22,-0.22 0.78,-1.66 0.99,-1.98c0.26,-0.39 0.78,-0.57 0.99,-0.99c0.08,-0.15 -0.11,-0.38 0,-0.5c1.03,-1.02 -0.04,1.57 0.99,-0.49c0.15,-0.31 0.31,-1.8 0.5,-1.98c0.19,-0.2 0.63,-0.27 0.99,-0.99c0.35,-0.71 0.91,-9.55 0.49,-10.39c-0.42,-0.83 -0.49,-0.96 -0.49,-1.98c0,-5.38 0.79,-11.66 -0.5,-16.82c-0.28,-1.11 0.51,-2.94 0,-3.96c-0.1,-0.21 -0.39,-0.29 -0.49,-0.5c-0.26,-0.5 0.39,-2.08 0,-2.47c-0.12,-0.12 -0.42,0.15 -0.5,0c-0.27,-0.55 0.2,-1.4 0,-1.98c-0.07,-0.21 -0.98,-2.42 -0.99,-2.47c-0.41,-1.66 0.54,-3.82 0,-5.45c-0.58,-1.75 0.07,-3.75 -0.49,-5.44c-0.52,-1.55 -0.11,-2.89 -0.5,-4.45c-1.07,-4.28 -0.49,-9.36 -0.49,-13.86c0,-3.07 1.46,-6.97 0,-9.89c-0.15,-0.3 0.15,-0.7 0,-0.99c-0.24,-0.48 -1.27,-2.75 -1.49,-2.97c-0.16,-0.17 -1.68,-0.84 -1.98,-0.99c-0.96,-0.48 -1.46,-1.64 -2.47,-1.98c-0.47,-0.16 -1.04,0.22 -1.48,0c-1.36,-0.68 -2.91,-0.97 -4.46,-1.48c-1.19,-0.4 -3.23,0 -4.45,0c-4.29,0 -8.58,0 -12.87,0c-1.7,0 -3.79,0.27 -5.44,0c-0.36,-0.06 -0.64,-0.38 -0.99,-0.5c-1.24,-0.41 -1.68,0.15 -2.97,-0.49c-0.54,-0.27 -12.2,-0.25 -12.86,0c-1.18,0.44 -2.31,0.99 -3.46,1.48z" fill="#e5bc9e" id="path2"/>
   <path d="m217.45,112.42c0,0.66 -0.66,1.98 0,1.98c0.66,0 -0.16,-2.62 0,-1.98c1.34,5.39 0.48,17.19 0.48,23.26c0,0.79 -0.51,4.44 -0.01,4.95c0.12,0.11 0.38,-0.12 0.5,0c0.36,0.36 0,1.98 0.49,2.47c0.12,0.12 0.38,-0.12 0.5,0c0.16,0.17 0.33,1.32 0.49,1.49c0.12,0.11 0.38,-0.12 0.49,0c0.24,0.23 -0.23,0.75 0,0.99c0.12,0.11 0.38,-0.12 0.5,0c0.23,0.23 -0.23,0.75 0,0.99c0.25,0.24 0.74,0.24 0.99,0.49c0.11,0.12 -0.12,0.38 0,0.5c0.23,0.23 0.75,-0.24 0.99,0c0.02,0.02 0.96,1.46 0.99,1.48c0.23,0.24 0.75,-0.23 0.99,0c0.24,0.25 0.24,0.74 0.49,0.99c0.33,0.33 1.65,-0.33 1.98,0c0.46,0.46 -0.04,0.5 0.99,0.5c4.95,0 9.89,0 14.84,0.01c1.2,0 5.58,0.43 6.43,0c0.21,-0.1 0.29,-0.39 0.5,-0.49c0.97,-0.49 6.6,0 7.92,0c0.33,0 0.69,-0.14 0.99,0c1.55,0.78 3.16,0.1 3.95,0.5c0.21,0.1 0.29,0.39 0.5,0.5c1.27,0.63 4.58,0 5.94,0c4.61,0 9.23,0.01 13.85,0.01c2.32,0 5.16,-0.45 7.42,0c2.35,0.47 7.38,1.84 9.9,1c0.22,-0.07 0.27,-0.42 0.49,-0.5c0.49,-0.16 3.73,-0.26 3.96,-0.49c0.12,-0.11 -0.12,-0.38 0,-0.49c0.24,-0.24 0.7,0.15 0.99,0c0.31,-0.15 2.35,-1.36 2.48,-1.48c0.11,-0.12 -0.12,-0.38 0,-0.5c0.23,-0.23 0.75,0.23 0.99,0c0.24,-0.25 0.24,-0.74 0.49,-0.99c0.12,-0.11 0.35,0.08 0.5,0c0.47,-0.24 1.74,-1.5 1.98,-1.98c0.14,-0.29 -0.15,-0.69 0,-0.99c0.77,-1.53 0.72,-2.42 1.48,-3.95c0.51,-1 -0.27,-2.87 0.01,-3.96c0.39,-1.59 1.31,-4.61 1.98,-5.94c0.15,-0.3 -0.23,-1.25 0,-1.48c0.12,-0.12 0.38,0.11 0.49,0c0.44,-0.44 -0.41,-4.61 0.01,-5.44c0.07,-0.15 0.38,0.11 0.49,0c0.35,-0.35 0,-2.92 0,-3.47c0.01,-6.92 0.01,-13.85 0.02,-20.78c0,-1.08 0.11,-13.26 0.01,-13.36c-0.12,-0.12 -0.38,0.12 -0.5,0c-0.58,-0.58 0.58,-2.88 0,-3.46c-0.11,-0.12 -0.38,0.11 -0.49,0c-0.06,-0.06 0,-6.2 0,-6.93c0,-1.98 0.27,-13.1 -0.48,-13.85c-0.12,-0.12 -0.38,0.11 -0.5,-0.01c-0.23,-0.23 0.23,-0.75 0,-0.98c-0.11,-0.12 -0.38,0.11 -0.49,0c-0.12,-0.12 0.11,-0.38 0,-0.5c-0.25,-0.25 -0.74,-0.25 -0.99,-0.5c-0.31,-0.3 -0.33,-1.15 -0.99,-1.48c-0.15,-0.07 -0.38,0.12 -0.5,0c-0.11,-0.12 0.12,-0.38 0,-0.5c-0.21,-0.21 -1.65,-0.77 -1.97,-0.99c-0.39,-0.26 -0.58,-0.78 -0.99,-0.99c-0.15,-0.07 -0.38,0.12 -0.5,0c-1.02,-1.02 1.57,0.04 -0.49,-0.99c-0.31,-0.15 -1.8,-0.31 -1.98,-0.49c-0.2,-0.2 -0.27,-0.63 -0.99,-0.99c-0.71,-0.36 -9.55,-0.92 -10.39,-0.5c-0.83,0.41 -0.96,0.49 -1.98,0.49c-5.38,0 -11.66,-0.8 -16.82,0.48c-1.11,0.28 -2.94,-0.51 -3.96,0c-0.21,0.11 -0.29,0.39 -0.5,0.5c-0.5,0.25 -2.08,-0.4 -2.47,-0.01c-0.12,0.12 0.15,0.43 0,0.5c-0.55,0.27 -1.4,-0.2 -1.98,0c-0.21,0.07 -2.42,0.97 -2.47,0.99c-1.67,0.41 -3.82,-0.55 -5.45,-0.01c-1.76,0.59 -3.75,-0.07 -5.44,0.49c-1.55,0.52 -2.9,0.11 -4.45,0.5c-4.29,1.06 -9.36,0.48 -13.86,0.48c-3.07,0 -6.97,-1.46 -9.89,0c-0.3,0.14 -0.7,-0.15 -0.99,-0.01c-0.48,0.24 -2.76,1.27 -2.97,1.49c-0.17,0.16 -0.85,1.68 -0.99,1.98c-0.49,0.96 -1.65,1.46 -1.99,2.47c-0.15,0.47 0.23,1.04 0,1.48c-0.68,1.36 -0.97,2.9 -1.48,4.46c-0.4,1.18 -0.01,3.23 -0.01,4.45c0,4.29 0,8.58 0,12.86c-0.01,1.71 0.27,3.79 -0.01,5.45c-0.06,0.36 -0.38,0.64 -0.49,0.99c-0.42,1.24 0.14,1.68 -0.5,2.96c-0.27,0.54 -0.25,12.21 -0.01,12.87c0.44,1.18 0.99,2.31 1.48,3.46l0.01,0z" fill="#c8a53f" id="path3"/>
   <path d="m321.47,149.89c0.66,0.01 1.95,0.7 1.96,0.03c0.01,-0.67 -2.61,-0.05 -1.96,-0.03c0.64,0.01 9.84,0.65 10.78,0.19c0.21,-0.1 0.29,-0.39 0.5,-0.49c0.62,-0.3 2.46,0.53 2.94,0.06c0.11,-0.12 -0.11,-0.39 0.01,-0.5c0.06,-0.06 5.3,0.1 5.87,0.11c1.96,0.03 12.19,-0.32 13.23,0.24c1.21,0.64 2.43,0.54 3.91,0.57c0.57,0.01 5.82,0.05 5.88,0.11c0.11,0.12 -0.13,0.38 -0.01,0.5c0.24,0.25 2.06,0.04 2.45,0.05c2.33,0.04 4.69,-0.16 6.84,0.62c1.8,0.65 6.29,0.12 8.33,0.16c2.66,0.04 13.32,-0.4 15.19,0.28c0.21,0.07 0.27,0.4 0.48,0.5c0.96,0.52 6.33,0.12 7.83,0.15c0.3,0.01 1.77,0.23 1.96,0.04c0.12,-0.12 -0.1,-0.39 0.01,-0.5c0.32,-0.32 1.55,0.23 1.96,0.03c0.21,-0.1 0.29,-0.39 0.5,-0.49c0.72,-0.35 1.82,0.18 2.46,-0.45c0.25,-0.25 0.26,-0.75 0.51,-1c1.03,-1.01 -0.07,1.58 0.99,-0.48c0.07,-0.15 -0.11,-0.38 0.01,-0.5c0.11,-0.11 0.37,0.13 0.49,0.01c0.23,-0.23 -0.22,-0.77 0.01,-1c0.25,-0.24 0.74,-0.23 0.99,-0.48c0.24,-0.23 -0.21,-0.77 0.02,-1c0.12,-0.12 0.37,0.12 0.49,0.01c0.24,-0.23 -0.22,-0.77 0.02,-1c0.12,-0.12 0.37,0.12 0.49,0.01c0.25,-0.25 0.04,-2.11 0.05,-2.5c0.04,-2.18 0.86,-14.27 0.28,-15.5c-0.1,-0.21 -0.41,-0.29 -0.48,-0.51c-0.39,-1.27 0.64,-3.3 0.08,-4.5c-0.1,-0.21 -0.38,-0.3 -0.48,-0.51c-0.09,-0.2 -0.47,-11.13 -0.27,-11.51c0.8,-1.56 0.76,-3.41 1.56,-4.97c0.32,-0.63 -0.43,-2.53 0.05,-3c0.12,-0.12 0.38,0.12 0.49,0.01c0.75,-0.74 -0.66,-3.77 0.09,-4.5c0.11,-0.12 0.37,0.12 0.49,0.01c0.09,-0.09 0.11,-6.07 0.12,-7c0.02,-0.87 0.31,-12.42 0.24,-12.5c-0.12,-0.12 -0.38,0.11 -0.49,-0.01c-0.23,-0.24 0.17,-1.2 0.02,-1.5l-0.94,-2.02c-0.31,-0.67 0.36,-1.83 0.05,-2.5c-0.07,-0.15 -0.38,0.11 -0.49,-0.01c-0.39,-0.41 0.29,-1.97 0.04,-2.5c-0.34,-0.73 -0.6,-1.29 -0.94,-2.02c-0.38,-0.8 0.43,-2.19 0.06,-3c-0.35,-0.73 -0.61,-1.29 -0.95,-2.01c-0.14,-0.31 0.25,-0.76 0.02,-1c-0.11,-0.12 -0.38,0.11 -0.49,-0.01c-0.23,-0.24 0.25,-0.76 0.02,-1c-0.11,-0.12 -0.38,0.11 -0.49,-0.01c-0.31,-0.33 0.23,-1.58 0.04,-2c-0.35,-0.75 -2.16,-2.67 -2.89,-3.06c-0.65,-0.34 -2.45,0.46 -2.94,-0.05c-0.11,-0.12 0.13,-0.38 0.01,-0.5c-0.24,-0.25 -2.06,-0.04 -2.45,-0.05l-16.16,-0.29c-10.79,-0.2 -21.01,0.11 -31.85,-0.09c-2.31,-0.04 -14.42,-0.9 -15.67,-0.29c-1.95,0.95 -3.36,0.94 -5.9,0.89c-0.91,-0.02 -0.7,0.09 -1.48,0.47c-1.84,0.9 -5.01,-1.02 -6.86,-0.12c-0.2,0.1 -0.29,0.39 -0.5,0.49c-0.29,0.14 -0.74,-0.25 -0.97,-0.02c-0.12,0.12 0.1,0.38 -0.01,0.5c-0.17,0.16 -1.32,0.31 -1.48,0.47c-0.12,0.12 0.11,0.39 -0.01,0.5c-0.12,0.12 -0.37,-0.12 -0.49,-0.01c-0.3,0.3 -0.3,0.59 -0.51,1c-1.06,2.06 0.04,-0.54 -0.99,0.48c-0.25,0.24 -0.26,0.74 -0.51,0.99c-1.03,1.01 0.07,-1.58 -0.99,0.48c-0.07,0.15 0.11,0.38 0,0.5c-0.12,0.12 -0.38,-0.12 -0.49,-0.01c-0.24,0.23 0.21,0.77 -0.02,1c-0.12,0.12 -0.38,-0.12 -0.49,-0.01c-0.47,0.46 -0.56,2.03 -1.03,2.48c-0.12,0.12 -0.37,-0.12 -0.49,-0.01c-0.23,0.24 0.22,0.77 -0.02,1c-0.11,0.12 -0.37,-0.12 -0.49,0c-0.35,0.34 -0.06,3.49 -0.57,4.49c-0.66,1.28 -0.88,2.68 -1.54,3.97c-0.95,1.85 0.82,5.15 -0.13,7c-0.11,0.21 -0.39,0.28 -0.5,0.49c-0.25,0.49 -0.58,16.95 -0.32,17.5c0.96,2.06 0.52,4.25 1.36,6.03c0.18,0.38 -0.2,11.46 -0.22,11.5c-0.1,0.21 -0.39,0.28 -0.5,0.49c-0.5,0.98 -0.11,6.1 -0.13,7.5c-0.01,0.3 0.15,1.81 -0.04,2c-0.12,0.11 -0.37,-0.13 -0.49,-0.01c-0.12,0.11 -0.18,9.47 -0.19,10.5c-0.02,0.73 -0.22,7.42 -0.14,7.5c0.11,0.12 0.37,-0.11 0.49,0.01c0.24,0.25 -0.27,1.24 -0.03,1.5c0.11,0.12 0.38,-0.11 0.49,0.01c0.23,0.24 -0.16,0.7 -0.02,1c0.11,0.24 1.39,2.49 1.42,2.52c0.12,0.12 0.33,0.01 0.49,0.01l3.43,0.07z" fill="#e5bc9e" id="path4" stroke-width="1"/>
   <path d="m418.67,60.87c0,0.66 -0.67,1.96 0,1.96c0.66,0 0,-2.61 0,-1.96c0,0.64 -0.48,9.85 0,10.78c0.1,0.21 0.39,0.28 0.5,0.49c0.31,0.62 -0.48,2.47 0,2.94c0.11,0.12 0.38,-0.12 0.5,0c0.06,0.06 0,5.31 0,5.88c0,1.95 0.53,12.18 0,13.23c-0.63,1.22 -0.5,2.44 -0.5,3.92c0,0.57 0.06,5.82 0,5.87c-0.12,0.12 -0.39,-0.11 -0.5,0c-0.25,0.25 0,2.07 0,2.45c0,2.33 0.23,4.69 -0.5,6.86c-0.62,1.81 0,6.29 0,8.33c0,2.66 0.64,13.31 0,15.19c-0.08,0.22 -0.4,0.28 -0.5,0.49c-0.5,0.97 0,6.34 0,7.84c0,0.3 -0.2,1.77 0,1.96c0.11,0.11 0.38,-0.12 0.5,0c0.31,0.31 -0.21,1.55 0,1.96c0.1,0.2 0.39,0.28 0.5,0.49c0.36,0.71 -0.15,1.82 0.5,2.45c0.25,0.24 0.75,0.24 1,0.49c1.03,1.01 -1.59,-0.04 0.5,0.98c0.15,0.07 0.38,-0.12 0.5,0c0.11,0.11 -0.12,0.37 0,0.49c0.23,0.23 0.76,-0.23 1,0c0.25,0.24 0.25,0.73 0.5,0.98c0.23,0.23 0.76,-0.23 1,0c0.11,0.11 -0.12,0.37 0,0.49c0.23,0.23 0.76,-0.23 1,0c0.11,0.11 -0.12,0.37 0,0.49c0.25,0.24 2.11,0 2.5,0c2.18,0 14.28,0.59 15.5,0c0.21,-0.11 0.28,-0.42 0.5,-0.49c1.26,-0.42 3.31,0.58 4.5,0c0.21,-0.11 0.29,-0.39 0.5,-0.49c0.2,-0.1 11.12,-0.68 11.5,-0.49c1.57,0.77 3.43,0.69 5,1.47c0.63,0.31 2.52,-0.47 3,0c0.12,0.11 -0.11,0.37 0,0.49c0.75,0.73 3.75,-0.74 4.5,0c0.12,0.11 -0.11,0.37 0,0.49c0.1,0.09 6.07,0 7,0c0.88,0 12.43,0.08 12.51,0c0.11,-0.12 -0.12,-0.38 0,-0.49c0.23,-0.23 1.19,0.14 1.5,0c0.72,-0.36 1.28,-0.63 2,-0.98c0.66,-0.33 1.83,0.32 2.5,0c0.15,-0.08 -0.12,-0.38 0,-0.49c0.4,-0.39 1.97,0.25 2.5,0c0.72,-0.36 1.28,-0.63 2,-0.98c0.8,-0.4 2.2,0.39 3,0c0.72,-0.36 1.28,-0.63 2,-0.98c0.3,-0.15 0.76,0.23 1,0c0.12,-0.12 -0.12,-0.38 0,-0.49c0.23,-0.23 0.76,0.23 1,0c0.12,-0.12 -0.12,-0.38 0,-0.49c0.32,-0.31 1.58,0.2 2,0c0.74,-0.37 2.63,-2.21 3,-2.94c0.33,-0.66 -0.5,-2.45 0,-2.94c0.12,-0.12 0.38,0.11 0.5,0c0.25,-0.25 0,-2.07 0,-2.45c0,-5.39 0,-10.78 0,-16.17c0,-10.79 -0.5,-21 -0.5,-31.84c0,-2.32 0.64,-14.44 0,-15.68c-0.99,-1.93 -1,-3.34 -1,-5.88c0,-0.91 -0.11,-0.7 -0.5,-1.47c-0.93,-1.83 0.93,-5.03 0,-6.86c-0.11,-0.21 -0.39,-0.28 -0.5,-0.49c-0.15,-0.29 0.24,-0.75 0,-0.98c-0.12,-0.11 -0.38,0.12 -0.5,0c-0.17,-0.16 -0.33,-1.3 -0.5,-1.47c-0.12,-0.11 -0.38,0.12 -0.5,0c-0.12,-0.11 0.12,-0.37 0,-0.49c-0.3,-0.29 -0.59,-0.29 -1,-0.49c-2.08,-1.02 0.53,0.04 -0.5,-0.98c-0.25,-0.24 -0.75,-0.24 -1,-0.49c-1.04,-1.01 1.58,0.04 -0.5,-0.98c-0.15,-0.07 -0.38,0.12 -0.5,0c-0.12,-0.11 0.12,-0.37 0,-0.49c-0.24,-0.23 -0.77,0.23 -1,0c-0.12,-0.11 0.12,-0.37 0,-0.49c-0.47,-0.45 -2.03,-0.52 -2.5,-0.98c-0.12,-0.11 0.12,-0.37 0,-0.49c-0.24,-0.23 -0.77,0.23 -1,0c-0.12,-0.11 0.12,-0.37 0,-0.49c-0.36,-0.34 -3.49,0.01 -4.5,-0.49c-1.3,-0.63 -2.7,-0.83 -4,-1.47c-1.87,-0.91 -5.14,0.92 -7,0c-0.21,-0.1 -0.29,-0.38 -0.5,-0.49c-0.5,-0.24 -16.97,-0.26 -17.51,0c-2.03,1 -4.23,0.61 -6,1.47c-0.38,0.19 -11.46,0.02 -11.5,0c-0.21,-0.1 -0.29,-0.38 -0.5,-0.49c-0.99,-0.48 -6.1,0 -7.5,0c-0.31,0 -1.81,0.19 -2,0c-0.12,-0.11 0.12,-0.37 0,-0.49c-0.12,-0.11 -9.48,0 -10.5,0c-0.73,0 -7.42,-0.07 -7.5,0c-0.12,0.12 0.11,0.38 0,0.49c-0.25,0.25 -1.25,-0.24 -1.5,0c-0.12,0.12 0.11,0.38 0,0.49c-0.24,0.23 -0.71,-0.14 -1,0c-0.24,0.12 -2.47,1.44 -2.5,1.47c-0.12,0.12 0,0.33 0,0.49c0,1.15 0,2.29 0,3.43z" fill="#c8a53f" id="path5" stroke-width="1"/>
   <path d="m553.34,54.36c-0.66,0 -1.98,-0.66 -1.98,0c0,0.66 2.62,-0.16 1.98,0c-5.39,1.35 -17.19,0.5 -23.26,0.5c-0.79,0 -4.44,-0.5 -4.95,0c-0.11,0.11 0.12,0.38 0,0.49c-0.36,0.36 -1.98,0.01 -2.47,0.5c-0.12,0.11 0.12,0.38 0,0.49c-0.17,0.17 -1.32,0.33 -1.48,0.5c-0.12,0.11 0.11,0.38 0,0.49c-0.24,0.23 -0.76,-0.23 -0.99,0c-0.12,0.12 0.11,0.38 0,0.5c-0.24,0.23 -0.76,-0.24 -0.99,0c-0.25,0.24 -0.25,0.74 -0.5,0.99c-0.12,0.11 -0.38,-0.12 -0.49,0c-0.24,0.23 0.23,0.75 0,0.99c-0.03,0.02 -1.46,0.96 -1.49,0.99c-0.23,0.23 0.24,0.75 0,0.98c-0.25,0.25 -0.74,0.25 -0.99,0.5c-0.33,0.33 0.33,1.65 0,1.98c-0.46,0.46 -0.49,-0.04 -0.49,0.99c0,4.95 0,9.89 0,14.84c0,1.2 -0.43,5.58 0,6.43c0.1,0.21 0.39,0.29 0.49,0.5c0.49,0.97 0,6.6 0,7.92c0,0.33 0.15,0.69 0,0.99c-0.78,1.55 -0.09,3.16 -0.49,3.95c-0.11,0.21 -0.39,0.29 -0.5,0.5c-0.63,1.27 0,4.58 0,5.94c0,4.61 0,9.23 0,13.85c0,2.32 0.46,5.16 0,7.42c-0.47,2.35 -1.82,7.39 -0.99,9.9c0.08,0.22 0.42,0.27 0.5,0.49c0.16,0.49 0.26,3.73 0.49,3.96c0.12,0.12 0.38,-0.11 0.5,0c0.23,0.24 -0.15,0.7 0,0.99c0.15,0.31 1.35,2.35 1.48,2.48c0.12,0.11 0.38,-0.12 0.5,0c0.23,0.23 -0.24,0.75 0,0.99c0.24,0.24 0.74,0.24 0.99,0.49c0.11,0.12 -0.08,0.35 0,0.49c0.24,0.48 1.5,1.75 1.98,1.98c0.29,0.15 0.69,-0.14 0.99,0c1.53,0.77 2.42,0.72 3.95,1.49c1,0.5 2.87,-0.27 3.96,0c1.59,0.4 4.61,1.31 5.94,1.98c0.3,0.15 1.26,-0.23 1.48,0c0.12,0.11 -0.11,0.38 0,0.49c0.44,0.44 4.62,-0.41 5.45,0c0.14,0.08 -0.12,0.38 0,0.5c0.35,0.35 2.91,0 3.46,0c6.93,0 13.85,0 20.78,0c1.08,0 13.26,0.1 13.36,0c0.12,-0.12 -0.12,-0.38 0,-0.5c0.58,-0.57 2.89,0.58 3.46,0c0.12,-0.11 -0.11,-0.38 0,-0.49c0.06,-0.06 6.21,0 6.93,0c1.98,0 13.1,0.26 13.86,-0.5c0.11,-0.11 -0.12,-0.38 0,-0.49c0.23,-0.24 0.75,0.23 0.99,0c0.11,-0.12 -0.12,-0.38 0,-0.5c0.11,-0.11 0.37,0.12 0.49,0c0.25,-0.24 0.25,-0.74 0.5,-0.99c0.3,-0.3 1.15,-0.32 1.48,-0.99c0.07,-0.14 -0.12,-0.37 0,-0.49c0.12,-0.12 0.38,0.12 0.49,0c0.22,-0.21 0.78,-1.66 0.99,-1.98c0.26,-0.39 0.79,-0.57 0.99,-0.99c0.08,-0.15 -0.11,-0.38 0,-0.49c1.03,-1.03 -0.04,1.56 0.99,-0.5c0.16,-0.3 0.32,-1.79 0.5,-1.98c0.2,-0.2 0.63,-0.27 0.99,-0.99c0.35,-0.71 0.91,-9.55 0.49,-10.39c-0.41,-0.83 -0.49,-0.96 -0.49,-1.98c0,-5.38 0.79,-11.65 -0.5,-16.82c-0.27,-1.11 0.51,-2.94 0,-3.96c-0.1,-0.21 -0.39,-0.29 -0.49,-0.49c-0.25,-0.51 0.39,-2.09 0,-2.48c-0.12,-0.11 -0.42,0.15 -0.5,0c-0.27,-0.54 0.2,-1.4 0,-1.98c-0.07,-0.21 -0.97,-2.42 -0.99,-2.47c-0.41,-1.66 0.55,-3.82 0,-5.44c-0.58,-1.76 0.07,-3.76 -0.49,-5.45c-0.52,-1.55 -0.11,-2.89 -0.5,-4.45c-1.07,-4.28 -0.49,-9.36 -0.49,-13.85c0,-3.08 1.46,-6.98 0,-9.9c-0.15,-0.3 0.15,-0.69 0,-0.99c-0.24,-0.48 -1.27,-2.75 -1.48,-2.97c-0.17,-0.16 -1.69,-0.84 -1.98,-0.99c-0.97,-0.48 -1.47,-1.64 -2.48,-1.98c-0.47,-0.15 -1.04,0.22 -1.48,0c-1.36,-0.68 -2.9,-0.96 -4.46,-1.48c-1.18,-0.4 -3.23,0 -4.45,0c-4.29,0 -8.58,0 -12.86,0c-1.71,0 -3.79,0.27 -5.45,0c-0.36,-0.06 -0.64,-0.38 -0.99,-0.5c-1.24,-0.41 -1.68,0.15 -2.96,-0.49c-0.54,-0.27 -12.21,-0.25 -12.87,0c-1.18,0.44 -2.31,0.99 -3.46,1.48z" fill="#e5bc9e" id="path6"/>
   <path d="m609.74,115.78c0,0.65 -0.66,1.97 0,1.97c0.66,0 -0.16,-2.62 0,-1.97c1.34,5.38 0.48,17.18 0.48,23.25c0,0.79 -0.51,4.45 0,4.95c0.11,0.12 0.37,-0.12 0.49,0c0.36,0.36 0.01,1.99 0.49,2.47c0.12,0.12 0.38,-0.11 0.5,0c0.16,0.17 0.33,1.32 0.49,1.49c0.12,0.12 0.38,-0.12 0.5,0c0.23,0.23 -0.24,0.75 0,0.99c0.11,0.12 0.37,-0.12 0.49,0c0.23,0.23 -0.23,0.75 0,0.99c0.25,0.25 0.74,0.25 0.99,0.49c0.12,0.12 -0.12,0.38 0,0.5c0.23,0.23 0.76,-0.23 0.99,0c0.03,0.03 0.96,1.46 0.99,1.48c0.23,0.24 0.75,-0.23 0.99,0c0.24,0.25 0.24,0.75 0.49,0.99c0.33,0.33 1.65,-0.32 1.98,0.01c0.46,0.46 -0.04,0.49 0.99,0.49c4.95,0 9.9,0.01 14.84,0.01c1.2,0 5.58,0.43 6.44,0c0.2,-0.1 0.28,-0.39 0.49,-0.49c0.98,-0.49 6.6,0 7.92,0c0.33,0 0.69,-0.14 0.99,0.01c1.55,0.77 3.16,0.09 3.96,0.49c0.2,0.11 0.28,0.39 0.49,0.5c1.27,0.63 4.58,0 5.94,0c4.62,0 9.23,0.01 13.85,0.01c2.32,0 5.16,-0.45 7.42,0.01c2.35,0.47 7.39,1.83 9.9,0.99c0.22,-0.07 0.27,-0.42 0.49,-0.49c0.49,-0.16 3.73,-0.26 3.96,-0.5c0.12,-0.11 -0.11,-0.37 0,-0.49c0.24,-0.23 0.7,0.15 0.99,0c0.31,-0.15 2.35,-1.35 2.48,-1.48c0.11,-0.12 -0.12,-0.38 0,-0.5c0.23,-0.23 0.75,0.24 0.99,0c0.25,-0.24 0.25,-0.74 0.49,-0.99c0.12,-0.11 0.35,0.08 0.5,0c0.48,-0.23 1.74,-1.5 1.98,-1.97c0.15,-0.3 -0.15,-0.7 0,-0.99c0.77,-1.54 0.72,-2.43 1.49,-3.96c0.5,-1 -0.27,-2.87 0,-3.96c0.4,-1.58 1.32,-4.61 1.98,-5.94c0.15,-0.29 -0.23,-1.25 0,-1.48c0.12,-0.12 0.38,0.12 0.5,0c0.43,-0.44 -0.42,-4.61 0,-5.44c0.07,-0.15 0.38,0.11 0.49,0c0.35,-0.35 0.01,-2.92 0.01,-3.47c0,-6.92 0.01,-13.85 0.01,-20.78c0,-1.08 0.11,-13.25 0.01,-13.36c-0.12,-0.11 -0.38,0.12 -0.5,0c-0.57,-0.57 0.58,-2.88 0,-3.46c-0.11,-0.12 -0.37,0.12 -0.49,0c-0.06,-0.06 0,-6.2 0,-6.93c0.01,-1.98 0.27,-13.1 -0.48,-13.85c-0.12,-0.12 -0.38,0.11 -0.5,0c-0.23,-0.24 0.24,-0.76 0,-0.99c-0.11,-0.12 -0.37,0.11 -0.49,0c-0.12,-0.12 0.12,-0.38 0,-0.5c-0.25,-0.25 -0.74,-0.25 -0.99,-0.49c-0.3,-0.31 -0.33,-1.16 -0.99,-1.49c-0.15,-0.07 -0.38,0.12 -0.49,0c-0.12,-0.11 0.11,-0.38 0,-0.49c-0.22,-0.22 -1.66,-0.78 -1.98,-0.99c-0.39,-0.26 -0.57,-0.79 -0.99,-0.99c-0.15,-0.08 -0.38,0.11 -0.5,0c-1.02,-1.03 1.57,0.04 -0.49,-0.99c-0.31,-0.16 -1.8,-0.32 -1.98,-0.5c-0.2,-0.2 -0.27,-0.63 -0.99,-0.99c-0.71,-0.36 -9.55,-0.92 -10.39,-0.5c-0.83,0.41 -0.96,0.49 -1.98,0.49c-5.38,0 -11.65,-0.8 -16.82,0.49c-1.11,0.27 -2.94,-0.52 -3.96,-0.01c-0.21,0.11 -0.29,0.39 -0.49,0.5c-0.51,0.25 -2.09,-0.4 -2.48,0c-0.12,0.11 0.15,0.42 0,0.49c-0.54,0.27 -1.4,-0.19 -1.98,0c-0.21,0.07 -2.42,0.98 -2.47,0.99c-1.66,0.41 -3.82,-0.55 -5.45,-0.01c-1.75,0.59 -3.75,-0.07 -5.44,0.5c-1.55,0.51 -2.89,0.1 -4.45,0.49c-4.28,1.07 -9.36,0.49 -13.86,0.48c-3.07,0 -6.97,-1.46 -9.89,0c-0.3,0.15 -0.7,-0.15 -0.99,0c-0.48,0.24 -2.76,1.26 -2.97,1.48c-0.17,0.16 -0.85,1.69 -0.99,1.98c-0.48,0.96 -1.65,1.46 -1.98,2.47c-0.16,0.47 0.22,1.04 0,1.49c-0.68,1.35 -0.97,2.9 -1.49,4.45c-0.4,1.19 0,3.23 0,4.45c-0.01,4.29 -0.01,8.58 -0.01,12.87c0,1.7 0.27,3.79 -0.01,5.44c-0.06,0.36 -0.37,0.64 -0.49,0.99c-0.42,1.24 0.15,1.68 -0.5,2.97c-0.27,0.53 -0.25,12.2 -0.01,12.86c0.44,1.18 0.99,2.31 1.49,3.47z" fill="#c8a53f" id="path7"/>
   <path d="m713.76,150.6c0.66,0.01 1.95,0.7 1.96,0.03c0.02,-0.66 -2.61,-0.04 -1.96,-0.03c0.64,0.01 9.84,0.65 10.78,0.2c0.21,-0.11 0.29,-0.39 0.5,-0.49c0.62,-0.31 2.46,0.52 2.94,0.05c0.12,-0.12 -0.11,-0.38 0.01,-0.5c0.06,-0.06 5.31,0.1 5.88,0.11c1.95,0.03 12.18,-0.31 13.22,0.24c1.21,0.65 2.43,0.55 3.91,0.57c0.57,0.01 5.82,0.05 5.88,0.11c0.11,0.12 -0.12,0.38 -0.01,0.5c0.24,0.26 2.06,0.04 2.45,0.05c2.33,0.04 4.69,-0.15 6.85,0.62c1.79,0.65 6.28,0.12 8.32,0.16c2.66,0.05 13.32,-0.4 15.19,0.28c0.22,0.08 0.27,0.4 0.48,0.51c0.96,0.51 6.34,0.11 7.84,0.14c0.3,0.01 1.76,0.23 1.96,0.04c0.11,-0.12 -0.11,-0.39 0.01,-0.5c0.31,-0.31 1.54,0.23 1.95,0.03c0.21,-0.1 0.3,-0.39 0.5,-0.49c0.73,-0.35 1.82,0.18 2.46,-0.45c0.25,-0.25 0.26,-0.75 0.51,-0.99c1.03,-1.02 -0.07,1.58 0.99,-0.49c0.07,-0.14 -0.11,-0.38 0.01,-0.5c0.12,-0.11 0.37,0.13 0.49,0.01c0.23,-0.23 -0.22,-0.76 0.02,-1c0.25,-0.24 0.74,-0.23 0.99,-0.48c0.23,-0.23 -0.22,-0.77 0.01,-1c0.12,-0.11 0.38,0.13 0.49,0.01c0.24,-0.23 -0.21,-0.77 0.02,-1c0.12,-0.11 0.37,0.13 0.49,0.01c0.25,-0.24 0.04,-2.11 0.05,-2.5c0.04,-2.18 0.86,-14.27 0.28,-15.5c-0.1,-0.21 -0.41,-0.28 -0.48,-0.51c-0.39,-1.27 0.64,-3.3 0.09,-4.5c-0.1,-0.21 -0.39,-0.29 -0.48,-0.51c-0.1,-0.2 -0.48,-11.12 -0.28,-11.51c0.8,-1.55 0.76,-3.41 1.56,-4.97c0.32,-0.62 -0.42,-2.53 0.05,-3c0.12,-0.11 0.38,0.13 0.49,0.01c0.75,-0.74 -0.66,-3.76 0.09,-4.5c0.12,-0.12 0.37,0.12 0.49,0.01c0.09,-0.09 0.11,-6.07 0.13,-7c0.01,-0.87 0.31,-12.42 0.23,-12.5c-0.12,-0.12 -0.38,0.11 -0.49,-0.01c-0.22,-0.23 0.17,-1.19 0.02,-1.5l-0.94,-2.02c-0.31,-0.67 0.36,-1.82 0.05,-2.5c-0.07,-0.15 -0.38,0.11 -0.49,-0.01c-0.39,-0.4 0.29,-1.97 0.04,-2.5c-0.34,-0.72 -0.6,-1.29 -0.94,-2.01c-0.38,-0.81 0.43,-2.2 0.06,-3c-0.34,-0.73 -0.61,-1.29 -0.95,-2.02c-0.14,-0.3 0.25,-0.76 0.02,-1c-0.11,-0.12 -0.37,0.11 -0.49,-0.01c-0.22,-0.24 0.25,-0.76 0.02,-1c-0.11,-0.12 -0.38,0.11 -0.49,-0.01c-0.3,-0.32 0.23,-1.58 0.04,-2c-0.35,-0.75 -2.16,-2.67 -2.89,-3.05c-0.64,-0.35 -2.45,0.45 -2.93,-0.06c-0.12,-0.12 0.12,-0.38 0,-0.5c-0.24,-0.25 -2.06,-0.04 -2.44,-0.04l-16.17,-0.3c-10.79,-0.2 -21.01,0.11 -31.85,-0.09c-2.31,-0.04 -14.41,-0.9 -15.67,-0.29c-1.95,0.95 -3.35,0.94 -5.9,0.89c-0.91,-0.01 -0.7,0.1 -1.48,0.48c-1.84,0.9 -5.01,-1.03 -6.85,-0.13c-0.21,0.1 -0.29,0.39 -0.5,0.49c-0.3,0.14 -0.75,-0.25 -0.98,-0.02c-0.12,0.12 0.11,0.39 -0.01,0.5c-0.17,0.17 -1.31,0.31 -1.48,0.48c-0.12,0.11 0.11,0.38 -0.01,0.5c-0.12,0.11 -0.37,-0.13 -0.49,-0.01c-0.3,0.29 -0.3,0.58 -0.51,0.99c-1.06,2.06 0.05,-0.54 -0.99,0.48c-0.25,0.24 -0.26,0.74 -0.5,0.99c-1.04,1.02 0.06,-1.58 -0.99,0.48c-0.08,0.15 0.1,0.39 -0.01,0.5c-0.12,0.12 -0.37,-0.12 -0.49,-0.01c-0.24,0.23 0.21,0.77 -0.02,1c-0.12,0.12 -0.37,-0.12 -0.49,-0.01c-0.47,0.46 -0.56,2.03 -1.03,2.49c-0.11,0.11 -0.37,-0.13 -0.49,-0.01c-0.23,0.23 0.22,0.77 -0.01,1c-0.12,0.11 -0.38,-0.13 -0.49,-0.01c-0.36,0.35 -0.07,3.49 -0.58,4.49c-0.66,1.28 -0.88,2.68 -1.54,3.97c-0.95,1.85 0.82,5.15 -0.13,7c-0.11,0.21 -0.39,0.28 -0.5,0.49c-0.25,0.49 -0.58,16.96 -0.32,17.5c0.96,2.06 0.53,4.25 1.36,6.03c0.18,0.38 -0.2,11.46 -0.21,11.5c-0.11,0.21 -0.4,0.28 -0.5,0.49c-0.51,0.99 -0.12,6.1 -0.14,7.5c-0.01,0.3 0.16,1.81 -0.04,2c-0.12,0.12 -0.37,-0.13 -0.49,-0.01c-0.11,0.11 -0.17,9.47 -0.19,10.5c-0.02,0.73 -0.22,7.42 -0.14,7.5c0.11,0.12 0.38,-0.11 0.49,0.01c0.24,0.25 -0.27,1.24 -0.03,1.5c0.11,0.12 0.38,-0.11 0.49,0.01c0.23,0.24 -0.16,0.7 -0.02,1c0.11,0.24 1.4,2.49 1.43,2.53c0.11,0.12 0.32,0 0.49,0l3.42,0.07z" fill="#e5bc9e" id="path8" stroke-width="1"/>
   <path d="m811.32,64.93c0,0.65 -0.66,1.96 0,1.96c0.67,0 0,-2.61 0,-1.96c0,0.64 -0.47,9.85 0,10.78c0.11,0.21 0.4,0.28 0.5,0.49c0.32,0.62 -0.48,2.47 0,2.94c0.12,0.11 0.38,-0.12 0.5,0c0.06,0.06 0,5.31 0,5.88c0,1.95 0.54,12.17 0,13.23c-0.62,1.22 -0.5,2.44 -0.5,3.91c0,0.57 0.06,5.82 0,5.88c-0.12,0.12 -0.38,-0.11 -0.5,0c-0.25,0.25 0,2.07 0,2.45c0,2.33 0.24,4.69 -0.5,6.86c-0.61,1.81 0,6.29 0,8.33c0,2.66 0.64,13.31 0,15.19c-0.07,0.22 -0.39,0.28 -0.5,0.49c-0.49,0.97 0,6.34 0,7.84c0,0.3 -0.19,1.77 0,1.96c0.12,0.11 0.38,-0.12 0.5,0c0.32,0.31 -0.21,1.55 0,1.96c0.11,0.2 0.4,0.28 0.5,0.49c0.37,0.71 -0.14,1.81 0.5,2.45c0.25,0.24 0.75,0.24 1,0.49c1.04,1.01 -1.58,-0.04 0.5,0.98c0.15,0.07 0.38,-0.12 0.5,0c0.12,0.11 -0.12,0.37 0,0.49c0.24,0.23 0.77,-0.24 1,0c0.25,0.24 0.25,0.73 0.5,0.98c0.24,0.23 0.77,-0.24 1,0c0.12,0.11 -0.11,0.37 0,0.49c0.24,0.23 0.77,-0.24 1,0c0.12,0.11 -0.11,0.37 0,0.49c0.25,0.24 2.11,0 2.5,0c2.18,0 14.28,0.59 15.51,0c0.21,-0.11 0.27,-0.42 0.5,-0.49c1.26,-0.42 3.31,0.58 4.5,0c0.21,-0.11 0.29,-0.39 0.5,-0.49c0.19,-0.1 11.11,-0.68 11.5,-0.49c1.57,0.77 3.42,0.69 5,1.47c0.63,0.3 2.52,-0.48 3,0c0.12,0.11 -0.12,0.37 0,0.48c0.75,0.74 3.75,-0.73 4.5,0c0.12,0.12 -0.12,0.38 0,0.49c0.09,0.1 6.07,0 7,0c0.87,0 12.42,0.08 12.5,0c0.12,-0.11 -0.11,-0.37 0,-0.49c0.23,-0.22 1.2,0.15 1.5,0c0.73,-0.35 1.28,-0.62 2,-0.97c0.67,-0.33 1.84,0.32 2.5,0c0.15,-0.08 -0.11,-0.38 0,-0.49c0.4,-0.4 1.98,0.25 2.5,0c0.73,-0.36 1.28,-0.63 2,-0.98c0.81,-0.4 2.21,0.39 3.01,0c0.72,-0.36 1.27,-0.63 2,-0.98c0.29,-0.15 0.76,0.23 1,0c0.11,-0.12 -0.12,-0.38 0,-0.49c0.23,-0.24 0.76,0.23 1,0c0.11,-0.12 -0.12,-0.38 0,-0.49c0.31,-0.32 1.58,0.2 2,0c0.74,-0.37 2.62,-2.21 3,-2.94c0.33,-0.66 -0.5,-2.45 0,-2.94c0.11,-0.12 0.38,0.11 0.5,0c0.25,-0.25 0,-2.07 0,-2.45c0,-5.39 0,-10.78 0,-16.17c0,-10.79 -0.5,-21.01 -0.5,-31.84c0,-2.32 0.63,-14.44 0,-15.68c-0.99,-1.93 -1,-3.34 -1,-5.88c0,-0.92 -0.11,-0.7 -0.5,-1.47c-0.94,-1.83 0.93,-5.03 0,-6.86c-0.11,-0.21 -0.4,-0.28 -0.5,-0.49c-0.15,-0.29 0.23,-0.75 0,-0.98c-0.12,-0.11 -0.39,0.12 -0.5,0c-0.17,-0.16 -0.34,-1.31 -0.5,-1.47c-0.12,-0.11 -0.39,0.12 -0.5,0c-0.12,-0.11 0.11,-0.37 0,-0.49c-0.3,-0.29 -0.59,-0.29 -1,-0.49c-2.09,-1.02 0.53,0.03 -0.5,-0.98c-0.25,-0.24 -0.75,-0.24 -1,-0.49c-1.04,-1.01 1.58,0.04 -0.5,-0.98c-0.15,-0.07 -0.39,0.12 -0.5,0c-0.12,-0.11 0.11,-0.37 0,-0.49c-0.24,-0.23 -0.77,0.23 -1,0c-0.12,-0.11 0.11,-0.37 0,-0.49c-0.47,-0.46 -2.04,-0.52 -2.5,-0.98c-0.12,-0.11 0.11,-0.37 0,-0.49c-0.24,-0.23 -0.77,0.23 -1,0c-0.12,-0.11 0.11,-0.37 0,-0.49c-0.36,-0.35 -3.5,0.01 -4.51,-0.49c-1.29,-0.63 -2.69,-0.83 -4,-1.47c-1.86,-0.91 -5.13,0.92 -7,0c-0.21,-0.1 -0.29,-0.38 -0.5,-0.49c-0.49,-0.24 -16.96,-0.26 -17.5,0c-2.04,1 -4.24,0.61 -6,1.47c-0.38,0.19 -11.47,0.02 -11.5,0c-0.21,-0.1 -0.29,-0.38 -0.5,-0.49c-1,-0.49 -6.11,0 -7.5,0c-0.31,0 -1.81,0.19 -2,0c-0.12,-0.11 0.11,-0.37 0,-0.49c-0.12,-0.11 -9.48,0 -10.51,0c-0.73,0 -7.42,-0.08 -7.5,0c-0.11,0.12 0.12,0.38 0,0.49c-0.25,0.25 -1.25,-0.24 -1.5,0c-0.11,0.12 0.12,0.38 0,0.49c-0.23,0.23 -0.7,-0.14 -1,0c-0.23,0.12 -2.47,1.44 -2.5,1.47c-0.12,0.12 0,0.33 0,0.49c0,1.14 0,2.29 0,3.43z" fill="#c8a53f" id="path1-3" stroke-width="1"/>
   <path d="m944.67,58.43c-0.66,0 -1.98,-0.66 -1.98,0c0,0.66 2.62,-0.16 1.98,0c-5.38,1.35 -17.18,0.5 -23.25,0.5c-0.79,0 -4.45,-0.5 -4.95,0c-0.12,0.11 0.12,0.37 0,0.49c-0.36,0.36 -1.99,0.01 -2.47,0.5c-0.12,0.11 0.11,0.37 0,0.49c-0.17,0.17 -1.32,0.33 -1.49,0.5c-0.11,0.11 0.12,0.37 0,0.49c-0.23,0.23 -0.75,-0.23 -0.99,0c-0.11,0.12 0.12,0.38 0,0.5c-0.23,0.23 -0.75,-0.24 -0.99,0c-0.24,0.24 -0.24,0.74 -0.49,0.98c-0.12,0.12 -0.38,-0.11 -0.5,0c-0.23,0.24 0.24,0.76 0,0.99c-0.02,0.03 -1.45,0.97 -1.48,0.99c-0.23,0.24 0.23,0.76 0,0.99c-0.25,0.25 -0.74,0.25 -0.99,0.5c-0.33,0.33 0.33,1.65 0,1.98c-0.46,0.46 -0.5,-0.04 -0.5,0.99c0,4.95 0,9.89 0,14.84c0,1.2 -0.42,5.58 0,6.43c0.11,0.21 0.39,0.29 0.5,0.5c0.49,0.97 0,6.6 0,7.92c0,0.33 0.15,0.69 0,0.98c-0.78,1.56 -0.1,3.17 -0.5,3.96c-0.1,0.21 -0.39,0.29 -0.49,0.5c-0.63,1.27 0,4.58 0,5.94c0,4.61 0,9.23 0,13.85c0,2.32 0.45,5.16 0,7.42c-0.47,2.35 -1.83,7.39 -0.99,9.9c0.07,0.22 0.42,0.27 0.49,0.49c0.17,0.49 0.27,3.73 0.5,3.96c0.12,0.12 0.38,-0.12 0.49,0c0.24,0.23 -0.14,0.7 0,0.99c0.16,0.31 1.36,2.35 1.49,2.47c0.12,0.12 0.38,-0.11 0.49,0c0.24,0.24 -0.23,0.76 0,0.99c0.25,0.25 0.75,0.25 0.99,0.5c0.12,0.12 -0.07,0.35 0,0.49c0.24,0.48 1.5,1.74 1.98,1.98c0.3,0.15 0.7,-0.14 0.99,0c1.54,0.77 2.42,0.72 3.96,1.49c1,0.5 2.87,-0.27 3.96,0c1.58,0.39 4.61,1.31 5.94,1.98c0.3,0.15 1.25,-0.23 1.48,0c0.12,0.11 -0.12,0.37 0,0.49c0.44,0.44 4.61,-0.41 5.44,0c0.15,0.08 -0.11,0.38 0,0.5c0.35,0.35 2.92,0 3.47,0c6.92,0 13.85,0 20.78,0c1.08,0 13.26,0.1 13.36,0c0.11,-0.12 -0.12,-0.38 0,-0.5c0.58,-0.58 2.88,0.58 3.46,0c0.12,-0.12 -0.11,-0.38 0,-0.49c0.06,-0.06 6.2,0 6.93,0c1.98,0 13.1,0.26 13.85,-0.5c0.12,-0.11 -0.11,-0.38 0,-0.49c0.24,-0.24 0.76,0.23 0.99,0c0.12,-0.12 -0.11,-0.38 0,-0.5c0.12,-0.11 0.38,0.12 0.5,0c0.25,-0.25 0.25,-0.74 0.49,-0.99c0.31,-0.3 1.16,-0.32 1.49,-0.99c0.07,-0.14 -0.12,-0.38 0,-0.49c0.11,-0.12 0.37,0.11 0.49,0c0.22,-0.22 0.78,-1.66 0.99,-1.98c0.26,-0.39 0.78,-0.57 0.99,-0.99c0.07,-0.15 -0.12,-0.38 0,-0.5c1.02,-1.02 -0.04,1.57 0.99,-0.49c0.15,-0.31 0.31,-1.8 0.5,-1.98c0.19,-0.2 0.62,-0.27 0.98,-0.99c0.36,-0.71 0.92,-9.55 0.5,-10.39c-0.42,-0.83 -0.5,-0.96 -0.5,-1.98c0,-5.38 0.8,-11.66 -0.49,-16.82c-0.28,-1.11 0.51,-2.94 0,-3.96c-0.1,-0.21 -0.39,-0.29 -0.49,-0.5c-0.26,-0.5 0.39,-2.08 0,-2.47c-0.12,-0.12 -0.43,0.15 -0.5,0c-0.27,-0.54 0.19,-1.4 0,-1.98c-0.07,-0.21 -0.98,-2.42 -0.99,-2.47c-0.41,-1.66 0.54,-3.82 0,-5.45c-0.58,-1.75 0.07,-3.75 -0.49,-5.44c-0.52,-1.55 -0.11,-2.89 -0.5,-4.45c-1.07,-4.28 -0.49,-9.36 -0.49,-13.86c0,-3.07 1.46,-6.97 0,-9.89c-0.15,-0.3 0.14,-0.7 0,-0.99c-0.24,-0.48 -1.27,-2.75 -1.49,-2.97c-0.16,-0.16 -1.69,-0.84 -1.98,-0.99c-0.96,-0.48 -1.46,-1.64 -2.47,-1.98c-0.47,-0.16 -1.04,0.22 -1.49,0c-1.35,-0.68 -2.9,-0.97 -4.45,-1.48c-1.19,-0.4 -3.23,0 -4.45,0c-4.29,0 -8.58,0 -12.87,0c-1.7,0 -3.79,0.27 -5.44,0c-0.36,-0.06 -0.64,-0.38 -0.99,-0.5c-1.25,-0.41 -1.68,0.15 -2.97,-0.49c-0.54,-0.27 -12.2,-0.25 -12.86,0c-1.18,0.44 -2.31,0.99 -3.47,1.48z" fill="#e5bc9e" id="path2-7"/>
   <path d="m1001.07,117.2c0,0.66 -0.66,1.98 0,1.98c0.66,0 -0.15,-2.62 0,-1.98c1.35,5.39 0.49,17.19 0.49,23.26c-0.01,0.79 -0.51,4.45 0,4.95c0.11,0.11 0.37,-0.12 0.49,0c0.36,0.36 0.01,1.98 0.49,2.47c0.12,0.12 0.38,-0.11 0.5,0c0.16,0.17 0.33,1.32 0.49,1.49c0.12,0.11 0.38,-0.12 0.5,0c0.23,0.23 -0.24,0.75 0,0.99c0.11,0.11 0.37,-0.12 0.49,0c0.23,0.23 -0.23,0.75 0,0.99c0.25,0.24 0.74,0.24 0.99,0.49c0.12,0.12 -0.12,0.38 0,0.5c0.23,0.23 0.76,-0.24 0.99,0c0.03,0.02 0.96,1.46 0.99,1.48c0.23,0.24 0.75,-0.23 0.99,0c0.24,0.25 0.24,0.75 0.49,0.99c0.33,0.33 1.65,-0.33 1.98,0c0.46,0.47 -0.04,0.5 0.99,0.5c4.95,0 9.9,0.01 14.84,0.01c1.2,0 5.58,0.43 6.44,0c0.2,-0.1 0.28,-0.39 0.49,-0.49c0.98,-0.49 6.6,0 7.92,0c0.33,0 0.69,-0.14 0.99,0c1.55,0.78 3.16,0.1 3.96,0.5c0.2,0.11 0.28,0.39 0.49,0.5c1.27,0.63 4.58,0 5.94,0c4.62,0 9.23,0.01 13.85,0.01c2.32,0 5.16,-0.45 7.42,0c2.35,0.48 7.39,1.84 9.9,1c0.22,-0.07 0.27,-0.42 0.49,-0.49c0.49,-0.17 3.73,-0.27 3.96,-0.5c0.12,-0.11 -0.11,-0.37 0,-0.49c0.24,-0.23 0.7,0.15 0.99,0c0.31,-0.15 2.35,-1.35 2.48,-1.48c0.11,-0.12 -0.12,-0.38 0,-0.5c0.23,-0.23 0.75,0.24 0.99,0c0.25,-0.24 0.25,-0.74 0.49,-0.99c0.12,-0.11 0.35,0.08 0.5,0c0.48,-0.24 1.74,-1.5 1.98,-1.97c0.15,-0.3 -0.15,-0.7 0,-0.99c0.77,-1.54 0.72,-2.43 1.49,-3.96c0.5,-1 -0.27,-2.87 0,-3.96c0.39,-1.59 1.31,-4.61 1.98,-5.94c0.15,-0.3 -0.23,-1.25 0,-1.48c0.12,-0.12 0.38,0.12 0.49,0c0.44,-0.44 -0.41,-4.61 0,-5.44c0.08,-0.15 0.38,0.11 0.5,0c0.35,-0.35 0,-2.92 0,-3.47c0,-6.92 0.01,-13.85 0.01,-20.78c0,-1.08 0.11,-13.26 0.01,-13.36c-0.11,-0.11 -0.38,0.12 -0.49,0c-0.58,-0.58 0.58,-2.88 0,-3.46c-0.12,-0.12 -0.38,0.11 -0.5,0c-0.06,-0.06 0,-6.2 0,-6.93c0,-1.98 0.27,-13.1 -0.48,-13.85c-0.12,-0.12 -0.38,0.11 -0.5,0c-0.23,-0.24 0.24,-0.76 0,-0.99c-0.11,-0.12 -0.38,0.11 -0.49,0c-0.12,-0.12 0.11,-0.38 0,-0.5c-0.25,-0.25 -0.74,-0.25 -0.99,-0.49c-0.3,-0.31 -0.33,-1.16 -0.99,-1.49c-0.15,-0.07 -0.38,0.12 -0.49,0c-0.12,-0.12 0.11,-0.38 0,-0.49c-0.22,-0.22 -1.66,-0.78 -1.98,-1c-0.39,-0.25 -0.57,-0.78 -0.99,-0.99c-0.15,-0.07 -0.38,0.12 -0.5,0c-1.02,-1.02 1.57,0.05 -0.49,-0.99c-0.31,-0.15 -1.8,-0.31 -1.98,-0.49c-0.2,-0.2 -0.27,-0.63 -0.99,-0.99c-0.71,-0.36 -9.55,-0.92 -10.39,-0.5c-0.83,0.41 -0.96,0.49 -1.98,0.49c-5.38,0 -11.66,-0.8 -16.82,0.48c-1.11,0.28 -2.94,-0.51 -3.96,0c-0.21,0.11 -0.29,0.39 -0.5,0.5c-0.5,0.25 -2.08,-0.4 -2.47,0c-0.12,0.11 0.15,0.42 0,0.49c-0.54,0.27 -1.4,-0.19 -1.98,0c-0.21,0.07 -2.42,0.97 -2.47,0.99c-1.67,0.41 -3.82,-0.55 -5.45,-0.01c-1.75,0.59 -3.75,-0.07 -5.44,0.49c-1.55,0.52 -2.89,0.11 -4.45,0.5c-4.29,1.06 -9.36,0.49 -13.86,0.48c-3.07,0 -6.97,-1.46 -9.89,0c-0.3,0.14 -0.7,-0.15 -0.99,0c-0.48,0.23 -2.76,1.26 -2.97,1.48c-0.17,0.16 -0.85,1.69 -0.99,1.98c-0.49,0.96 -1.65,1.46 -1.98,2.47c-0.16,0.47 0.22,1.04 0,1.48c-0.68,1.36 -0.97,2.91 -1.49,4.46c-0.4,1.19 0,3.23 0,4.45c0,4.29 0,8.58 -0.01,12.86c0,1.71 0.27,3.8 0,5.45c-0.06,0.36 -0.38,0.64 -0.5,0.99c-0.41,1.24 0.15,1.68 -0.49,2.96c-0.27,0.54 -0.26,12.21 -0.01,12.87c0.44,1.18 0.99,2.31 1.48,3.46z" fill="#c8a53f" id="path3-4"/>
   <path d="m1105.1,153.35c0.65,0.01 1.95,0.7 1.96,0.03c0.01,-0.66 -2.61,-0.05 -1.96,-0.03c0.64,0.01 9.84,0.65 10.78,0.2c0.21,-0.11 0.29,-0.39 0.5,-0.5c0.62,-0.3 2.46,0.53 2.94,0.06c0.11,-0.12 -0.11,-0.39 0.01,-0.5c0.05,-0.06 5.3,0.1 5.87,0.11c1.96,0.03 12.19,-0.31 13.23,0.24c1.21,0.65 2.43,0.55 3.91,0.57c0.57,0.01 5.82,0.05 5.88,0.11c0.11,0.12 -0.13,0.38 -0.01,0.5c0.24,0.26 2.06,0.04 2.45,0.05c2.32,0.04 4.69,-0.16 6.84,0.62c1.8,0.65 6.29,0.12 8.33,0.16c2.66,0.05 13.32,-0.4 15.19,0.28c0.21,0.08 0.27,0.4 0.48,0.51c0.96,0.51 6.33,0.11 7.83,0.14c0.3,0.01 1.77,0.23 1.96,0.04c0.12,-0.12 -0.11,-0.39 0.01,-0.5c0.32,-0.32 1.55,0.23 1.96,0.03c0.21,-0.1 0.29,-0.39 0.5,-0.49c0.72,-0.35 1.82,0.18 2.46,-0.45c0.25,-0.25 0.26,-0.75 0.51,-0.99c1.03,-1.02 -0.07,1.58 0.99,-0.49c0.07,-0.14 -0.11,-0.38 0.01,-0.5c0.11,-0.11 0.37,0.13 0.49,0.01c0.23,-0.23 -0.22,-0.77 0.01,-1c0.25,-0.24 0.74,-0.23 0.99,-0.48c0.24,-0.23 -0.21,-0.77 0.02,-1c0.12,-0.11 0.37,0.13 0.49,0.01c0.24,-0.23 -0.22,-0.77 0.02,-1c0.12,-0.12 0.37,0.12 0.49,0.01c0.25,-0.25 0.04,-2.11 0.05,-2.5c0.04,-2.18 0.86,-14.27 0.28,-15.5c-0.1,-0.21 -0.41,-0.28 -0.48,-0.51c-0.39,-1.27 0.64,-3.3 0.08,-4.5c-0.1,-0.21 -0.38,-0.3 -0.48,-0.51c-0.09,-0.2 -0.47,-11.13 -0.27,-11.51c0.79,-1.56 0.76,-3.41 1.56,-4.97c0.32,-0.63 -0.43,-2.53 0.05,-3c0.12,-0.12 0.37,0.12 0.49,0.01c0.75,-0.74 -0.66,-3.76 0.08,-4.5c0.12,-0.12 0.38,0.12 0.49,0.01c0.1,-0.09 0.12,-6.07 0.13,-7c0.02,-0.87 0.31,-12.42 0.23,-12.5c-0.11,-0.12 -0.37,0.11 -0.49,-0.01c-0.22,-0.24 0.17,-1.2 0.03,-1.5l-0.94,-2.02c-0.31,-0.67 0.36,-1.83 0.05,-2.5c-0.07,-0.15 -0.38,0.11 -0.49,-0.01c-0.39,-0.4 0.29,-1.97 0.04,-2.5c-0.34,-0.73 -0.6,-1.29 -0.94,-2.02c-0.38,-0.8 0.43,-2.19 0.05,-3c-0.34,-0.72 -0.6,-1.29 -0.94,-2.01c-0.14,-0.3 0.25,-0.76 0.02,-1c-0.11,-0.12 -0.38,0.11 -0.49,-0.01c-0.23,-0.24 0.24,-0.76 0.02,-1c-0.12,-0.12 -0.38,0.11 -0.49,-0.01c-0.31,-0.32 0.23,-1.58 0.03,-2c-0.35,-0.75 -2.16,-2.67 -2.88,-3.06c-0.65,-0.34 -2.46,0.46 -2.94,-0.05c-0.11,-0.12 0.12,-0.38 0.01,-0.5c-0.24,-0.25 -2.06,-0.04 -2.45,-0.05l-16.16,-0.29c-10.79,-0.2 -21.01,0.11 -31.85,-0.09c-2.31,-0.04 -14.42,-0.9 -15.67,-0.29c-1.95,0.95 -3.36,0.94 -5.9,0.89c-0.91,-0.01 -0.7,0.1 -1.48,0.47c-1.85,0.9 -5.01,-1.02 -6.86,-0.12c-0.21,0.1 -0.29,0.39 -0.5,0.49c-0.29,0.14 -0.74,-0.25 -0.98,-0.02c-0.11,0.12 0.11,0.39 -0.01,0.5c-0.16,0.17 -1.31,0.31 -1.47,0.47c-0.12,0.12 0.1,0.39 -0.01,0.5c-0.12,0.12 -0.38,-0.12 -0.49,0c-0.3,0.29 -0.3,0.58 -0.51,0.99c-1.06,2.06 0.04,-0.54 -0.99,0.48c-0.25,0.24 -0.26,0.74 -0.51,0.99c-1.03,1.01 0.07,-1.58 -0.99,0.48c-0.07,0.15 0.11,0.39 -0.01,0.5c-0.12,0.12 -0.37,-0.12 -0.49,-0.01c-0.23,0.23 0.22,0.77 -0.02,1c-0.11,0.12 -0.37,-0.12 -0.49,-0.01c-0.46,0.46 -0.56,2.03 -1.02,2.48c-0.12,0.12 -0.37,-0.12 -0.49,0c-0.24,0.23 0.22,0.76 -0.02,1c-0.12,0.11 -0.37,-0.13 -0.49,-0.01c-0.35,0.34 -0.06,3.49 -0.57,4.49c-0.66,1.28 -0.88,2.68 -1.55,3.97c-0.94,1.85 0.82,5.15 -0.12,7c-0.11,0.21 -0.4,0.28 -0.5,0.49c-0.25,0.49 -0.58,16.96 -0.33,17.5c0.96,2.06 0.53,4.25 1.36,6.03c0.18,0.38 -0.19,11.46 -0.21,11.5c-0.11,0.21 -0.39,0.28 -0.5,0.49c-0.5,0.98 -0.11,6.1 -0.14,7.5c-0.01,0.3 0.16,1.81 -0.03,2c-0.12,0.11 -0.38,-0.13 -0.49,-0.01c-0.12,0.11 -0.18,9.47 -0.2,10.5c-0.01,0.73 -0.21,7.42 -0.14,7.5c0.12,0.12 0.38,-0.11 0.49,0.01c0.24,0.25 -0.26,1.24 -0.02,1.5c0.11,0.12 0.37,-0.11 0.49,0.01c0.22,0.24 -0.16,0.7 -0.02,1c0.11,0.24 1.39,2.49 1.42,2.52c0.11,0.12 0.33,0.01 0.49,0.01l3.43,0.07z" fill="#e5bc9e" id="path4-8" stroke-width="1"/>
   <path d="m1202.29,63.01c0,0.66 -0.66,1.96 0,1.96c0.67,0 0,-2.61 0,-1.96c0,0.64 -0.47,9.85 0,10.78c0.11,0.21 0.4,0.28 0.5,0.49c0.32,0.62 -0.48,2.47 0,2.94c0.12,0.12 0.39,-0.11 0.5,0c0.06,0.06 0,5.31 0,5.88c0,1.95 0.54,12.18 0,13.23c-0.62,1.22 -0.5,2.44 -0.5,3.92c0,0.57 0.06,5.82 0,5.88c-0.11,0.11 -0.38,-0.12 -0.5,0c-0.25,0.24 0,2.06 0,2.45c0,2.33 0.24,4.68 -0.5,6.85c-0.61,1.81 0,6.29 0,8.33c0,2.66 0.64,13.31 0,15.19c-0.07,0.22 -0.39,0.28 -0.5,0.49c-0.49,0.97 0,6.34 0,7.84c0,0.3 -0.19,1.77 0,1.96c0.12,0.11 0.39,-0.12 0.5,0c0.32,0.31 -0.2,1.55 0,1.96c0.11,0.21 0.4,0.28 0.5,0.49c0.37,0.71 -0.14,1.82 0.5,2.45c0.25,0.24 0.75,0.24 1,0.49c1.04,1.01 -1.58,-0.04 0.5,0.98c0.15,0.07 0.39,-0.12 0.5,0c0.12,0.11 -0.11,0.37 0,0.49c0.24,0.23 0.77,-0.23 1,0c0.25,0.24 0.25,0.73 0.5,0.98c0.24,0.23 0.77,-0.23 1.01,0c0.11,0.11 -0.12,0.37 0,0.49c0.23,0.23 0.76,-0.23 1,0c0.11,0.11 -0.12,0.37 0,0.49c0.24,0.24 2.1,0 2.5,0c2.17,0 14.28,0.6 15.5,0c0.21,-0.11 0.27,-0.42 0.5,-0.49c1.26,-0.42 3.31,0.58 4.5,0c0.21,-0.11 0.29,-0.39 0.5,-0.49c0.2,-0.1 11.11,-0.68 11.5,-0.49c1.57,0.77 3.43,0.7 5,1.47c0.63,0.31 2.52,-0.47 3,0c0.12,0.11 -0.12,0.37 0,0.49c0.75,0.73 3.75,-0.74 4.5,0c0.12,0.11 -0.12,0.37 0,0.49c0.09,0.09 6.07,0 7,0c0.88,0 12.42,0.08 12.51,0c0.11,-0.12 -0.12,-0.38 0,-0.49c0.23,-0.23 1.19,0.15 1.5,0c0.72,-0.36 1.27,-0.63 2,-0.98c0.66,-0.33 1.83,0.32 2.5,0c0.15,-0.08 -0.12,-0.38 0,-0.49c0.4,-0.39 1.97,0.25 2.5,0c0.72,-0.36 1.27,-0.63 2,-0.98c0.8,-0.39 2.2,0.39 3,0c0.72,-0.36 1.28,-0.63 2,-0.98c0.3,-0.15 0.76,0.23 1,0c0.12,-0.12 -0.12,-0.38 0,-0.49c0.23,-0.23 0.76,0.23 1,0c0.12,-0.12 -0.12,-0.38 0,-0.49c0.32,-0.31 1.58,0.2 2,0c0.74,-0.37 2.63,-2.21 3,-2.94c0.33,-0.66 -0.5,-2.45 0,-2.94c0.12,-0.12 0.38,0.11 0.5,0c0.25,-0.25 0,-2.07 0,-2.45c0,-5.39 0,-10.78 0,-16.17c0,-10.79 -0.5,-21 -0.5,-31.84c0,-2.32 0.63,-14.43 0,-15.68c-0.99,-1.93 -1,-3.33 -1,-5.88c0,-0.91 -0.11,-0.7 -0.5,-1.47c-0.94,-1.83 0.93,-5.03 0,-6.86c-0.11,-0.2 -0.4,-0.28 -0.5,-0.49c-0.15,-0.29 0.23,-0.75 0,-0.98c-0.12,-0.11 -0.38,0.12 -0.5,0c-0.17,-0.16 -0.34,-1.3 -0.5,-1.47c-0.12,-0.11 -0.38,0.12 -0.5,0c-0.12,-0.11 0.12,-0.37 0,-0.49c-0.3,-0.29 -0.59,-0.29 -1,-0.49c-2.08,-1.02 0.53,0.04 -0.5,-0.98c-0.25,-0.24 -0.75,-0.24 -1,-0.49c-1.04,-1.01 1.58,0.04 -0.5,-0.98c-0.15,-0.07 -0.38,0.12 -0.5,0c-0.12,-0.11 0.12,-0.37 0,-0.49c-0.24,-0.23 -0.77,0.23 -1,0c-0.12,-0.11 0.12,-0.37 0,-0.49c-0.47,-0.45 -2.04,-0.52 -2.5,-0.98c-0.12,-0.11 0.11,-0.37 0,-0.49c-0.24,-0.23 -0.77,0.23 -1,0c-0.12,-0.11 0.11,-0.37 0,-0.49c-0.36,-0.34 -3.5,0.01 -4.5,-0.49c-1.3,-0.63 -2.7,-0.83 -4,-1.47c-1.87,-0.91 -5.14,0.92 -7.01,0c-0.21,-0.1 -0.28,-0.38 -0.5,-0.49c-0.49,-0.24 -16.96,-0.26 -17.5,0c-2.04,1 -4.23,0.61 -6,1.47c-0.38,0.19 -11.46,0.02 -11.5,0c-0.21,-0.1 -0.29,-0.38 -0.5,-0.49c-1,-0.48 -6.1,0 -7.5,0c-0.31,0 -1.81,0.2 -2,0c-0.12,-0.11 0.12,-0.37 0,-0.49c-0.12,-0.11 -9.48,0 -10.5,0c-0.73,0 -7.43,-0.07 -7.5,0c-0.12,0.12 0.11,0.38 0,0.49c-0.25,0.25 -1.26,-0.24 -1.51,0c-0.11,0.12 0.12,0.38 0,0.49c-0.23,0.24 -0.7,-0.14 -1,0c-0.23,0.12 -2.46,1.44 -2.5,1.47c-0.11,0.12 0,0.33 0,0.49c0,1.15 0,2.29 0,3.43z" fill="#c8a53f" id="path5-0" stroke-width="1"/>
   <path d="m1336.97,61.77c-0.66,0 -1.98,-0.66 -1.98,0c0,0.66 2.62,-0.16 1.98,0c-5.39,1.35 -17.19,0.5 -23.26,0.5c-0.79,0 -4.45,-0.5 -4.95,0c-0.11,0.12 0.12,0.38 0,0.49c-0.36,0.36 -1.98,0.01 -2.47,0.5c-0.12,0.12 0.11,0.38 0,0.49c-0.17,0.17 -1.32,0.33 -1.49,0.5c-0.11,0.11 0.12,0.38 0,0.49c-0.23,0.24 -0.75,-0.23 -0.99,0c-0.11,0.12 0.12,0.38 0,0.5c-0.23,0.23 -0.75,-0.24 -0.99,0c-0.24,0.24 -0.24,0.74 -0.49,0.99c-0.12,0.11 -0.38,-0.12 -0.49,0c-0.24,0.23 0.23,0.75 0,0.99c-0.03,0.02 -1.46,0.96 -1.49,0.99c-0.23,0.23 0.23,0.75 0,0.99c-0.25,0.24 -0.74,0.24 -0.99,0.49c-0.33,0.33 0.33,1.65 0,1.98c-0.46,0.46 -0.49,-0.04 -0.49,0.99c0,4.95 0,9.9 0,14.84c0,1.2 -0.43,5.58 0,6.44c0.1,0.2 0.39,0.28 0.49,0.49c0.49,0.97 0,6.6 0,7.92c0,0.33 0.15,0.69 0,0.99c-0.78,1.55 -0.1,3.16 -0.49,3.96c-0.11,0.2 -0.39,0.28 -0.5,0.49c-0.63,1.27 0,4.58 0,5.94c0,4.62 0,9.23 0,13.85c0,2.32 0.45,5.16 0,7.42c-0.47,2.35 -1.83,7.39 -0.99,9.9c0.08,0.22 0.42,0.27 0.5,0.49c0.16,0.49 0.26,3.73 0.49,3.96c0.12,0.12 0.38,-0.11 0.5,0c0.23,0.24 -0.15,0.7 0,0.99c0.15,0.31 1.35,2.35 1.48,2.48c0.12,0.11 0.38,-0.12 0.5,0c0.23,0.23 -0.24,0.75 0,0.99c0.24,0.24 0.74,0.24 0.99,0.49c0.11,0.12 -0.08,0.35 0,0.5c0.23,0.47 1.5,1.74 1.97,1.98c0.3,0.14 0.7,-0.15 0.99,0c1.54,0.76 2.43,0.71 3.96,1.48c1,0.5 2.87,-0.27 3.96,0c1.59,0.4 4.61,1.31 5.94,1.98c0.3,0.15 1.25,-0.23 1.48,0c0.12,0.12 -0.11,0.38 0,0.49c0.44,0.44 4.62,-0.41 5.45,0c0.14,0.08 -0.12,0.38 0,0.5c0.35,0.35 2.91,0 3.46,0c6.93,0 13.85,0 20.78,0c1.08,0 13.26,0.1 13.36,0c0.12,-0.12 -0.12,-0.38 0,-0.5c0.58,-0.57 2.89,0.58 3.46,0c0.12,-0.11 -0.11,-0.37 0,-0.49c0.06,-0.06 6.21,0 6.93,0c1.98,0 13.1,0.26 13.86,-0.5c0.11,-0.11 -0.12,-0.37 0,-0.49c0.23,-0.23 0.75,0.23 0.98,0c0.12,-0.12 -0.11,-0.38 0,-0.5c0.12,-0.11 0.38,0.12 0.5,0c0.25,-0.24 0.25,-0.74 0.49,-0.99c0.31,-0.3 1.16,-0.32 1.49,-0.98c0.07,-0.15 -0.12,-0.38 0,-0.5c0.12,-0.12 0.38,0.12 0.49,0c0.22,-0.21 0.78,-1.66 0.99,-1.98c0.26,-0.39 0.78,-0.57 0.99,-0.99c0.08,-0.15 -0.11,-0.38 0,-0.49c1.03,-1.03 -0.04,1.56 0.99,-0.5c0.16,-0.3 0.31,-1.79 0.5,-1.98c0.2,-0.2 0.63,-0.27 0.99,-0.99c0.35,-0.71 0.91,-9.55 0.49,-10.39c-0.41,-0.83 -0.49,-0.96 -0.49,-1.98c0,-5.38 0.79,-11.65 -0.5,-16.82c-0.28,-1.11 0.51,-2.94 0,-3.96c-0.1,-0.21 -0.39,-0.28 -0.49,-0.49c-0.25,-0.51 0.39,-2.08 0,-2.48c-0.12,-0.11 -0.42,0.15 -0.5,0c-0.27,-0.54 0.2,-1.4 0,-1.98c-0.07,-0.21 -0.97,-2.42 -0.99,-2.47c-0.41,-1.66 0.54,-3.82 0,-5.44c-0.58,-1.76 0.07,-3.76 -0.49,-5.45c-0.52,-1.55 -0.11,-2.89 -0.5,-4.45c-1.07,-4.28 -0.49,-9.36 -0.49,-13.85c0,-3.08 1.46,-6.97 0,-9.9c-0.15,-0.29 0.15,-0.69 0,-0.99c-0.24,-0.48 -1.27,-2.75 -1.49,-2.97c-0.16,-0.16 -1.68,-0.84 -1.98,-0.99c-0.96,-0.48 -1.46,-1.64 -2.47,-1.98c-0.47,-0.15 -1.04,0.22 -1.48,0c-1.36,-0.68 -2.91,-0.96 -4.46,-1.48c-1.19,-0.4 -3.23,0 -4.45,0c-4.29,0 -8.58,0 -12.86,0c-1.71,0 -3.8,0.27 -5.45,0c-0.36,-0.06 -0.64,-0.38 -0.99,-0.5c-1.24,-0.41 -1.68,0.15 -2.97,-0.49c-0.53,-0.27 -12.2,-0.25 -12.86,0c-1.18,0.44 -2.31,0.99 -3.46,1.48z" fill="#e5bc9e" id="path6-4"/>
   <path d="m1393.37,115.29c0,0.66 -0.66,1.97 0,1.98c0.66,0 -0.16,-2.62 0,-1.98c1.34,5.38 0.48,17.18 0.48,23.25c0,0.79 -0.51,4.45 0,4.95c0.11,0.12 0.38,-0.12 0.49,0c0.36,0.36 0.01,1.99 0.5,2.47c0.11,0.12 0.37,-0.11 0.49,0c0.16,0.17 0.33,1.32 0.49,1.49c0.12,0.12 0.38,-0.12 0.5,0c0.23,0.23 -0.24,0.76 0,0.99c0.11,0.12 0.38,-0.12 0.49,0c0.24,0.23 -0.23,0.76 0,0.99c0.25,0.25 0.74,0.25 0.99,0.49c0.12,0.12 -0.12,0.38 0,0.5c0.23,0.23 0.76,-0.23 0.99,0c0.03,0.03 0.96,1.46 0.99,1.49c0.23,0.23 0.76,-0.24 0.99,0c0.25,0.24 0.25,0.74 0.49,0.99c0.33,0.33 1.65,-0.33 1.98,0c0.46,0.46 -0.04,0.49 0.99,0.49c4.95,0.01 9.9,0.01 14.85,0.01c1.19,0 5.57,0.43 6.43,0.01c0.21,-0.11 0.28,-0.4 0.49,-0.5c0.98,-0.49 6.6,0 7.92,0.01c0.33,0 0.69,-0.15 0.99,0c1.56,0.78 3.16,0.1 3.96,0.49c0.21,0.11 0.28,0.39 0.49,0.5c1.27,0.63 4.58,0 5.94,0c4.62,0.01 9.24,0.01 13.85,0.01c2.32,0 5.16,-0.45 7.43,0.01c2.35,0.47 7.38,1.83 9.89,0.99c0.22,-0.07 0.27,-0.42 0.5,-0.49c0.48,-0.16 3.72,-0.26 3.95,-0.49c0.12,-0.12 -0.11,-0.38 0.01,-0.5c0.23,-0.23 0.69,0.15 0.98,0c0.31,-0.15 2.35,-1.35 2.48,-1.48c0.12,-0.12 -0.12,-0.38 0,-0.5c0.23,-0.23 0.76,0.24 0.99,0c0.25,-0.24 0.25,-0.74 0.5,-0.98c0.11,-0.12 0.34,0.07 0.49,0c0.48,-0.24 1.74,-1.5 1.98,-1.98c0.15,-0.3 -0.15,-0.7 0,-0.99c0.77,-1.54 0.72,-2.42 1.49,-3.96c0.5,-1 -0.27,-2.87 0,-3.96c0.4,-1.58 1.32,-4.6 1.98,-5.93c0.15,-0.3 -0.23,-1.26 0,-1.49c0.12,-0.12 0.38,0.12 0.5,0c0.43,-0.43 -0.42,-4.61 0,-5.44c0.07,-0.15 0.37,0.12 0.49,0c0.35,-0.35 0,-2.91 0,-3.46c0,-6.93 0.01,-13.86 0.01,-20.79c0,-1.08 0.11,-13.25 0.01,-13.36c-0.11,-0.11 -0.37,0.12 -0.49,0c-0.58,-0.57 0.58,-2.88 0,-3.46c-0.12,-0.12 -0.38,0.12 -0.5,0c-0.05,-0.06 0,-6.2 0,-6.93c0,-1.98 0.27,-13.1 -0.48,-13.85c-0.12,-0.12 -0.38,0.11 -0.5,0c-0.23,-0.24 0.24,-0.76 0,-0.99c-0.11,-0.12 -0.37,0.12 -0.49,0c-0.12,-0.12 0.12,-0.38 0,-0.5c-0.25,-0.24 -0.74,-0.24 -0.99,-0.49c-0.3,-0.31 -0.33,-1.16 -0.99,-1.49c-0.15,-0.07 -0.38,0.12 -0.49,0c-0.12,-0.11 0.11,-0.38 0,-0.49c-0.22,-0.22 -1.66,-0.78 -1.98,-0.99c-0.39,-0.26 -0.57,-0.78 -0.99,-0.99c-0.15,-0.08 -0.38,0.11 -0.49,0c-1.03,-1.03 1.56,0.04 -0.5,-0.99c-0.3,-0.16 -1.79,-0.32 -1.98,-0.5c-0.2,-0.2 -0.27,-0.63 -0.99,-0.99c-0.71,-0.36 -9.55,-0.92 -10.39,-0.5c-0.83,0.42 -0.96,0.49 -1.98,0.49c-5.38,0 -11.65,-0.8 -16.82,0.49c-1.11,0.27 -2.94,-0.51 -3.96,-0.01c-0.21,0.11 -0.29,0.39 -0.49,0.5c-0.51,0.25 -2.09,-0.39 -2.48,0c-0.11,0.11 0.15,0.42 0,0.49c-0.54,0.27 -1.4,-0.19 -1.98,0c-0.21,0.07 -2.42,0.98 -2.47,0.99c-1.66,0.41 -3.82,-0.54 -5.44,0c-1.76,0.58 -3.76,-0.07 -5.45,0.49c-1.55,0.51 -2.89,0.1 -4.45,0.49c-4.28,1.07 -9.36,0.49 -13.86,0.49c-3.07,-0.01 -6.97,-1.47 -9.89,-0.01c-0.3,0.15 -0.7,-0.15 -0.99,0c-0.48,0.24 -2.76,1.26 -2.97,1.48c-0.17,0.16 -0.85,1.69 -0.99,1.98c-0.48,0.96 -1.65,1.46 -1.98,2.47c-0.16,0.47 0.22,1.04 0,1.49c-0.68,1.35 -0.97,2.9 -1.49,4.45c-0.4,1.19 0,3.23 0,4.45c0,4.29 0,8.58 -0.01,12.87c0,1.7 0.27,3.79 0,5.44c-0.06,0.36 -0.38,0.64 -0.5,0.99c-0.41,1.25 0.15,1.68 -0.49,2.97c-0.27,0.54 -0.26,12.2 -0.01,12.86c0.44,1.18 0.99,2.31 1.48,3.47l0.01,0z" fill="#c8a53f" id="path7-0"/>
   <path d="m1497.39,151.43c0.66,0.01 1.95,0.7 1.96,0.03c0.01,-0.66 -2.61,-0.04 -1.96,-0.03c0.64,0.01 9.84,0.65 10.78,0.2c0.21,-0.1 0.29,-0.39 0.5,-0.49c0.62,-0.31 2.46,0.52 2.94,0.05c0.11,-0.12 -0.11,-0.38 0.01,-0.5c0.06,-0.06 5.31,0.1 5.87,0.11c1.96,0.03 12.19,-0.31 13.23,0.24c1.21,0.65 2.43,0.55 3.91,0.58c0.57,0.01 5.82,0.04 5.88,0.1c0.11,0.12 -0.12,0.38 -0.01,0.5c0.24,0.26 2.06,0.04 2.45,0.05c2.33,0.04 4.69,-0.15 6.85,0.63c1.79,0.64 6.28,0.11 8.32,0.15c2.66,0.05 13.32,-0.4 15.19,0.28c0.22,0.08 0.27,0.4 0.48,0.51c0.96,0.51 6.33,0.11 7.84,0.14c0.29,0.01 1.76,0.23 1.95,0.04c0.12,-0.12 -0.1,-0.39 0.01,-0.5c0.32,-0.31 1.55,0.24 1.96,0.03c0.21,-0.1 0.29,-0.38 0.5,-0.49c0.73,-0.35 1.82,0.18 2.46,-0.45c0.25,-0.25 0.26,-0.75 0.51,-0.99c1.03,-1.02 -0.07,1.58 0.99,-0.48c0.07,-0.15 -0.11,-0.39 0.01,-0.5c0.12,-0.12 0.37,0.12 0.49,0.01c0.23,-0.24 -0.22,-0.77 0.02,-1c0.25,-0.25 0.74,-0.24 0.99,-0.49c0.23,-0.23 -0.22,-0.77 0.01,-1c0.12,-0.11 0.38,0.13 0.49,0.01c0.24,-0.23 -0.21,-0.77 0.02,-1c0.12,-0.11 0.37,0.13 0.49,0.01c0.25,-0.24 0.04,-2.11 0.05,-2.5c0.04,-2.18 0.86,-14.27 0.28,-15.5c-0.1,-0.21 -0.41,-0.28 -0.48,-0.51c-0.39,-1.27 0.64,-3.3 0.09,-4.5c-0.1,-0.21 -0.39,-0.29 -0.49,-0.51c-0.09,-0.2 -0.47,-11.12 -0.27,-11.51c0.8,-1.55 0.76,-3.41 1.56,-4.97c0.32,-0.62 -0.42,-2.53 0.05,-3c0.12,-0.11 0.38,0.13 0.49,0.01c0.75,-0.74 -0.66,-3.76 0.09,-4.5c0.11,-0.11 0.37,0.13 0.49,0.01c0.09,-0.09 0.11,-6.06 0.13,-7c0.01,-0.87 0.3,-12.42 0.23,-12.5c-0.12,-0.12 -0.38,0.11 -0.49,-0.01c-0.23,-0.23 0.17,-1.19 0.02,-1.5l-0.94,-2.02c-0.31,-0.67 0.36,-1.82 0.05,-2.5c-0.07,-0.15 -0.38,0.11 -0.49,-0.01c-0.39,-0.4 0.29,-1.97 0.04,-2.5c-0.34,-0.72 -0.6,-1.29 -0.94,-2.01c-0.38,-0.81 0.43,-2.2 0.06,-3c-0.34,-0.73 -0.61,-1.29 -0.95,-2.02c-0.14,-0.3 0.25,-0.76 0.02,-1c-0.11,-0.12 -0.38,0.11 -0.49,-0.01c-0.23,-0.24 0.25,-0.76 0.02,-1c-0.11,-0.12 -0.38,0.11 -0.49,-0.01c-0.31,-0.32 0.23,-1.58 0.04,-2c-0.35,-0.75 -2.16,-2.67 -2.89,-3.05c-0.65,-0.35 -2.45,0.45 -2.94,-0.06c-0.11,-0.12 0.13,-0.38 0.01,-0.5c-0.24,-0.25 -2.06,-0.04 -2.45,-0.04l-16.16,-0.3c-10.79,-0.2 -21.01,0.11 -31.85,-0.09c-2.31,-0.04 -14.41,-0.9 -15.67,-0.29c-1.95,0.95 -3.35,0.94 -5.9,0.89c-0.91,-0.01 -0.7,0.1 -1.48,0.48c-1.84,0.9 -5.01,-1.03 -6.85,-0.13c-0.21,0.1 -0.3,0.39 -0.5,0.49c-0.3,0.15 -0.75,-0.25 -0.98,-0.02c-0.12,0.12 0.1,0.39 -0.01,0.5c-0.17,0.17 -1.32,0.31 -1.48,0.48c-0.12,0.11 0.11,0.38 -0.01,0.5c-0.12,0.11 -0.37,-0.13 -0.49,-0.01c-0.3,0.29 -0.3,0.58 -0.51,0.99c-1.06,2.06 0.04,-0.54 -0.99,0.48c-0.25,0.25 -0.26,0.75 -0.51,0.99c-1.03,1.02 0.07,-1.58 -0.99,0.48c-0.07,0.15 0.11,0.39 -0.01,0.5c-0.11,0.12 -0.37,-0.12 -0.49,-0.01c-0.23,0.24 0.22,0.77 -0.01,1c-0.12,0.12 -0.38,-0.12 -0.49,0c-0.47,0.45 -0.56,2.02 -1.03,2.48c-0.12,0.11 -0.37,-0.13 -0.49,-0.01c-0.23,0.23 0.22,0.77 -0.02,1c-0.12,0.11 -0.37,-0.13 -0.49,-0.01c-0.35,0.35 -0.06,3.49 -0.57,4.49c-0.66,1.28 -0.88,2.68 -1.54,3.97c-0.95,1.85 0.82,5.15 -0.13,7c-0.11,0.21 -0.39,0.28 -0.5,0.49c-0.25,0.49 -0.58,16.96 -0.32,17.5c0.96,2.06 0.52,4.25 1.35,6.03c0.18,0.39 -0.19,11.46 -0.21,11.5c-0.11,0.21 -0.39,0.28 -0.5,0.49c-0.5,0.99 -0.11,6.1 -0.14,7.5c-0.01,0.31 0.16,1.81 -0.03,2c-0.12,0.12 -0.37,-0.12 -0.49,-0.01c-0.12,0.11 -0.18,9.48 -0.2,10.5c-0.01,0.73 -0.21,7.42 -0.13,7.5c0.11,0.12 0.37,-0.11 0.49,0.01c0.24,0.25 -0.27,1.25 -0.03,1.5c0.11,0.12 0.37,-0.11 0.49,0.01c0.22,0.24 -0.16,0.7 -0.02,1c0.11,0.24 1.39,2.49 1.42,2.53c0.12,0.12 0.33,0 0.49,0.01l3.43,0.06z" fill="#e5bc9e" id="path8-5" stroke-width="1"/>
   <path d="m1689.85,61.82c-0.65,-0.01 -1.94,-0.71 -1.96,-0.05c-0.01,0.67 2.62,0.07 1.96,0.05c-0.63,-0.01 -9.83,-0.71 -10.77,-0.26c-0.21,0.1 -0.29,0.39 -0.5,0.49c-0.63,0.3 -2.46,-0.54 -2.94,-0.07c-0.12,0.12 0.1,0.39 -0.01,0.5c-0.06,0.06 -5.31,-0.13 -5.88,-0.14c-1.95,-0.05 -12.19,0.25 -13.23,-0.32c-1.2,-0.65 -2.43,-0.55 -3.9,-0.59c-0.57,-0.01 -5.82,-0.08 -5.88,-0.14c-0.11,-0.12 0.13,-0.38 0.01,-0.5c-0.23,-0.25 -2.06,-0.05 -2.45,-0.06c-2.32,-0.05 -4.69,0.13 -6.84,-0.66c-1.79,-0.66 -6.28,-0.15 -8.33,-0.2c-2.65,-0.06 -13.31,0.32 -15.18,-0.36c-0.22,-0.08 -0.27,-0.41 -0.48,-0.52c-0.96,-0.51 -6.33,-0.15 -7.83,-0.18c-0.3,-0.01 -1.77,-0.24 -1.96,-0.05c-0.12,0.12 0.1,0.39 -0.02,0.5c-0.31,0.31 -1.54,-0.24 -1.95,-0.05c-0.21,0.1 -0.3,0.39 -0.51,0.49c-0.72,0.35 -1.81,-0.19 -2.46,0.44c-0.25,0.25 -0.26,0.75 -0.51,0.99c-1.04,1.01 0.08,-1.58 -0.99,0.48c-0.08,0.15 0.1,0.38 -0.02,0.5c-0.11,0.11 -0.37,-0.13 -0.49,-0.01c-0.23,0.23 0.22,0.77 -0.02,1c-0.25,0.24 -0.74,0.23 -0.99,0.47c-0.24,0.23 0.21,0.77 -0.02,1c-0.12,0.12 -0.38,-0.12 -0.49,-0.01c-0.24,0.23 0.21,0.77 -0.03,1c-0.12,0.12 -0.37,-0.13 -0.49,-0.01c-0.25,0.24 -0.05,2.11 -0.06,2.5c-0.05,2.18 -0.94,14.26 -0.37,15.5c0.1,0.21 0.41,0.28 0.48,0.51c0.38,1.27 -0.66,3.3 -0.11,4.5c0.1,0.21 0.38,0.3 0.48,0.51c0.09,0.2 0.41,11.13 0.21,11.51c-0.8,1.55 -0.78,3.41 -1.58,4.96c-0.33,0.63 0.41,2.53 -0.08,3c-0.11,0.12 -0.37,-0.12 -0.49,-0.01c-0.75,0.73 0.65,3.77 -0.1,4.5c-0.12,0.12 -0.37,-0.13 -0.49,-0.01c-0.09,0.09 -0.15,6.06 -0.17,7c-0.02,0.87 -0.38,12.41 -0.3,12.5c0.11,0.12 0.38,-0.11 0.49,0.01c0.22,0.23 -0.18,1.19 -0.03,1.5l0.93,2.02c0.31,0.68 -0.37,1.83 -0.06,2.5c0.07,0.15 0.37,-0.11 0.49,0.01c0.38,0.41 -0.31,1.97 -0.06,2.5c0.33,0.73 0.59,1.29 0.93,2.03c0.37,0.8 -0.45,2.19 -0.07,2.99c0.33,0.73 0.59,1.3 0.93,2.03c0.14,0.3 -0.25,0.76 -0.02,1c0.11,0.12 0.37,-0.11 0.49,0.01c0.22,0.24 -0.25,0.76 -0.03,1c0.11,0.12 0.38,-0.11 0.49,0.01c0.3,0.33 -0.24,1.58 -0.05,2c0.35,0.75 2.15,2.68 2.87,3.07c0.65,0.35 2.46,-0.44 2.94,0.07c0.11,0.12 -0.13,0.38 -0.01,0.5c0.23,0.26 2.06,0.05 2.45,0.06l16.16,0.39c10.79,0.25 21.01,0 31.84,0.26c2.32,0.05 14.42,0.98 15.68,0.37c1.95,-0.94 3.35,-0.92 5.9,-0.86c0.91,0.02 0.7,-0.09 1.48,-0.46c1.85,-0.89 5.01,1.05 6.86,0.16c0.21,-0.1 0.29,-0.39 0.5,-0.49c0.29,-0.14 0.74,0.26 0.98,0.03c0.12,-0.12 -0.11,-0.39 0.01,-0.5c0.17,-0.17 1.32,-0.31 1.48,-0.47c0.12,-0.11 -0.1,-0.38 0.02,-0.5c0.11,-0.11 0.37,0.13 0.48,0.01c0.3,-0.29 0.31,-0.58 0.52,-0.98c1.07,-2.06 -0.05,0.53 0.99,-0.48c0.25,-0.24 0.26,-0.74 0.51,-0.99c1.04,-1.01 -0.07,1.58 1,-0.48c0.07,-0.14 -0.11,-0.38 0.01,-0.5c0.12,-0.11 0.37,0.13 0.49,0.02c0.23,-0.23 -0.21,-0.77 0.02,-1c0.12,-0.12 0.37,0.12 0.49,0.01c0.47,-0.46 0.57,-2.02 1.04,-2.48c0.12,-0.11 0.37,0.13 0.49,0.01c0.24,-0.23 -0.21,-0.77 0.02,-1c0.12,-0.11 0.37,0.13 0.49,0.02c0.36,-0.35 0.08,-3.5 0.6,-4.49c0.67,-1.28 0.89,-2.68 1.57,-3.97c0.95,-1.84 -0.8,-5.15 0.16,-7c0.11,-0.2 0.4,-0.28 0.5,-0.48c0.26,-0.49 0.67,-16.95 0.42,-17.5c-0.95,-2.06 -0.5,-4.25 -1.32,-6.04c-0.18,-0.38 0.25,-11.46 0.27,-11.49c0.11,-0.21 0.4,-0.28 0.5,-0.49c0.51,-0.99 0.15,-6.1 0.18,-7.5c0.01,-0.31 -0.14,-1.81 0.05,-2c0.12,-0.12 0.37,0.13 0.49,0.01c0.12,-0.11 0.23,-9.47 0.25,-10.5c0.02,-0.73 0.26,-7.42 0.18,-7.5c-0.11,-0.12 -0.38,0.11 -0.49,-0.01c-0.24,-0.25 0.28,-1.24 0.04,-1.5c-0.12,-0.12 -0.38,0.11 -0.49,-0.01c-0.23,-0.24 0.16,-0.7 0.02,-1c-0.11,-0.24 -1.38,-2.5 -1.41,-2.53c-0.11,-0.13 -0.32,-0.01 -0.49,-0.02l-3.43,-0.08z" fill="#c8a53f" id="path9" stroke-width="1"/>
   <path d="m1733.56,57.23c-0.66,0 -1.98,-0.66 -1.98,0c0,0.66 2.62,-0.16 1.98,0c-5.39,1.34 -17.19,0.49 -23.26,0.49c-0.79,0 -4.45,-0.5 -4.95,0c-0.11,0.12 0.12,0.38 0,0.5c-0.36,0.36 -1.98,0 -2.47,0.49c-0.12,0.12 0.12,0.38 0,0.5c-0.17,0.16 -1.32,0.33 -1.49,0.49c-0.11,0.12 0.12,0.38 0,0.5c-0.23,0.23 -0.75,-0.24 -0.99,0c-0.11,0.11 0.12,0.37 0,0.49c-0.23,0.23 -0.75,-0.23 -0.99,0c-0.24,0.25 -0.24,0.74 -0.49,0.99c-0.12,0.12 -0.38,-0.12 -0.49,0c-0.24,0.23 0.23,0.76 0,0.99c-0.03,0.03 -1.46,0.96 -1.49,0.99c-0.23,0.23 0.23,0.76 0,0.99c-0.25,0.25 -0.74,0.25 -0.99,0.49c-0.33,0.33 0.33,1.65 0,1.98c-0.46,0.46 -0.49,-0.04 -0.49,0.99c0,4.95 0,9.9 0,14.85c0,1.2 -0.43,5.58 0,6.43c0.1,0.21 0.39,0.29 0.49,0.49c0.49,0.98 0,6.6 0,7.92c0,0.33 0.15,0.7 0,0.99c-0.78,1.56 -0.1,3.16 -0.49,3.96c-0.11,0.21 -0.39,0.29 -0.5,0.49c-0.63,1.27 0,4.58 0,5.94c0,4.62 0,9.24 0,13.86c0,2.31 0.45,5.16 0,7.42c-0.47,2.35 -1.83,7.38 -0.99,9.89c0.08,0.22 0.42,0.28 0.5,0.5c0.16,0.48 0.26,3.73 0.49,3.96c0.12,0.11 0.38,-0.12 0.5,0c0.23,0.23 -0.15,0.69 0,0.99c0.15,0.3 1.35,2.34 1.48,2.47c0.12,0.12 0.38,-0.12 0.5,0c0.23,0.23 -0.24,0.76 0,0.99c0.24,0.25 0.74,0.25 0.99,0.49c0.11,0.12 -0.08,0.35 0,0.5c0.23,0.48 1.5,1.74 1.97,1.98c0.3,0.15 0.7,-0.15 0.99,0c1.54,0.77 2.43,0.72 3.96,1.48c1,0.5 2.87,-0.27 3.96,0c1.59,0.4 4.61,1.32 5.94,1.98c0.3,0.15 1.25,-0.23 1.48,0c0.12,0.12 -0.11,0.38 0,0.5c0.44,0.43 4.62,-0.42 5.45,0c0.14,0.07 -0.12,0.38 0,0.49c0.35,0.35 2.91,0 3.46,0c6.93,0 13.85,0 20.78,0c1.08,0 13.26,0.1 13.36,0c0.12,-0.11 -0.12,-0.38 0,-0.49c0.58,-0.58 2.89,0.57 3.46,0c0.12,-0.12 -0.11,-0.38 0,-0.5c0.06,-0.06 6.21,0 6.93,0c1.98,0 13.1,0.26 13.86,-0.49c0.11,-0.12 -0.12,-0.38 0,-0.5c0.23,-0.23 0.75,0.24 0.99,0c0.11,-0.11 -0.12,-0.38 0,-0.49c0.11,-0.12 0.37,0.11 0.49,0c0.25,-0.25 0.25,-0.74 0.49,-0.99c0.31,-0.31 1.16,-0.33 1.49,-0.99c0.07,-0.15 -0.12,-0.38 0,-0.5c0.12,-0.11 0.38,0.12 0.49,0c0.22,-0.21 0.78,-1.66 0.99,-1.98c0.26,-0.38 0.78,-0.57 0.99,-0.98c0.08,-0.15 -0.11,-0.38 0,-0.5c1.03,-1.02 -0.04,1.56 0.99,-0.49c0.16,-0.31 0.31,-1.8 0.5,-1.98c0.2,-0.2 0.63,-0.27 0.99,-0.99c0.35,-0.72 0.91,-9.56 0.49,-10.39c-0.41,-0.84 -0.49,-0.97 -0.49,-1.98c0,-5.38 0.79,-11.66 -0.5,-16.83c-0.28,-1.11 0.51,-2.94 0,-3.95c-0.1,-0.21 -0.39,-0.29 -0.49,-0.5c-0.25,-0.5 0.39,-2.08 0,-2.47c-0.12,-0.12 -0.42,0.14 -0.5,0c-0.27,-0.55 0.2,-1.4 0,-1.98c-0.07,-0.22 -0.97,-2.43 -0.99,-2.48c-0.41,-1.66 0.54,-3.82 0,-5.44c-0.58,-1.76 0.07,-3.75 -0.49,-5.44c-0.52,-1.55 -0.11,-2.9 -0.5,-4.46c-1.07,-4.28 -0.49,-9.36 -0.49,-13.85c0,-3.07 1.46,-6.97 0,-9.9c-0.15,-0.29 0.15,-0.69 0,-0.99c-0.24,-0.47 -1.27,-2.75 -1.49,-2.96c-0.16,-0.17 -1.68,-0.85 -1.97,-0.99c-0.97,-0.48 -1.47,-1.65 -2.48,-1.98c-0.47,-0.16 -1.04,0.22 -1.48,0c-1.36,-0.68 -2.9,-0.97 -4.46,-1.49c-1.19,-0.39 -3.23,0 -4.45,0c-4.29,0 -8.58,0 -12.86,0c-1.71,0 -3.79,0.28 -5.45,0c-0.36,-0.06 -0.64,-0.38 -0.99,-0.49c-1.24,-0.42 -1.68,0.15 -2.97,-0.5c-0.53,-0.27 -12.2,-0.24 -12.86,0c-1.18,0.44 -2.31,0.99 -3.46,1.49z" fill="#e5bc9e" id="path10"/>
  </g>
 </g>
</svg>