<?xml version="1.0" encoding="UTF-8"?>
<svg version="1.1" viewBox="0 0 110 110" xmlns="http://www.w3.org/2000/svg">
<g class="layer">
<title>Layer 1</title>
<path d="m84.86 71.37c-0.99 0.46-1.73 1.26-2.12 2.28-0.4 1.01-0.35 2.12 0.1 3.1s1.28 1.73 2.31 2.11c0.47 0.17 0.95 0.26 1.44 0.26 0.57 0 1.15-0.13 1.68-0.37 2.01-0.92 2.89-3.35 1.95-5.39-0.94-2.03-3.35-2.91-5.36-1.99zm2.77 6.05c-0.62 0.29-1.33 0.32-2 0.06-0.67-0.24-1.18-0.72-1.47-1.35-0.29-0.62-0.3-1.31-0.06-1.96 0.24-0.66 0.73-1.17 1.36-1.46 0.35-0.17 0.72-0.24 1.08-0.24 0.97 0 1.91 0.56 2.35 1.5 0.59 1.3 0.04 2.86-1.26 3.45z" fill="#8a6143" stroke="#8a6143"/>
<path d="m99.89 66.4c-0.74-1.63-2.67-2.34-4.27-1.62-1.61 0.75-2.31 2.67-1.57 4.31 0.55 1.18 1.71 1.86 2.93 1.86 0.45 0 0.91-0.09 1.33-0.29 0.79-0.36 1.38-1.01 1.69-1.81 0.27-0.81 0.24-1.67-0.11-2.45zm-1.27 1.95c-0.17 0.43-0.49 0.78-0.91 0.98-0.88 0.41-1.91 0.02-2.32-0.86-0.43-0.91-0.05-1.96 0.83-2.37 0.24-0.1 0.49-0.16 0.73-0.16 0.67 0 1.3 0.39 1.6 1.06 0.2 0.44 0.22 0.9 0.07 1.35z" fill="#8a6143" stroke="#8a6143"/>
<path d="m42.31 54.37c0.41 0 0.73-0.33 0.73-0.72 0-1.75 0.33-3.49 0.98-5.05 0.16-0.38-0.03-0.81-0.39-0.95-0.38-0.16-0.81 0.03-0.95 0.39-0.72 1.74-1.09 3.68-1.09 5.61-0.02 0.39 0.32 0.72 0.72 0.72z" fill="#8a6143" stroke="#8a6143"/>
<path d="m45.05 46.09c0.21 0 0.44-0.09 0.58-0.29 0.29-0.38 0.6-0.73 0.94-1.06 0.28-0.29 0.28-0.75 0-1.03-0.29-0.29-0.75-0.29-1.04 0-0.37 0.36-0.72 0.77-1.06 1.19-0.24 0.32-0.19 0.77 0.12 1.03 0.15 0.11 0.3 0.16 0.46 0.16z" fill="#8a6143" stroke="#8a6143"/>
<path d="m67.18 76.06h-2.32c-0.41 0-0.73 0.33-0.73 0.72 0 0.41 0.33 0.73 0.73 0.73h2.32c0.41 0 0.72-0.33 0.72-0.73 0.01-0.41-0.31-0.72-0.72-0.72z" fill="#8a6143" stroke="#8a6143"/>
<path d="m18.46 86.31c0-1.83-1.48-3.33-3.31-3.33-1.85 0-3.37 1.49-3.37 3.33 0 1.85 1.5 3.37 3.37 3.37 1.83 0 3.31-1.52 3.31-3.37zm-5.22 0c0-1.03 0.85-1.86 1.89-1.86 1.03 0 1.87 0.83 1.87 1.86 0 1.05-0.84 1.9-1.87 1.9-1.01 0-1.89-0.86-1.89-1.9z" fill="#8a6143" stroke="#8a6143"/>
<path d="m24.81 83.73c0 1.46 1.2 2.68 2.69 2.68 1.48 0 2.68-1.2 2.68-2.68 0-1.5-1.2-2.72-2.68-2.72-1.49 0-2.69 1.22-2.69 2.72zm3.9 0c0 0.66-0.55 1.21-1.21 1.21-0.67 0-1.22-0.55-1.22-1.21 0-0.7 0.54-1.25 1.22-1.25s1.21 0.55 1.21 1.25z" fill="#8a6143" stroke="#8a6143"/>
<path d="m19.01 67.52c-0.09 1.11 0.14 2.23 0.67 3.23 1.06 2 3.1 3.14 5.23 3.14 0.93 0 1.87-0.23 2.75-0.7 2.88-1.53 3.97-5.1 2.44-7.98-1.26-2.38-3.91-3.56-6.44-3-0.07-0.59-0.24-1.15-0.53-1.7-0.59-1.12-1.6-1.95-2.81-2.31-1.23-0.38-2.52-0.25-3.64 0.34s-1.95 1.61-2.32 2.82c-0.38 1.23-0.24 2.52 0.35 3.64 0.86 1.61 2.5 2.56 4.3 2.52zm-3.26-5.74c0.26-0.84 0.84-1.54 1.61-1.95 0.79-0.41 1.68-0.5 2.53-0.24s1.55 0.83 1.95 1.6c0.32 0.59 0.44 1.26 0.38 1.91-0.03 0.26 0.08 0.52 0.29 0.67s0.49 0.2 0.71 0.09c2.12-0.86 4.53 0 5.61 2.03 1.15 2.17 0.33 4.87-1.83 6.02-2.17 1.15-4.87 0.33-6.02-1.83-0.53-0.99-0.65-2.13-0.38-3.22 0.06-0.24 0-0.51-0.18-0.69-0.14-0.14-0.33-0.21-0.52-0.21-0.06 0-0.12 0-0.18 0.01-1.47 0.37-3-0.31-3.71-1.65-0.42-0.79-0.51-1.69-0.26-2.54z" fill="#8a6143" stroke="#8a6143"/>
<path d="m92.29 82.03c-0.46-0.14-0.94-0.22-1.43-0.22h-13.7v-15.56c1.11 0.82 2.44 1.28 3.85 1.33h0.26c3.71 0 6.8-2.95 6.95-6.71 0.02-0.62-0.04-1.24-0.18-1.84 1.64-1.26 2.65-3.2 2.73-5.28 0.07-2.15-0.84-4.19-2.49-5.57 0.03-0.09 0.05-0.19 0.08-0.26 0.06-0.17 0.1-0.35 0.15-0.52 0.03-0.12 0.06-0.24 0.07-0.37 0.05-0.2 0.08-0.4 0.11-0.61 0.01-0.11 0.03-0.21 0.04-0.32 0.04-0.31 0.07-0.62 0.07-0.93 0-5-4.08-9.08-9.08-9.08-3.15 0-5.95 1.58-7.59 4.08-0.25-0.29-0.5-0.58-0.77-0.85-2.29-2.26-5.05-4.26-8.21-5.93v-4.1h1.27c1.55 0 2.79-1.26 2.79-2.79v-5c0-1.55-1.26-2.79-2.79-2.79h-3.63v-4.03h3.31c2.02 0 3.64-1.64 3.64-3.64 0-2.01-1.64-3.64-3.64-3.64h-20.3c-1.46 0-2.87 0.54-3.96 1.5l-4.1 3.64c-1.5 1.33-1.64 3.64-0.31 5.14 0.66 0.72 1.53 1.17 2.52 1.21h0.23c0.89 0 1.74-0.32 2.41-0.93l3.72-3.3h7.46v4h-3.64c-1.55 0-2.79 1.26-2.79 2.79v5c0 1.54 1.26 2.79 2.79 2.79h1.27v4.1c-3.15 1.67-5.91 3.67-8.19 5.93-3.69 3.63-5.81 8.86-5.81 14.33v36.07c-2.59 0.11-5.07 1.26-7.13 3.34-0.87 0.86-1.63 1.87-2.29 3.03-1.49-2.4-4.2-2.91-6.52-2.26-3.18 0.89-6.06 4.01-5.12 8.05 0.07 0.33 0.38 0.56 0.71 0.56l79.9 0.01c0.41 0 0.72-0.33 0.72-0.72v-15.08c-0.01-2.13-1.43-3.97-3.38-4.57zm-48.54-68.81-4.15 3.67c-0.44 0.38-1 0.57-1.57 0.54-0.58-0.03-1.12-0.28-1.5-0.72-0.81-0.9-0.71-2.29 0.18-3.08l4.11-3.63c0.81-0.73 1.88-1.14 2.98-1.14h20.29c1.2 0 2.18 0.99 2.18 2.18 0 1.2-0.98 2.19-2.18 2.19l-20.34-0.01zm15.56 1.46v4h-6.09v-4h6.09zm32.22 68.67c1.53 0.31 2.68 1.66 2.68 3.28v0.96h-22.76v-0.96c0-1.62 1.15-2.96 2.68-3.28 0.21-0.05 0.44-0.08 0.69-0.08h16.04c0.21 0 0.44 0.03 0.67 0.08zm-16.73-1.54c-0.5 0-0.99 0.08-1.43 0.21-1.95 0.61-3.39 2.44-3.39 4.61v2.55h-14.73v-29.05h17.16l0.45 0.09c0.23 0.03 0.44 0.05 0.67 0.06h0.22c0.11 0 0.22-0.01 0.31-0.01h0.21v0.12c-0.06 1.62 0.43 3.17 1.39 4.44v4.06h-13.42c-0.41 0-0.73 0.33-0.73 0.72 0 0.41 0.33 0.73 0.73 0.73l13.44 0.01v5.72h-5.46c-0.41 0-0.72 0.33-0.72 0.73 0 0.41 0.33 0.72 0.72 0.72h5.46v4.29h-0.88zm4.91-44.27c4.19 0 7.6 3.43 7.6 7.62 0 0.28-0.01 0.56-0.04 0.83-0.02 0.13-0.03 0.23-0.05 0.35-0.03 0.15-0.05 0.31-0.07 0.44-0.04 0.15-0.08 0.3-0.13 0.45-0.03 0.09-0.06 0.2-0.09 0.29-0.06 0.17-0.12 0.35-0.18 0.52-0.51 1.25-1.35 2.36-2.47 3.21-0.31 0.24-0.39 0.69-0.15 1.03 0.14 0.19 0.36 0.29 0.59 0.29 0.15 0 0.3-0.05 0.44-0.15 1.04-0.79 1.86-1.76 2.47-2.85 1.1 1.07 1.71 2.56 1.65 4.12-0.06 1.79-1 3.44-2.5 4.43-0.27 0.18-0.4 0.51-0.31 0.83 0.2 0.6 0.28 1.24 0.26 1.88-0.1 3.03-2.68 5.41-5.69 5.29-1.47-0.05-2.82-0.67-3.82-1.75s-1.52-2.48-1.47-3.95c0-0.15 0.03-0.32 0.06-0.47 1.09-0.35 2.08-0.98 2.87-1.85 0.27-0.3 0.24-0.75-0.05-1.03-0.3-0.27-0.76-0.24-1.03 0.05-0.73 0.8-1.7 1.35-2.74 1.57-0.14 0.03-0.28 0.05-0.41 0.08-0.08 0.01-0.16 0.01-0.23 0.03-0.21 0.01-0.43 0.03-0.64 0.01-0.53-0.01-1.04-0.12-1.51-0.28-2.08-0.73-3.52-2.75-3.44-5.05 0.02-0.24 0.03-0.5 0.09-0.79 0.03-0.21-0.03-0.43-0.17-0.59-0.13-0.17-0.35-0.26-0.56-0.26h-0.24c-1.23-0.05-2.37-0.56-3.21-1.47-0.84-0.89-1.28-2.07-1.23-3.3s0.56-2.37 1.47-3.21c0.89-0.83 2.07-1.28 3.3-1.23 0.28 0.02 0.53 0.05 0.79 0.11h0.03c0.26 0.06 0.52 0.13 0.76 0.24 0.02 0 0.02 0 0.03 0.01 0.24 0.11 0.47 0.21 0.69 0.37 0.01 0.01 0.03 0.03 0.06 0.03 0.21 0.14 0.41 0.29 0.59 0.45 0.09 0.09 0.18 0.17 0.27 0.26 0.83 0.89 1.28 2.07 1.23 3.3-0.02 0.41 0.3 0.75 0.69 0.76h0.04c0.39 0 0.71-0.3 0.72-0.69 0.06-1.62-0.51-3.16-1.6-4.35 0.91-3.31 3.88-5.58 7.33-5.58zm-32.92-11.06v-5c0-0.72 0.59-1.33 1.33-1.33h16.29c0.72 0 1.33 0.59 1.33 1.33v5c0 0.73-0.59 1.33-1.33 1.33h-16.28c-0.74 0-1.34-0.59-1.34-1.33zm-4.57 13.86c2.28-2.25 5.05-4.22 8.25-5.86 0.24-0.12 0.39-0.38 0.39-0.65v-4.56h10.82v4.56c0 0.27 0.15 0.53 0.39 0.65 3.2 1.64 5.97 3.62 8.24 5.86 0.38 0.38 0.73 0.78 1.08 1.19-0.08 0.18-0.17 0.38-0.23 0.57-0.01 0-0.03-0.01-0.03-0.01-0.43-0.28-0.89-0.49-1.38-0.64-0.03-0.02-0.06-0.02-0.07-0.03-0.21-0.06-0.43-0.11-0.64-0.15-0.05-0.02-0.09-0.02-0.15-0.03-0.24-0.04-0.49-0.07-0.73-0.08-1.62-0.06-3.17 0.52-4.35 1.62-1.18 1.11-1.88 2.61-1.92 4.23-0.07 1.62 0.51 3.17 1.62 4.35 0.98 1.06 2.29 1.72 3.69 1.89 0 0.06 0 0.12-0.01 0.17-0.03 0.68 0.06 1.35 0.22 1.97 0.35 1.29 1.08 2.41 2.07 3.27h-14.94c-0.41 0-0.73 0.33-0.73 0.73v30.53c0 0.41 0.33 0.73 0.73 0.73h15.45v10.33h-15.1c0.39-1.11 0.48-2.35 0.27-3.61-0.52-3.04-2.67-5.33-5.12-5.45-2.56-0.12-4.11 1.57-4.88 3.14-2.18-3.07-5.05-4.93-8.15-5.31-0.05 0-0.09 0-0.14-0.01l0.01-36.09c-0.02-5.08 1.93-9.93 5.34-13.31zm-22.38 54.88c1.99-0.56 4.46-0.12 5.4 2.73 0.09 0.29 0.35 0.48 0.65 0.5 0.31 0.02 0.58-0.15 0.71-0.43 0.73-1.56 1.64-2.89 2.71-3.96 2.16-2.19 4.82-3.2 7.52-2.87 3.06 0.38 5.86 2.46 7.89 5.85 0.16 0.26 0.44 0.39 0.75 0.35 0.28-0.05 0.53-0.28 0.6-0.56 0.03-0.16 0.88-3.61 3.91-3.47 2 0.1 3.41 2.21 3.76 4.24 0.19 1.19 0.06 2.38-0.41 3.36l-37.68 0.02c-0.35-2.89 1.82-5.09 4.19-5.76zm51.61 5.76v-11.94h22.76v11.94h-22.76z" fill="#8a6143" stroke="#8a6143"/>
</g>
</svg>
