<?xml version="1.0" encoding="UTF-8"?>
<svg version="1.1" viewBox="0 0 105 105" xmlns="http://www.w3.org/2000/svg">
<g class="layer">
<title>Layer 1</title>
<path d="m35.23 36.63c13.69-14.34 34.42-6.54 40.33 6.8 1.5 3.37 1.43 7.59 0.83 11.15-0.68 3.96-2.2 7.95-4.74 11.12-13.92 17.38-43.66 9.42-41.77-14.61 0.41-5.24 2.11-10.17 5.28-14.38 0.02-0.03 0.05-0.05 0.07-0.08zm1.33 1.2c-2.94 3.92-4.51 8.52-4.89 13.4-1.75 22.17 25.74 29.39 38.59 13.35 2.35-2.93 3.73-6.63 4.36-10.31 0.55-3.22 0.66-7.06-0.69-10.11-5.48-12.37-24.67-19.58-37.37-6.33z" fill="#c8a553" fill-rule="evenodd"/>
<path d="m45.62 34.78c-0.29 0.21-0.57 0.42-0.85 0.63-4.06 3.1-8.06 6.26-12.12 9.35-0.4 0.3-0.96 0.23-1.26-0.17-0.3-0.39-0.22-0.95 0.17-1.25 4.06-3.09 8.07-6.25 12.12-9.35 1.36-1.04 2.79-1.99 4.17-2.99 0.61-0.44 1.23-0.85 1.86-1.24 0.14-0.09 0.44-0.33 0.6-0.42 0.15-0.1 0.28-0.15 0.34-0.16 0.45-0.12 0.73 0.09 0.88 0.24 0.11 0.11 0.53 0.57 0.05 1.21-0.73 1-1.53 1.96-2.36 2.89 0.48-0.37 0.95-0.75 1.43-1.12 0.65-0.52 1.31-1.04 1.99-1.54 0.23-0.16 0.82-0.61 0.92-0.66 0.55-0.23 0.9 0.07 1.02 0.21 0.07 0.07 0.56 0.62-0.02 1.26-3.69 4.1-7.67 7.94-11.52 11.9 2.1-2.07 4.22-4.12 6.46-6.05 1.9-1.63 3.78-3.29 5.78-4.81 0.72-0.55 1.46-1.07 2.18-1.62 0.24-0.19 0.88-0.68 0.98-0.73 0.58-0.31 0.97 0.07 1.07 0.18 0.05 0.05 0.57 0.66-0.06 1.29-5.77 5.81-11.71 11.45-17.19 17.54-0.7 0.78-1.39 1.56-2.07 2.35 3.94-3.48 7.94-6.88 12.05-10.15 2.39-1.91 4.61-4.01 6.99-5.93 0.78-0.63 1.54-1.29 2.32-1.92 0.28-0.22 0.55-0.43 0.83-0.65 0.07-0.05 0.24-0.18 0.27-0.2 0.61-0.4 1.09 0.07 1.14 0.12 0.16 0.17 0.43 0.52 0.14 1.06-0.01 0.02-0.05 0.11-0.21 0.25-1.86 1.62-3.72 3.24-5.57 4.86 1.12-0.84 2.25-1.68 3.42-2.46 1.04-0.7 2.1-1.38 3.19-2 0.15-0.09 0.46-0.31 0.62-0.4 0.18-0.1 0.32-0.14 0.4-0.15 0.4-0.06 0.65 0.12 0.8 0.28 0.12 0.13 0.5 0.57 0.05 1.19-2.05 2.83-5.61 5.13-8.23 7.41-4.26 3.71-8.38 7.57-12.48 11.45-1.68 1.59-3.31 3.26-4.9 4.95 5.77-4.2 11.15-8.9 16.78-13.28 2.6-2.02 5.32-3.88 8.08-5.68 0.76-0.49 1.52-0.95 2.3-1.4 0.32-0.19 0.64-0.39 0.96-0.6 0.11-0.07 0.4-0.27 0.45-0.29 0.59-0.29 0.96 0.09 1.06 0.21 0.05 0.05 0.56 0.65-0.07 1.26-6.62 6.33-13.86 12.01-20.5 18.33-0.81 0.77-1.62 1.54-2.43 2.32 4.16-3.15 8.22-6.47 12.38-9.53 2.57-1.89 5.15-3.77 7.78-5.58 0.88-0.6 1.75-1.21 2.62-1.82 0.37-0.26 0.74-0.51 1.12-0.76 0.12-0.08 0.45-0.28 0.51-0.3 0.45-0.13 0.73 0.07 0.88 0.23 0.15 0.14 0.27 0.34 0.27 0.63 0 0.08 0.01 0.28-0.18 0.55-4.96 6.83-11.96 12.53-18.42 18.01 2.96-2.05 5.91-4.14 8.83-6.22 2.2-1.55 4.41-3.09 6.59-4.68 0.97-0.71 1.92-1.44 2.88-2.17 0.2-0.16 0.63-0.56 0.85-0.73 0.19-0.13 0.34-0.2 0.43-0.22 0.38-0.11 0.65 0.03 0.82 0.17 0.15 0.11 0.56 0.5 0.21 1.18-2.68 5.23-10.86 11.68-15.5 15.37-1.41 1.13-2.86 2.22-4.26 3.36 3.81-2.2 7.3-5.09 10.68-7.77 1.53-1.21 3.02-2.46 4.58-3.64 0.75-0.58 1.5-1.16 2.28-1.72 0.1-0.08 0.32-0.26 0.43-0.35 0.13-0.09 0.25-0.14 0.31-0.16 0.45-0.15 0.74 0.05 0.9 0.2 0.1 0.1 0.56 0.55 0.1 1.2-3.11 4.48-7.88 8.04-11.73 11.88-0.4 0.4-0.81 0.79-1.21 1.19 0.61-0.39 1.21-0.79 1.8-1.2 1.69-1.15 3.35-2.34 5.05-3.47 0.41-0.27 0.97-0.16 1.24 0.25 0.28 0.42 0.16 0.97-0.25 1.25-1.69 1.12-3.35 2.3-5.03 3.45-2.23 1.53-4.63 3.02-7.23 3.89-0.71 0.24-1.02-0.23-1.11-0.37-0.12-0.2-0.23-0.49-0.05-0.88 0.04-0.07 0.12-0.2 0.27-0.34 0.16-0.15 0.51-0.41 0.64-0.55 0.4-0.39 0.81-0.77 1.2-1.16 1.13-1.12 2.29-2.2 3.42-3.32 0.78-0.79 1.6-1.56 2.44-2.32-3.78 2.97-7.76 5.87-12.22 7.61-0.34 0.13-0.6 0.05-0.78-0.04-0.19-0.11-0.34-0.26-0.42-0.5-0.05-0.13-0.1-0.41 0.03-0.77 0.15-0.4 0.63-1.18 0.68-1.23 0.6-0.63 1.28-1.2 1.94-1.76 1.68-1.43 3.46-2.76 5.18-4.13 3.14-2.49 7.97-6.26 11.48-10.02-1.86 1.33-3.73 2.64-5.6 3.96-6.88 4.87-13.81 9.82-21.03 14.19-0.7 0.43-1.14-0.08-1.21-0.17-0.13-0.16-0.36-0.52-0.09-1.02 0.05-0.09 0.59-0.63 0.8-0.84 0.81-0.81 1.71-1.52 2.58-2.26 2.34-2 4.81-3.85 7.15-5.85 4.97-4.24 10.34-8.57 14.86-13.46-2.18 1.52-4.32 3.08-6.45 4.65-6.92 5.09-13.55 10.9-20.86 15.44-0.67 0.41-1.09-0.06-1.17-0.15-0.15-0.17-0.36-0.49-0.15-0.96 0.03-0.07 0.32-0.42 0.44-0.55 0.84-0.99 1.8-1.88 2.72-2.79 2.25-2.19 4.51-4.35 6.78-6.51 3.68-3.5 7.54-6.81 11.37-10.13-0.44 0.33-0.89 0.66-1.32 1.01-6.25 4.86-12.19 10.11-18.71 14.64-1.22 0.86-2.5 2.02-3.9 2.48-0.39 0.13-0.63 0-0.76-0.08-0.27-0.17-0.47-0.44-0.43-0.85 0.01-0.08 0.28-0.59 0.28-0.59s-0.02 0.03-0.03 0.04c0.75-1.18 1.75-2.24 2.71-3.25 0.97-1.04 1.94-2.07 2.93-3.09-1.79 1.68-3.61 3.32-5.51 4.86-0.66 0.54-1.18 0.05-1.25-0.01-0.13-0.14-0.44-0.5-0.17-1.05 0.05-0.11 0.56-0.72 0.76-0.96 0.68-0.8 1.37-1.6 2.06-2.4 0.29-0.34 0.59-0.68 0.89-1.01-1.22 1.08-2.47 2.14-3.82 3.05-0.64 0.44-1.07 0.03-1.18-0.07-0.17-0.16-0.37-0.44-0.25-0.89 0.02-0.07 0.07-0.2 0.18-0.36 0.11-0.18 0.38-0.5 0.49-0.66 0.66-0.94 1.41-1.8 2.14-2.68 1.84-2.2 3.68-4.37 5.59-6.5-2.66 2.62-5.36 5.19-8.29 7.5-0.63 0.5-1.12 0.09-1.21 0-0.17-0.15-0.41-0.45-0.26-0.95 0.02-0.06 0.07-0.18 0.17-0.33 0.13-0.19 0.43-0.57 0.55-0.74 0.48-0.69 1-1.35 1.51-2.01 0.27-0.36 0.55-0.72 0.84-1.07-0.69 0.69-1.4 1.36-2.12 2.02-0.61 0.55-1.14 0.1-1.22 0.04-0.15-0.13-0.47-0.46-0.25-1.02 0.03-0.08 0.37-0.56 0.5-0.74 0.51-0.73 1.05-1.44 1.58-2.15 1.36-1.8 2.84-3.5 4.33-5.2 2.66-3.05 5.73-5.83 8.57-8.76z" fill="#c8a553" fill-rule="evenodd"/>
<path d="m40.24 65.11c0.34-0.06 0.71-0.16 1.07-0.29 1.56-0.55 3.13-1.55 4.05-2.13 6.23-3.87 11.76-9.17 17.37-13.85 1.97-1.66 3.98-3.27 5.99-4.89 1.3-1.07 2.27-1.8 2.73-2.07 0.25-0.15 0.45-0.21 0.56-0.22 0.59-0.1 0.87 0.22 1.01 0.53 0.47 1.07 0.2 2.45-0.5 3.8-0.89 1.71-2.41 3.39-3.12 4.16-4.98 5.34-11.65 9.12-17.82 12.95-2.71 1.69-5.7 3.21-8.07 5.39 0.27-0.02 0.55-0.06 0.83-0.11 1.5-0.27 3.12-0.99 3.95-1.34 5.78-2.43 11.22-6.07 16.49-9.42 2.1-1.33 4.18-2.69 6.26-4.06 0.67-0.44 1.31-0.91 1.97-1.38 0.15-0.11 0.55-0.4 0.61-0.44 0.62-0.36 1.07 0.1 1.12 0.18 0.04 0.03 0.58 0.71-0.11 1.3-3.06 2.6-6.16 5.16-9.26 7.71-3.32 2.72-6.69 5.5-10.33 7.81-1.13 0.71-2.29 1.35-3.44 2.03 0.31-0.06 0.64-0.13 0.97-0.21 1.83-0.45 3.99-1.23 5.96-2.02 0.99-0.74 1.98-1.49 2.99-2.18 1.4-0.97 2.81-1.93 4.31-2.77 1.71-0.95 3.63-1.72 5.57-2.1 0.33-0.06 0.52 0.04 0.61 0.09 0.21 0.1 0.33 0.26 0.4 0.43 0.1 0.21 0.16 0.51-0.07 0.87-0.03 0.05-0.09 0.12-0.18 0.2-0.06 0.05-0.3 0.19-0.38 0.25-0.66 0.47-1.31 0.96-1.98 1.4-1.52 0.99-3.1 1.93-4.7 2.79-0.91 0.48-3.14 1.54-5.69 2.58-1.13 0.83-2.26 1.65-3.46 2.37-0.42 0.25-0.98 0.11-1.23-0.31-0.06-0.1-0.1-0.21-0.11-0.31-0.56 0.17-1.1 0.32-1.61 0.44-1.19 0.3-2.26 0.46-3.1 0.43-0.71-0.02-1.29-0.17-1.7-0.43-0.29-0.19-0.44-0.47-0.4-0.86 0.01-0.08 0.03-0.35 0.33-0.6 0.15-0.13 1.06-0.69 1.88-1.19 1.34-0.83 2.74-1.57 4.07-2.42 2.47-1.56 4.82-3.35 7.11-5.19-3.93 2.48-7.98 4.89-12.21 6.66-0.91 0.38-2.68 1.15-4.32 1.45-1.31 0.24-2.55 0.14-3.37-0.46-0.12-0.09-0.65-0.59-0.2-1.24 0.08-0.11 0.55-0.63 0.56-0.65 1.26-1.27 2.71-2.33 4.23-3.31-1.02 0.63-2.51 1.52-3.98 2.03-1.3 0.45-2.59 0.6-3.63 0.21-0.17-0.06-0.88-0.49-0.47-1.3 0.08-0.16 0.4-0.63 0.87-1.24-0.99 0.85-2.02 1.67-3.07 2.46-0.4 0.29-0.96 0.21-1.25-0.19-0.3-0.39-0.22-0.95 0.18-1.25 7.83-5.82 13.74-13.67 20.68-20.43 2.35-2.29 4.73-4.51 7.41-6.42 1-0.71 2.04-1.38 3.14-1.92 0.57-0.28 1.12-0.56 1.29-0.61 0.19-0.05 0.35-0.03 0.44-0.01 0.33 0.07 0.52 0.26 0.63 0.48 0.09 0.17 0.14 0.4 0.05 0.69-0.51 1.56-2.2 3.72-4.47 6.07-5.04 5.21-12.98 11.54-16.08 14.5-1.9 1.82-3.79 3.65-5.63 5.52-0.64 0.67-1.28 1.43-1.75 2.04zm8.57-11.04c3.77-3.3 9.6-8.13 13.6-12.26 0.99-1.02 1.87-2 2.56-2.89-0.44 0.29-0.88 0.58-1.32 0.89-2.61 1.86-4.91 4.02-7.19 6.25-2.65 2.57-5.14 5.29-7.65 8.01zm-1.87 9.74c1.24-0.75 2.49-1.48 3.7-2.23 6.04-3.75 12.57-7.43 17.45-12.65 0.65-0.7 2.03-2.22 2.84-3.77 0.18-0.34 0.34-0.68 0.44-1.01-0.44 0.33-0.98 0.74-1.53 1.19-1.99 1.61-3.99 3.22-5.96 4.87-5.48 4.58-10.89 9.72-16.94 13.6z" fill="#c8a553" fill-rule="evenodd"/>
<path d="m51.48 25.28c-1.59-2.79-2.99-5.51-3.6-8.7-0.6-3.09-1.03-7.47 0.29-10.5 1.03-2.37 2.41-3.38 3.71-3.56 1.28-0.18 2.59 0.41 3.65 1.59 1.4 1.54 2.39 4.11 2.31 6.81-0.13 4.06-1.76 8.77-3.42 12.48-0.2 0.46-1.48 2.02-1.48 2.02-0.19 0.22-0.47 0.34-0.77 0.31-0.28-0.03-0.55-0.19-0.69-0.45zm0.91-2.03c0.19-0.23 0.35-0.46 0.4-0.58 1.56-3.51 3.14-7.97 3.26-11.81 0.07-2.19-0.71-4.29-1.84-5.55-0.62-0.68-1.34-1.13-2.08-1.02-0.86 0.12-1.64 0.93-2.32 2.51-1.19 2.72-0.71 6.67-0.17 9.44 0.49 2.56 1.53 4.78 2.75 7.01z" fill="#c8a553" fill-rule="evenodd"/>
<path d="m48.3 10.45c0.21-0.29 0.3-0.4 0.57-0.72 0.46-0.55 0.47-0.54 0.98-1.13 0.36-0.43 0.87-0.94 1.37-1.51-0.55 0.31-1.11 0.64-1.66 0.98-0.42 0.26-0.97 0.13-1.23-0.29s-0.13-0.97 0.29-1.23c1.09-0.67 2.16-1.28 3.31-1.82 0.16-0.07 0.72-0.33 0.93-0.42 0.05-0.04 0.25-0.16 0.33-0.19 0.18-0.07 0.34-0.08 0.45-0.06 0.28 0.03 0.48 0.15 0.62 0.34 0.12 0.14 0.25 0.37 0.18 0.73-0.12 0.71-0.53 1.47-1.08 2.2-0.1 0.13-0.2 0.26-0.31 0.39 0.35-0.22 0.7-0.43 1.06-0.62 0.28-0.15 0.68-0.33 0.8-0.36 0.22-0.04 0.39 0 0.49 0.03 0.24 0.09 0.4 0.23 0.5 0.41s0.18 0.43 0.06 0.77c-0.68 1.79-2.34 3.38-3.7 4.83 0.2-0.13 0.4-0.26 0.6-0.38 0.45-0.29 0.89-0.61 1.35-0.9 0.16-0.1 0.42-0.26 0.61-0.37-0.02 0.01-0.07 0.04-0.07 0.04s0.53-0.26 0.63-0.26c0.3-0.01 0.52 0.11 0.69 0.29 0.12 0.13 0.28 0.35 0.23 0.72-0.09 0.74-0.56 1.62-1.2 2.47-0.6 0.81-1.36 1.61-1.92 2.26 0.15-0.09 0.31-0.19 0.47-0.28 0.04-0.03 0.25-0.17 0.32-0.2 0.12-0.05 0.23-0.07 0.31-0.07 0.44-0.03 0.69 0.19 0.85 0.47 0.07 0.14 0.19 0.4 0.02 0.79-0.47 1.12-1.39 2.07-2.14 3.03-0.05 0.07-0.11 0.14-0.16 0.21 0.08 0.06 0.15 0.12 0.22 0.2 0.19 0.22 0.35 0.54 0.43 1.15 0.06 0.49-0.29 0.94-0.78 1-0.48 0.07-0.93-0.28-1-0.77 0-0.05-0.01-0.1-0.02-0.14-0.12-0.03-0.3-0.07-0.45-0.12-0.26-0.07-0.49-0.23-0.61-0.55-0.02-0.05-0.14-0.31 0.03-0.69 0.02-0.06 0.21-0.39 0.22-0.41 0.14-0.22 0.29-0.43 0.44-0.64-0.21 0.08-0.42 0.14-0.62 0.18-0.38 0.08-0.64-0.06-0.82-0.24-0.13-0.13-0.26-0.32-0.27-0.62 0-0.08 0.01-0.25 0.11-0.47 0.07-0.16 0.28-0.51 0.5-0.85 0.33-0.5 0.67-0.99 1.03-1.46 0.3-0.39 0.74-0.88 1.21-1.41-0.87 0.54-1.78 1.04-2.72 1.29-0.37 0.1-0.6-0.03-0.75-0.13-0.21-0.14-0.36-0.35-0.39-0.65-0.01-0.08-0.01-0.18 0.02-0.3 0.01-0.06 0.11-0.27 0.17-0.36 0.01-0.04 0.02-0.05 0.02-0.05s-0.02 0.03-0.02 0.05c0.12-0.29 0.25-0.53 0.4-0.81 0.32-0.57 0.72-1.09 1.15-1.58 0.39-0.44 0.84-0.89 1.29-1.36-0.39 0.27-0.78 0.52-1.14 0.71-0.69 0.39-1.31 0.58-1.7 0.56-0.36-0.02-0.55-0.2-0.67-0.34-0.14-0.18-0.22-0.39-0.19-0.65 0.01-0.12 0.04-0.27 0.14-0.43 0.04-0.06 0.17-0.21 0.22-0.26z" fill="#c8a553" fill-rule="evenodd"/>
<path d="m65.1 21.54c-0.1-0.03-0.19-0.07-0.28-0.12-0.23-0.12-0.33-0.28-0.39-0.39-0.17-0.33-0.14-0.66 0.1-0.96 0.06-0.07 0.59-0.34 0.59-0.34s-0.07 0.02-0.09 0.02c0.19-0.06 0.39-0.12 0.58-0.18-0.06-0.02-0.13-0.04-0.19-0.06-0.27-0.09-0.4-0.26-0.48-0.38-0.14-0.24-0.17-0.49-0.07-0.76 0.02-0.09 0.12-0.41 0.55-0.56 0.09-0.02 0.65-0.14 1.16-0.24 0.07-0.01 0.13-0.02 0.2-0.03-0.42-0.18-0.8-0.42-1.07-0.72-0.26-0.28-0.28-0.55-0.27-0.74 0.03-0.24 0.13-0.46 0.34-0.64 0.11-0.08 0.28-0.19 0.53-0.23 0.18-0.03 0.52 0 0.68-0.03 0.66-0.11 1.32-0.22 1.96-0.41-0.08-0.05-0.16-0.1-0.23-0.14-0.4-0.28-0.68-0.58-0.78-0.78-0.14-0.27-0.12-0.5-0.06-0.68 0.05-0.18 0.15-0.34 0.31-0.46 0.09-0.08 0.23-0.15 0.41-0.19 0.07-0.01 0.27-0.01 0.35-0.01 0.22-0.03 1-0.11 1.11-0.12 0.08-0.01 0.17-0.02 0.26-0.03-0.49-0.27-0.95-0.57-1.27-0.96-0.23-0.26-0.25-0.51-0.23-0.7 0.02-0.22 0.11-0.41 0.28-0.58 0.07-0.06 0.16-0.13 0.29-0.19-0.06-0.13-0.08-0.29-0.06-0.45 0.05-0.48 0.5-0.84 0.99-0.78 0.33 0.04 0.66 0.07 0.99 0.12 0.68 0.1 0.98 0.21 1.09 0.27 0.22 0.1 0.33 0.23 0.38 0.31 0.2 0.28 0.2 0.55 0.13 0.78-0.05 0.18-0.17 0.37-0.38 0.51-0.25 0.16-0.51 0.29-0.79 0.41 0.19 0.09 0.37 0.17 0.53 0.26 0.17 0.08 0.53 0.15 0.71 0.23 0.22 0.11 0.37 0.26 0.45 0.38 0.13 0.21 0.18 0.42 0.15 0.64-0.02 0.2-0.1 0.46-0.39 0.68-0.54 0.4-1.28 0.61-2 0.74 0.02 0.01 0.03 0.01 0.04 0.02 0.45 0.29 0.59 0.65 0.62 0.76 0.03 0.17 0.08 0.64-0.43 0.96-0.18 0.11-1.16 0.47-1.89 0.69-0.09 0.03-0.17 0.06-0.26 0.08 0.21 0.09 0.41 0.18 0.62 0.25 0.09 0.02 0.3 0.07 0.35 0.09 0.11 0.04 0.18 0.1 0.24 0.14 0.34 0.3 0.37 0.64 0.28 0.95-0.05 0.14-0.14 0.42-0.54 0.58-0.07 0.03-0.15 0.06-0.23 0.09 0.22 0.24 0.21 0.51 0.2 0.65-0.01 0.23-0.09 0.48-0.38 0.68-0.28 0.19-0.69 0.37-1.12 0.52 0.04 0.08 0.07 0.15 0.09 0.23 0.05 0.2 0.06 0.46-0.13 0.78-0.23 0.36-0.65 0.69-1.16 0.95-0.23 0.12-0.47 0.23-0.71 0.33 0.04 0.08 0.06 0.16 0.07 0.25 0.03 0.18 0.03 0.45-0.2 0.74-0.29 0.34-0.52 0.57-0.71 0.76-0.27 0.26-0.39 0.4-0.47 1.04-0.07 0.48-0.52 0.83-1.01 0.76-0.49-0.06-0.83-0.51-0.77-1.01 0.12-0.82 0.28-1.22 0.52-1.55-0.12-0.04-0.23-0.08-0.31-0.13-0.29-0.19-0.37-0.43-0.41-0.61-0.04-0.21-0.01-0.43 0.12-0.64 0.05-0.07 0.11-0.15 0.19-0.22 0.08-0.06 0.44-0.22 0.44-0.22s-0.05 0.01-0.06 0.03c0.48-0.24 0.48-0.24 0.92-0.44z" fill="#c8a553" fill-rule="evenodd"/>
<path d="m75.48 31.81c-0.17-0.15-0.3-0.29-0.36-0.39-0.18-0.29-0.19-0.55-0.16-0.73 0.05-0.3 0.2-0.55 0.53-0.71 0.25-0.11 0.81-0.21 1.49-0.22 0.22-0.01 0.47-0.01 0.73-0.02-0.15-0.24-0.18-0.49-0.15-0.65 0.03-0.3 0.17-0.61 0.61-0.79 0.06-0.03 0.18-0.07 0.34-0.08 0.13-0.01 0.38 0 0.7 0.01-0.31-0.24-0.33-0.51-0.34-0.65-0.02-0.35 0.1-0.69 0.55-0.88 0.06-0.03 0.6-0.05 0.6-0.05s-0.02 0-0.03 0c0.24 0.01 0.47 0.03 0.71 0.04-0.13-0.12-0.24-0.24-0.35-0.37-0.2-0.23-0.23-0.46-0.2-0.67 0.02-0.17 0.08-0.34 0.23-0.5 0.04-0.05 0.23-0.3 0.67-0.29 0.01 0 0.05 0 0.11 0.01s0.39 0.05 1.05 0.15c0.03 0 0.05 0 0.09 0.01l-0.03-0.03c-0.24-0.35-0.2-0.64-0.15-0.82 0.07-0.27 0.23-0.5 0.54-0.62 0.13-0.06 0.33-0.1 0.6-0.07 0.23 0.03 0.67 0.17 0.9 0.19-0.1-0.06-0.24-0.15-0.3-0.2-0.15-0.14-0.24-0.3-0.29-0.43-0.12-0.35-0.1-0.7 0.27-1.03 0.14-0.12 0.48-0.3 1.01-0.28 0.22 0.01 0.57 0.04 0.96 0.09 0.01-0.06 0.04-0.13 0.07-0.18 0.23-0.44 0.77-0.61 1.21-0.38 0.24 0.13 0.49 0.25 0.74 0.39 0.4 0.22 0.62 0.41 0.73 0.52 0.22 0.25 0.27 0.47 0.28 0.64 0.02 0.38-0.17 0.97-1 1.04h-0.27c0.05 0.07 0.08 0.13 0.11 0.19 0.13 0.27 0.1 0.53 0 0.76-0.08 0.16-0.22 0.39-0.59 0.5-0.28 0.07-0.56 0.12-0.84 0.16 0.08 0.07 0.14 0.14 0.18 0.19 0.24 0.34 0.22 0.67 0.07 0.96-0.08 0.14-0.24 0.4-0.67 0.49-0.52 0.1-1.08 0.09-1.65 0.03 0.13 0.29 0.1 0.56-0.03 0.79-0.08 0.15-0.23 0.38-0.62 0.46-0.23 0.05-0.45 0.08-0.68 0.11 0.2 0.24 0.22 0.48 0.21 0.62 0 0.31-0.14 0.69-0.66 0.89-0.16 0.06-0.51 0.11-0.94 0.12 0.2 0.35 0.09 0.67-0.01 0.85-0.07 0.14-0.2 0.31-0.44 0.42-0.12 0.06-0.4 0.13-0.79 0.15-0.56 0.02-1.5-0.01-2.38-0.01 0.18 0.27 0.15 0.51 0.15 0.56-0.02 0.23-0.17 0.63-0.68 0.91-0.5 0.26-1.76 0.58-2.12 0.8-0.42 0.26-0.97 0.12-1.23-0.3-0.25-0.42-0.12-0.97 0.3-1.23 0.21-0.13 0.72-0.3 1.22-0.47z" fill="#c8a553" fill-rule="evenodd"/>
<path d="m84.82 43.31c-0.01-0.02-0.02-0.05-0.03-0.08-0.16-0.41-0.18-0.79-0.1-1.08s0.27-0.56 0.69-0.64c0.04-0.01 0.27-0.07 0.59 0.08 0.12 0.06 0.74 0.41 1.25 0.69 0.05 0.03 0.11 0.06 0.16 0.09-0.04-0.26-0.07-0.52-0.05-0.75 0.03-0.38 0.22-0.65 0.61-0.78 0.04-0.02 0.35-0.15 0.75 0.08 0.09 0.05 0.56 0.37 0.98 0.65 0.12 0.08 0.25 0.16 0.37 0.24-0.21-0.52-0.39-1.03-0.44-1.47-0.05-0.45 0.18-0.7 0.41-0.85 0.16-0.1 0.4-0.2 0.74-0.11 0.06 0.02 0.21 0.07 0.39 0.21s0.57 0.52 1.12 1.05c0.07 0.07 0.2 0.2 0.37 0.36-0.07-0.56-0.03-1.08 0.14-1.46 0.14-0.31 0.35-0.45 0.53-0.51 0.19-0.08 0.4-0.09 0.61-0.02 0.13 0.04 0.3 0.13 0.45 0.3 0.08 0.08 0.24 0.32 0.27 0.37 0.07 0.07 0.18 0.2 0.32 0.35 0.03-0.35 0.27-0.66 0.62-0.78 0.47-0.14 0.97 0.12 1.13 0.59 0.17 0.55 0.35 1.1 0.52 1.65 0.25 0.83 0.06 1.3-0.09 1.48-0.25 0.34-0.67 0.55-1.26 0.31-0.24-0.1-0.6-0.35-0.97-0.7l-0.07-0.07c0.03 0.1 0.05 0.2 0.06 0.29 0-0.03-0.02-0.1-0.02-0.1s0.1 0.43 0.08 0.58c-0.05 0.34-0.23 0.6-0.61 0.74-0.21 0.07-0.63 0.09-1.12-0.2-0.25-0.16-0.58-0.42-0.92-0.71 0.02 0.17 0.02 0.33 0 0.48-0.04 0.31-0.18 0.5-0.33 0.63-0.14 0.12-0.3 0.19-0.5 0.22-0.14 0.02-0.33 0.01-0.55-0.08-0.14-0.06-0.37-0.24-0.5-0.3-0.28-0.13-0.53-0.26-0.79-0.4 0.07 0.22 0.06 0.41 0.03 0.53-0.06 0.26-0.21 0.45-0.4 0.58-0.17 0.1-0.41 0.21-0.78 0.11-0.33-0.08-0.67-0.24-1.01-0.41 0.04 0.15 0.04 0.29 0.03 0.41-0.03 0.19-0.11 0.36-0.24 0.5-0.13 0.15-0.32 0.29-0.63 0.32-0.3 0.02-0.75-0.05-1.25-0.23-0.55-0.18-1.32-0.53-1.76-0.73-0.08 0.09-0.15 0.17-0.22 0.24-0.28 0.26-0.64 0.5-1.53 0.59-0.5 0.06-0.94-0.3-0.99-0.79s0.3-0.93 0.79-0.98c0.44-0.05 0.53-0.14 0.66-0.29 0.14-0.16 0.32-0.34 0.6-0.53 0.11-0.08 0.41-0.24 0.85-0.11 0.19 0.06 0.58 0.24 1.04 0.44z" fill="#c8a553" fill-rule="evenodd"/>
<path d="m82.19 58.17c0.05-0.25 0.19-0.42 0.32-0.53 0.05-0.04 0.64-0.47 1.21 0.05 0.14 0.14 0.88 0.92 0.95 1 0.02 0.02 0.04 0.05 0.06 0.07 0.05-0.33 0.26-0.51 0.46-0.62 0.12-0.07 0.51-0.28 0.97 0.07 0.01 0.01 0.07 0.05 0.16 0.16s0.57 0.71 1.1 1.38c0.04 0.05 0.14 0.16 0.26 0.32 0.02-0.32 0.05-0.64 0.11-0.94 0.09-0.4 0.32-0.55 0.47-0.63 0.25-0.13 0.53-0.17 0.84-0.01 0.08 0.04 0.18 0.1 0.27 0.21 0.07 0.07 0.24 0.37 0.27 0.43 0.17 0.23 0.34 0.45 0.51 0.68 0.03 0.03 0.05 0.07 0.09 0.11 0.04-0.22 0.08-0.44 0.12-0.62 0.11-0.48 0.26-0.85 0.37-1.02 0.31-0.44 0.71-0.48 1.02-0.41 0.08 0.02 0.42 0.12 0.67 0.56 0.13 0.25 0.41 0.88 0.74 1.57 0.07-0.08 0.15-0.14 0.23-0.19 0.15-0.09 0.62-0.34 1.1 0.12 0.11 0.09 0.62 0.83 1.02 1.43 0-0.09 0.01-0.19 0.01-0.29 0.02-0.49 0.43-0.88 0.93-0.86 0.49 0.02 0.88 0.43 0.86 0.93-0.02 0.54-0.03 1.08-0.06 1.62-0.01 0.3-0.03 0.58-0.05 0.88-0.01 0.11 0.02 0.35 0.01 0.47-0.02 0.23-0.1 0.39-0.15 0.48-0.21 0.33-0.49 0.43-0.79 0.43-0.17-0.01-0.46-0.04-0.72-0.37-0.22-0.29-0.47-0.65-0.71-1.02-0.12 0.16-0.27 0.27-0.45 0.32-0.18 0.06-0.43 0.1-0.74-0.07-0.34-0.18-0.77-0.66-1.16-1.31-0.21-0.35-0.45-0.8-0.68-1.25-0.04 0.25-0.08 0.45-0.1 0.56-0.14 0.57-0.58 0.7-0.67 0.73-0.22 0.06-0.44 0.04-0.64-0.07-0.31-0.16-0.59-0.39-0.84-0.64 0.03 0.12 0.05 0.25 0.06 0.32 0.01 0.24-0.03 0.43-0.1 0.57-0.17 0.37-0.46 0.63-1.02 0.56-0.19-0.02-0.51-0.14-0.84-0.45-0.24-0.23-0.53-0.59-0.81-0.95-0.1 0.12-0.23 0.21-0.37 0.26-0.16 0.06-0.42 0.14-0.78-0.05-0.7-0.39-1.35-1.13-1.92-1.78-0.24 0.14-0.6 0.21-1.13-0.02-0.76-0.32-1.48-0.73-2.23-1.08-0.45-0.2-0.65-0.74-0.45-1.19 0.21-0.44 0.74-0.64 1.19-0.44 0.35 0.17 0.69 0.34 1.03 0.52z" fill="#c8a553" fill-rule="evenodd"/>
<path d="m77.03 71.28c0.03-0.04 0.06-0.07 0.09-0.08 0.17-0.15 0.36-0.2 0.55-0.2 0.21-0.01 0.52 0.05 0.75 0.38 0.03 0.05 0.08 0.13 0.12 0.24 0 0.02 0.01 0.06 0.02 0.1 0.31-0.21 0.68-0.17 0.9-0.07 0.14 0.06 0.29 0.16 0.43 0.36 0.05 0.07 0.12 0.2 0.19 0.4 0.16-0.04 0.3-0.03 0.34-0.03 0.16 0.01 0.67 0.08 0.81 0.7 0.01 0.04 0.02 0.31 0.03 0.41 0.02 0.42 0.03 0.62 0.06 0.92 0.26-0.34 0.55-0.37 0.69-0.37 0.34-0.02 0.67 0.09 0.87 0.51 0.03 0.07 0.07 0.17 0.08 0.31 0.01 0.07-0.01 0.25-0.02 0.37 0.17-0.33 0.35-0.65 0.56-0.94 0.26-0.37 0.56-0.4 0.71-0.41 0.34-0.02 0.69 0.09 0.89 0.53 0.03 0.09 0.09 0.25 0.09 0.48-0.01 0.16-0.06 0.48-0.07 0.63-0.01 0.39-0.03 0.79-0.05 1.18-0.03 0.52-0.17 1.36-0.24 2.2 0.68-0.7 1.44-1.41 1.69-1.58 0.47-0.34 0.87-0.17 0.98-0.12 0.3 0.14 0.46 0.37 0.52 0.67 0.03 0.15-0.05 0.56-0.05 0.56s0.02-0.07 0.02-0.1c-0.02 0.28-0.12 0.85-0.2 1.46 0.02-0.04 0.04-0.07 0.06-0.1 0.24-0.43 0.78-0.58 1.21-0.34s0.59 0.79 0.35 1.22c-0.2 0.35-0.38 0.72-0.6 1.06-0.43 0.69-0.78 1.07-1.02 1.23-0.3 0.21-0.57 0.25-0.78 0.23-0.44-0.02-0.93-0.34-1.06-1.12-0.07-0.39-0.05-1.02 0.01-1.66-0.28 0.29-0.54 0.57-0.71 0.76-0.03 0.06-0.19 0.39-0.27 0.5-0.14 0.2-0.3 0.31-0.43 0.36-0.23 0.11-0.46 0.12-0.67 0.05-0.19-0.06-0.42-0.18-0.58-0.52-0.19-0.39-0.28-0.92-0.3-1.51-0.15 0.37-0.3 0.74-0.35 0.83-0.37 0.79-1.23 0.44-1.27 0.42-0.16-0.09-0.44-0.29-0.45-0.77 0-0.59 0.03-1.18 0.06-1.76-0.16-0.04-0.4-0.13-0.57-0.46-0.15-0.27-0.27-0.57-0.38-0.89-0.16 0.01-0.34-0.02-0.5-0.13-0.09-0.06-0.29-0.18-0.39-0.51-0.04-0.14-0.09-0.33-0.14-0.55-0.15 0.1-0.34 0.14-0.57 0.12-0.11 0-0.6-0.07-0.81-0.66-0.03-0.11-0.1-0.35-0.16-0.64h-0.07c-0.17-0.02-0.45-0.06-0.7-0.4-0.64-0.92-0.91-2.06-1.58-2.96-0.29-0.4-0.21-0.96 0.19-1.26s0.96-0.2 1.25 0.19c0.18 0.24 0.33 0.5 0.47 0.76z" fill="#c8a553" fill-rule="evenodd"/>
<path d="m66.88 80.64h0.11c0.51 0.05 0.71 0.38 0.79 0.64 0.03 0.1 0.05 0.2 0.06 0.3 0.11 0.01 0.2 0.03 0.27 0.06 0.26 0.08 0.47 0.26 0.57 0.58 0.03 0.08 0.04 0.18 0.04 0.3 0 0.07-0.09 0.39-0.09 0.39s0.01-0.03 0.02-0.04c-0.08 0.28-0.17 0.6-0.26 0.9 0.23 0 0.44 0.07 0.64 0.26 0.12 0.11 0.24 0.28 0.27 0.52 0.04-0.03 0.08-0.07 0.12-0.12 0.2-0.2 0.38-0.23 0.45-0.25 0.31-0.07 0.54 0.02 0.71 0.15 0.18 0.12 0.45 0.38 0.36 0.89 0 0.03-0.14 0.36-0.14 0.36s0.01-0.01 0.01-0.02c-0.05 0.1-0.09 0.19-0.14 0.29 0.05-0.01 0.1-0.01 0.13-0.01 0.42 0.02 0.69 0.23 0.82 0.64 0.09 0.29 0.07 0.58-0.04 0.87-0.09 0.24-0.31 0.48-0.42 0.72-0.01 0-0.01 0-0.01 0.01 0.27-0.28 0.49-0.5 0.63-0.61 0.31-0.27 0.6-0.29 0.69-0.29 0.36 0 0.56 0.16 0.69 0.3 0.15 0.16 0.24 0.36 0.24 0.61 0.01 0.13-0.02 0.31-0.13 0.51-0.05 0.09-0.2 0.29-0.24 0.34-0.11 0.2-0.22 0.41-0.34 0.62 0.07-0.03 0.13-0.04 0.18-0.04 0.35-0.06 0.6 0.07 0.78 0.25 0.13 0.13 0.25 0.32 0.26 0.61 0 0.05-0.15 0.53-0.15 0.53s0.01-0.02 0.01-0.03c-0.08 0.17-0.16 0.35-0.24 0.51-0.09 0.2-0.19 0.39-0.29 0.58 0.36-0.27 0.87-0.23 1.19 0.1 0.34 0.36 0.32 0.93-0.03 1.27-0.61 0.57-1.21 1.16-1.83 1.73-0.27 0.26-0.57 0.5-0.86 0.75-0.08 0.07-0.25 0.25-0.34 0.34-0.15 0.13-0.3 0.18-0.37 0.21-0.35 0.11-0.61 0.01-0.79-0.12-0.15-0.11-0.57-0.42-0.33-1.08 0.06-0.15 0.11-0.29 0.17-0.44-0.04 0.02-0.09 0.04-0.13 0.04-0.33 0.09-0.59-0.01-0.8-0.19-0.13-0.11-0.32-0.31-0.32-0.71 0.01-0.34 0.09-0.71 0.21-1.1-0.14 0.05-0.25 0.05-0.32 0.05-0.28-0.01-0.48-0.12-0.62-0.27-0.15-0.15-0.29-0.38-0.26-0.73 0.07-0.58 0.23-1.16 0.44-1.72-0.31-0.12-0.53-0.4-0.56-0.47-0.04-0.08-0.07-0.21-0.08-0.38-0.06 0.06-0.14 0.14-0.17 0.18-0.17 0.13-0.34 0.19-0.47 0.21-0.21 0.03-0.4-0.01-0.57-0.1-0.17-0.08-0.35-0.23-0.45-0.53-0.1-0.32-0.07-0.84 0.14-1.42 0.08-0.24 0.2-0.5 0.32-0.76-0.04-0.03-0.08-0.06-0.11-0.09-0.13-0.11-0.33-0.31-0.32-0.71 0.01-0.45 0.11-0.88 0.24-1.31-0.01 0-0.03-0.01-0.04-0.02-0.17-0.08-0.39-0.25-0.48-0.63-0.11-0.44-0.04-0.93 0.11-1.43 0.02-0.03 0.02-0.06 0.04-0.09-0.3-0.13-0.43-0.4-0.47-0.51-0.33-0.86-0.23-1.77-0.37-2.65-0.08-0.49 0.25-0.95 0.74-1.03 0.48-0.08 0.94 0.25 1.03 0.74 0.08 0.51 0.05 1.03 0.1 1.54z" fill="#c8a553" fill-rule="evenodd"/>
<path d="m50.23 96.05c-0.05-0.01-0.08-0.03-0.11-0.04-0.36-0.14-0.5-0.41-0.55-0.66-0.03-0.18-0.07-0.58 0.35-0.91 0.05-0.04 0.17-0.1 0.33-0.19h-0.01c-0.21-0.05-0.32-0.14-0.37-0.19-0.26-0.22-0.32-0.47-0.31-0.69 0-0.2 0.06-0.46 0.32-0.68 0.02-0.02 0.05-0.04 0.08-0.06-0.23-0.21-0.29-0.48-0.26-0.74 0.02-0.16 0.06-0.44 0.42-0.66 0.02-0.02 0.05-0.03 0.08-0.05-0.01-0.01-0.02-0.01-0.03-0.02-0.31-0.17-0.44-0.43-0.46-0.72-0.01-0.17-0.01-0.45 0.29-0.74 0.24-0.23 0.53-0.43 0.83-0.61-0.09-0.1-0.14-0.2-0.17-0.27-0.13-0.28-0.14-0.6 0.09-0.93 0.07-0.1 0.22-0.26 0.47-0.39 0.09-0.04 0.21-0.09 0.34-0.14-0.1-0.13-0.15-0.29-0.16-0.45-0.01-0.12-0.02-0.29 0.08-0.48-0.1-0.06-0.17-0.13-0.22-0.18-0.24-0.24-0.36-0.56-0.22-0.97 0.04-0.15 0.18-0.39 0.43-0.64 0.09-0.08 0.2-0.18 0.32-0.28-0.04-0.07-0.06-0.15-0.07-0.21-0.17-0.73 0.09-1.41 0.44-2.03 0.24-0.43 0.79-0.58 1.22-0.34s0.58 0.79 0.34 1.22c-0.03 0.06-0.07 0.12-0.1 0.18 0.06 0.01 0.11 0.01 0.14 0.02 0.84 0.13 0.77 0.94 0.75 1.07-0.03 0.14-0.1 0.3-0.24 0.44 0.21 0.07 0.32 0.2 0.38 0.27 0.24 0.29 0.35 0.66 0.04 1.1 0 0.01-0.01 0.03-0.02 0.04 0.39 0.11 0.53 0.36 0.6 0.51 0.12 0.27 0.13 0.57-0.08 0.89 0 0.01-0.01 0.02-0.02 0.03 0.19 0.09 0.29 0.21 0.34 0.28 0.18 0.25 0.3 0.58 0.05 0.99-0.02 0.04-0.12 0.23-0.42 0.37-0.14 0.06-0.74 0.3-1.16 0.47 0.42 0.04 0.75 0.07 0.87 0.08 0.75 0.07 0.86 0.78 0.86 0.78 0.04 0.33-0.4 0.7-0.68 0.91 0.19 0.18 0.26 0.39 0.27 0.59 0.01 0.21-0.02 0.57-0.43 0.82-0.04 0.02-0.4 0.14-0.4 0.14s0.01-0.01 0.02-0.01c-0.21 0.05-0.42 0.1-0.63 0.16 0.27 0.16 0.36 0.37 0.4 0.52 0.08 0.26 0.06 0.53-0.14 0.8-0.02 0.03-0.05 0.06-0.08 0.09 0.3 0.05 0.53 0.11 0.65 0.17 0.29 0.14 0.43 0.34 0.5 0.5 0.12 0.26 0.12 0.54-0.04 0.83-0.02 0.03-0.17 0.31-0.62 0.46-0.22 0.07-0.84 0.29-1.54 0.54 0.37 0.06 0.66 0.12 0.82 0.18 0.46 0.16 0.61 0.48 0.66 0.61 0.1 0.3 0.07 0.53-0.04 0.73 0.15 0.14 0.26 0.33 0.29 0.55 0.06 0.49-0.28 0.94-0.78 1-0.47 0.06-0.94 0.14-1.41 0.19-0.22 0.02-0.43 0.02-0.65 0.03s-0.44 0.01-0.65 0.01c-1.04-0.04-1.25-0.69-1.27-0.92-0.03-0.23 0.03-0.63 0.47-0.95-0.36-0.06-0.65-0.11-0.77-0.12 0.03 0 0.1 0.01 0.1 0.01s-0.45-0.05-0.57-0.12c-0.32-0.17-0.52-0.43-0.5-0.85 0-0.17 0.05-0.36 0.19-0.55 0.09-0.13 0.33-0.34 0.72-0.53 0.18-0.08 0.39-0.17 0.63-0.26z" fill="#c8a553" fill-rule="evenodd"/>
<path d="m31.88 91.11c-0.14-0.24-0.14-0.49-0.07-0.73 0.05-0.15 0.15-0.42 0.56-0.59 0.08-0.03 0.18-0.06 0.3-0.09-0.17-0.21-0.22-0.45-0.19-0.69 0.03-0.17 0.09-0.44 0.43-0.66 0.14-0.1 0.29-0.18 0.45-0.25-0.01 0-0.01-0.01-0.02-0.01-0.47-0.23-0.49-0.62-0.5-0.75-0.01-0.32 0.07-0.68 0.55-0.88l0.3-0.12-0.07-0.07c-0.19-0.21-0.22-0.43-0.22-0.58-0.01-0.24 0.07-0.45 0.23-0.62 0.25-0.27 0.59-0.49 0.98-0.65-0.14-0.15-0.21-0.31-0.23-0.5-0.02-0.18-0.01-0.43 0.2-0.69 0.29-0.35 0.77-0.64 1.32-0.84 0.13-0.05 0.26-0.08 0.4-0.12-0.07-0.18-0.08-0.37-0.02-0.59 0.19-0.62 0.71-1.09 1.39-1.43 0.34-0.16 0.72-0.3 1.05-0.46 0.16-0.07 0.31-0.13 0.41-0.22 0.05-0.16 0.21-0.63 0.36-0.82 0.3-0.39 0.86-0.47 1.25-0.17 0.38 0.3 0.46 0.83 0.19 1.22-0.01 0.04-0.07 0.25-0.1 0.35-0.07 0.2-0.15 0.36-0.25 0.48-0.26 0.34-0.75 0.6-1.28 0.85 0.14 0.04 0.27 0.09 0.41 0.13 0.42 0.15 0.54 0.43 0.59 0.55 0.13 0.34 0.12 0.73-0.3 1.05-0.07 0.05-0.21 0.13-0.42 0.18-0.14 0.03-0.42 0.06-0.54 0.09-0.16 0.04-0.32 0.07-0.48 0.11 0.09 0.02 0.17 0.06 0.25 0.09 0.22 0.08 0.34 0.21 0.42 0.32 0.14 0.19 0.18 0.41 0.15 0.63-0.01 0.14-0.07 0.47-0.48 0.68-0.01 0-0.09 0.05-0.26 0.09-0.11 0.02-0.53 0.1-0.91 0.16 0.22 0.09 0.41 0.19 0.57 0.32 0.32 0.25 0.35 0.53 0.35 0.69 0.01 0.29-0.1 0.58-0.41 0.78-0.03 0.02-0.16 0.05-0.29 0.08 0.24 0.12 0.32 0.27 0.36 0.34 0.13 0.21 0.15 0.41 0.12 0.59-0.04 0.22-0.14 0.52-0.52 0.69-0.05 0.02-0.38 0.07-0.51 0.08-0.09 0-0.16 0.01-0.25 0.02 0.05 0.01 0.1 0.02 0.14 0.03 0.08 0.01 0.26 0.03 0.32 0.05 0.19 0.05 0.31 0.14 0.4 0.22 0.19 0.18 0.28 0.39 0.29 0.62 0.01 0.18-0.02 0.43-0.27 0.69-0.02 0.03-0.23 0.24-0.68 0.28 0.09 0.15 0.11 0.31 0.11 0.43 0 0.16-0.02 0.77-0.81 0.92-0.09 0.02-0.18 0.04-0.27 0.05 0.04 0.03 0.08 0.07 0.11 0.1 0.27 0.28 0.31 0.59 0.23 0.89-0.05 0.17-0.16 0.45-0.57 0.64-0.05 0.02-0.25 0.06-0.55 0.1v0.1c-0.03 0.49-0.46 0.86-0.95 0.83-0.33-0.03-0.91-0.06-1.2-0.11-0.45-0.06-1.01-0.2-1.45-0.32-0.66-0.18-0.84-0.57-0.88-0.71-0.08-0.23-0.07-0.44 0.02-0.65 0.06-0.13 0.16-0.3 0.37-0.43-0.13-0.06-0.18-0.09-0.2-0.1-0.45-0.35-0.37-0.75-0.33-0.91 0.06-0.26 0.2-0.52 0.57-0.65 0.11-0.04 0.22-0.08 0.33-0.11z" fill="#c8a553" fill-rule="evenodd"/>
<path d="m18.2 79.14c-0.04-0.04-0.07-0.08-0.11-0.12-0.14-0.16-0.77-0.92-0.88-1.11-0.24-0.39-0.13-0.71-0.09-0.8 0.05-0.14 0.24-0.6 0.87-0.59 0.14 0 0.86 0.13 1.37 0.31 0.23 0.08 0.45 0.17 0.68 0.27-0.13-0.14-0.23-0.26-0.3-0.38-0.13-0.22-0.16-0.47-0.1-0.72 0.05-0.2 0.17-0.48 0.58-0.66 0.16-0.07 0.53-0.17 1.26-0.12 0.17 0.01 0.33 0.03 0.5 0.06-0.38-0.44-0.54-0.78-0.58-0.99-0.08-0.35 0.01-0.63 0.16-0.84 0.18-0.26 0.58-0.53 1.2-0.48 0.48 0.04 1.22 0.27 1.84 0.49-0.04-0.11-0.07-0.21-0.07-0.27 0.01-0.35 0.15-0.65 0.6-0.81 0.48-0.18 1.02-0.2 1.6-0.18 0.59 0.02 1.24 0.1 1.91-0.13 0.46-0.17 0.97 0.08 1.13 0.55 0.17 0.46-0.08 0.97-0.55 1.13-0.69 0.25-1.37 0.27-2 0.26 0.08 0.12 0.16 0.23 0.22 0.32 0.12 0.21 0.18 0.39 0.2 0.48 0.06 0.32-0.04 0.54-0.14 0.69-0.15 0.21-0.35 0.36-0.66 0.39-0.33 0.04-0.83-0.08-1.1-0.16-0.25-0.07-0.5-0.14-0.74-0.23-0.08-0.02-0.22-0.08-0.4-0.15 0.36 0.33 0.73 0.65 1.02 1.04 0.17 0.2 0.19 0.39 0.19 0.5 0.02 0.24-0.06 0.44-0.18 0.6-0.1 0.13-0.24 0.24-0.44 0.31-0.08 0.02-0.66-0.04-0.66-0.04s0.05 0.01 0.06 0.02c-0.15-0.04-0.31-0.08-0.46-0.12-0.24-0.07-0.47-0.15-0.71-0.21-0.23-0.07-0.48-0.14-0.73-0.2 0.25 0.24 0.5 0.49 0.69 0.73 0.47 0.59 0.67 1.17 0.62 1.61-0.06 0.41-0.28 0.63-0.58 0.74-0.13 0.05-0.28 0.08-0.46 0.05-0.1-0.01-0.25-0.06-0.33-0.09-0.23-0.09-0.45-0.18-0.67-0.28-0.25-0.11-0.48-0.24-0.73-0.35-0.1-0.05-0.21-0.11-0.32-0.16 0.36 0.48 0.67 1 0.79 1.61 0.07 0.32-0.01 0.57-0.14 0.74-0.12 0.17-0.3 0.33-0.62 0.38-0.08 0.01-0.2 0.02-0.36-0.01-0.13-0.03-0.39-0.11-0.9-0.34-0.11-0.06-0.24-0.11-0.37-0.18l0.01 0.01c0.34 0.36 0.31 0.92-0.05 1.26-0.35 0.34-0.92 0.32-1.26-0.04-0.35-0.38-0.7-0.75-1.05-1.12-0.16-0.18-0.33-0.37-0.48-0.56-0.16-0.18-0.31-0.37-0.46-0.55-0.03-0.04-0.26-0.24-0.32-0.32-0.15-0.18-0.21-0.36-0.23-0.5-0.04-0.25 0.02-0.46 0.14-0.65 0.11-0.16 0.29-0.34 0.64-0.4 0.58-0.1 1.26 0.04 1.95 0.31z" fill="#c8a553" fill-rule="evenodd"/>
<path d="m10.36 61.64c-0.01-0.05-0.03-0.1-0.03-0.14-0.13-0.6-0.11-0.59-0.21-1.2 0 0.04 0.03 0.15 0.03 0.15s0.04-1.03 0.46-1.23c0.26-0.12 0.69-0.15 1.19 0.09 0.31 0.15 0.71 0.44 1.09 0.75-0.02-0.09-0.04-0.19-0.06-0.29-0.02-0.15-0.04-0.31-0.07-0.46 0 0.01 0.01 0.06 0.01 0.06s-0.07-0.35-0.07-0.44c0.01-0.11 0.03-0.21 0.06-0.29 0.11-0.26 0.28-0.41 0.5-0.5 0.17-0.07 0.42-0.14 0.75 0.02 0.6 0.29 1.08 0.76 1.51 1.28-0.01-0.02-0.01-0.04-0.01-0.06-0.02-0.09-0.07-0.36-0.07-0.43 0.01-0.12 0.03-0.21 0.07-0.29 0.11-0.3 0.32-0.46 0.57-0.53 0.17-0.06 0.44-0.11 0.77 0.1 0.3 0.2 0.6 0.43 0.87 0.69 0.09-0.52 0.46-0.72 0.73-0.79 0.18-0.06 0.42-0.07 0.68 0.03 0.17 0.06 0.38 0.18 0.59 0.35 0.15-0.2 0.34-0.31 0.57-0.35 0.15-0.03 0.32-0.04 0.5 0.01 0.12 0.03 0.39 0.17 0.44 0.19 0.15 0.05 0.29 0.11 0.42 0.15 0.15 0.05 0.29 0.11 0.48 0.06 0.47-0.12 0.96 0.16 1.09 0.64 0.12 0.48-0.17 0.97-0.65 1.09-0.4 0.11-0.72 0.09-1.05 0.02 0.02 0.15 0.04 0.27 0.04 0.32 0.01 0.5-0.28 0.74-0.43 0.83-0.38 0.23-0.72 0.19-1.03-0.02-0.06-0.03-0.13-0.12-0.21-0.21l0.06 0.42c0.05 0.45-0.16 0.67-0.25 0.77-0.25 0.25-0.59 0.4-1.05 0.19-0.07-0.04-0.22-0.13-0.36-0.3-0.08-0.1-0.22-0.32-0.3-0.42-0.05-0.07-0.11-0.14-0.17-0.22 0.01 0.04 0.01 0.07 0.01 0.09 0.09 0.48 0.09 0.93-0.02 1.31-0.1 0.36-0.32 0.51-0.49 0.59-0.21 0.1-0.45 0.13-0.7 0.03-0.12-0.04-0.29-0.13-0.43-0.3-0.07-0.08-0.21-0.31-0.23-0.35-0.25-0.34-0.51-0.68-0.76-1.03 0.03 0.21 0.05 0.41 0.04 0.61 0 0.37-0.19 0.57-0.32 0.68-0.2 0.16-0.43 0.24-0.73 0.19-0.1-0.01-0.59-0.36-0.59-0.36s0.02 0.02 0.03 0.04c-0.09-0.09-0.18-0.18-0.28-0.27-0.13-0.13-0.25-0.27-0.38-0.4-0.1-0.09-0.39-0.37-0.73-0.67 0.14 0.58 0.29 1.33 0.3 1.91 0.01 0.73-0.26 1.27-0.6 1.51-0.19 0.13-0.48 0.26-0.9 0.08-0.06-0.03-0.17-0.09-0.31-0.22-0.05-0.05-0.14-0.15-0.26-0.31-0.07 0.18-0.19 0.34-0.37 0.45-0.42 0.26-0.97 0.13-1.23-0.29-0.64-1.03-1.06-2.1-1.34-3.28-0.18-0.75-0.16-0.96-0.15-1.01 0.06-0.36 0.24-0.5 0.35-0.58 0.22-0.17 0.46-0.22 0.71-0.17 0.28 0.05 0.74 0.33 1.19 0.82 0.24 0.26 0.49 0.57 0.73 0.89z" fill="#c8a553" fill-rule="evenodd"/>
<path d="m10.1 40.11c0.03-0.22 0.06-0.3 0.07-0.32 0.11-0.22 0.25-0.32 0.37-0.39 0.19-0.11 0.4-0.14 0.6-0.1 0.18 0.03 0.41 0.13 0.62 0.33 0.28 0.27 0.69 0.95 0.69 0.95 0.02 0.03 0.04 0.07 0.07 0.11 0-0.02 0-0.04-0.01-0.06-0.01-0.07-0.05-0.32-0.05-0.41 0.01-0.2 0.07-0.34 0.12-0.45 0.12-0.21 0.29-0.34 0.49-0.42 0.18-0.06 0.42-0.11 0.73 0.05 0.5 0.24 1 0.75 1.44 1.41-0.01-0.02-0.01-0.05-0.01-0.07 0.01-0.22 0.07-0.4 0.14-0.52 0.12-0.18 0.27-0.31 0.45-0.38s0.42-0.12 0.72 0.01c0.33 0.13 0.73 0.49 1.11 1.01 0.11 0.14 0.22 0.31 0.32 0.48 0.13-0.3 0.35-0.45 0.63-0.52 0.12-0.02 0.27-0.03 0.45 0.01 0.1 0.03 0.26 0.12 0.35 0.18 0.19 0.15 0.58 0.51 0.73 0.68 0.18 0.2 0.34 0.42 0.49 0.64 0.01-0.01 0.02-0.01 0.02-0.02 0.19-0.2 0.48-0.34 0.88-0.25 0.11 0.02 0.27 0.08 0.45 0.21 0.26 0.18 0.65 0.56 0.66 0.57 0.71 0.68 1.19 1.57 1.93 2.22 0.37 0.33 0.4 0.89 0.07 1.26-0.32 0.38-0.89 0.41-1.26 0.08-0.5-0.45-0.9-1-1.32-1.53-0.02 0.1-0.05 0.18-0.08 0.26-0.13 0.3-0.34 0.42-0.51 0.48-0.2 0.07-0.4 0.09-0.62 0.01-0.12-0.04-0.56-0.51-0.56-0.51s0.02 0.03 0.03 0.04c-0.07-0.09-0.14-0.18-0.2-0.28-0.03-0.05-0.06-0.08-0.08-0.13v0.01c-0.01 0.38-0.16 0.67-0.49 0.88-0.3 0.19-0.58 0.18-0.85 0.07-0.16-0.07-0.54-0.54-0.54-0.54s0.02 0.03 0.03 0.04c-0.18-0.29-0.37-0.57-0.55-0.86-0.09-0.16-0.24-0.43-0.42-0.75 0.01 0.11 0.02 0.23 0.03 0.34 0.01 0.22 0.01 0.44 0.02 0.66 0 0.13 0.03 0.45 0.02 0.56-0.01 0.12-0.04 0.22-0.06 0.28-0.15 0.36-0.41 0.49-0.62 0.54-0.17 0.05-0.35 0.05-0.55-0.03-0.1-0.04-0.31-0.13-0.48-0.44-0.29-0.54-0.64-1.42-1.06-2.3 0 0.09 0.01 0.18 0.01 0.26 0 0.63-0.07 1.06-0.08 1.14-0.25 0.98-1.27 0.61-1.39 0.53-0.08-0.06-0.29-0.27-0.5-0.64-0.18-0.3-0.43-0.76-0.68-1.24-0.04 0.29-0.17 0.43-0.23 0.5-0.15 0.16-0.32 0.24-0.49 0.28-0.1 0.01-0.21 0.03-0.32 0.01-0.11 0.25-0.32 0.46-0.61 0.53-0.48 0.13-0.97-0.16-1.09-0.64-0.19-0.71-0.45-1.41-0.55-2.14-0.05-0.41-0.04-0.42-0.06-0.73-0.01-0.1-0.05-0.37-0.05-0.44 0.01-0.12 0.04-0.21 0.08-0.29 0.13-0.32 0.37-0.47 0.64-0.53 0.17-0.03 0.45-0.07 0.77 0.19 0.04 0.03 0.09 0.08 0.14 0.12z" fill="#c8a553" fill-rule="evenodd"/>
<path d="m20.39 22.55c0.03-0.02 0.05-0.04 0.07-0.06 0.14-0.13 0.3-0.24 0.45-0.36 0.08-0.08 0.28-0.2 0.37-0.24 0.12-0.04 0.24-0.05 0.33-0.05 0.24 0.01 0.42 0.09 0.58 0.23 0.14 0.13 0.29 0.32 0.3 0.65 0.01 0.35-0.04 0.73-0.13 1.1 0.07-0.07 0.12-0.13 0.15-0.16 0.69-0.64 1.36 0.07 1.42 0.17 0.19 0.3 0.24 0.88 0.05 1.56-0.02 0.06-0.03 0.12-0.05 0.18 0.13-0.08 0.28-0.16 0.34-0.17 0.2-0.02 0.37 0.02 0.53 0.11s0.34 0.23 0.43 0.52c0.12 0.35 0.12 0.83 0.03 1.33-0.02 0.06-0.03 0.12-0.04 0.18 0.47-0.34 0.66-0.43 0.72-0.45 0.3-0.1 0.51-0.04 0.66 0.02 0.16 0.07 0.31 0.19 0.42 0.37 0.19 0.29 0.28 0.69 0.29 1.13 0 0.09-0.01 0.19-0.01 0.28 0.08-0.03 0.16-0.05 0.23-0.05 0.23-0.03 0.43 0.03 0.61 0.14 0.16 0.11 0.34 0.28 0.41 0.61 0.03 0.18 0.03 0.51-0.03 0.9-0.05 0.35-0.15 0.86-0.22 1.21 0.11 0.05 0.22 0.1 0.33 0.15 0.37 0.16 0.71 0.38 0.96 0.74 0.29 0.4 0.19 0.96-0.21 1.25-0.4 0.28-0.96 0.19-1.25-0.21-0.04-0.07-0.12-0.09-0.18-0.13-0.13-0.06-0.26-0.11-0.39-0.17-0.37-0.16-0.71-0.38-0.97-0.74-0.05-0.08-0.19-0.3-0.15-0.68v-0.01c-0.05 0.04-0.1 0.07-0.13 0.08-0.28 0.15-0.51 0.14-0.63 0.13-0.52-0.08-0.72-0.39-0.78-0.76-0.02-0.12-0.02-0.27 0.03-0.44 0.02-0.07 0.1-0.22 0.13-0.3 0.06-0.16 0.11-0.34 0.17-0.5 0.03-0.12 0.07-0.25 0.1-0.4-0.44 0.34-0.9 0.66-1.41 0.81-0.35 0.1-0.59 0-0.75-0.1-0.2-0.12-0.35-0.3-0.41-0.56-0.03-0.13-0.05-0.31 0.02-0.53 0.02-0.09 0.13-0.32 0.15-0.37 0.01-0.03 0.02-0.07 0.03-0.1-0.39 0.39-0.82 0.77-1.25 0.93-0.36 0.13-0.61 0.02-0.76-0.06-0.22-0.13-0.39-0.34-0.44-0.64-0.02-0.09-0.02-0.21 0-0.34 0.01-0.02 0.01-0.03 0.02-0.04-0.32 0.24-0.59 0.19-0.74 0.15-0.3-0.06-0.55-0.24-0.66-0.61-0.03-0.08-0.05-0.19-0.04-0.32 0.01-0.06 0.07-0.3 0.07-0.3s-0.01 0.01-0.01 0.02c0.07-0.22 0.13-0.44 0.21-0.65 0.12-0.36 0.25-0.72 0.38-1.08 0.01-0.04 0.03-0.09 0.04-0.13-0.5 0.53-1.03 1.05-1.63 1.46-0.28 0.2-0.51 0.18-0.61 0.17-0.22-0.02-0.39-0.11-0.52-0.23-0.17-0.15-0.34-0.39-0.29-0.78 0.01-0.07 0.03-0.16 0.07-0.27 0.04-0.07 0.18-0.28 0.22-0.37 0.15-0.29 0.29-0.57 0.44-0.86 0.28-0.6 0.61-1.23 0.87-1.86-0.61 0.55-1.19 1.15-1.8 1.68-0.38 0.33-0.94 0.29-1.27-0.08-0.32-0.37-0.28-0.94 0.09-1.26 0.94-0.83 1.81-1.77 2.81-2.53 0.1-0.07 0.72-0.54 1.06-0.63 0.47-0.12 0.81 0.05 1.03 0.3 0.17 0.19 0.29 0.47 0.31 0.79 0.03 0.37-0.07 0.82-0.11 1.02l-0.06 0.21z" fill="#c8a553" fill-rule="evenodd"/>
<path d="m35.51 10.05c0.05-0.02 0.09-0.04 0.12-0.05 0.39-0.12 0.67 0.01 0.84 0.15 0.15 0.11 0.26 0.27 0.32 0.49 0.02 0.1 0.08 0.32-0.07 0.63-0.17 0.33-0.35 0.65-0.55 0.96 0.35-0.24 0.62-0.38 0.68-0.4 0.37-0.1 0.62 0.04 0.75 0.14 0.2 0.13 0.33 0.32 0.37 0.59 0.04 0.21 0.02 0.48-0.07 0.76-0.1 0.37-0.34 0.79-0.44 1-0.04 0.09-0.09 0.18-0.14 0.27 0.03-0.02 0.05-0.04 0.08-0.06 0.67-0.52 1.18-0.83 1.29-0.86 0.56-0.17 0.86 0.15 1 0.35 0.23 0.32 0.27 0.68 0.18 1.05-0.09 0.32-0.38 0.68-0.54 0.98-0.1 0.18-0.2 0.37-0.31 0.55l0.09-0.06c0.06-0.04 0.19-0.15 0.24-0.17 0.11-0.06 0.21-0.08 0.28-0.09 0.49-0.08 0.77 0.16 0.93 0.47 0.07 0.12 0.2 0.38 0.03 0.78-0.2 0.46-0.45 0.91-0.74 1.35 0.03-0.01 0.05-0.02 0.08-0.04-0.01 0-0.02 0.01-0.02 0.01s0.31-0.19 0.4-0.21c0.14-0.04 0.25-0.04 0.35-0.03 0.27 0.03 0.48 0.16 0.62 0.34 0.11 0.14 0.25 0.37 0.18 0.73-0.13 0.71-0.41 1.38-0.75 2.01 0.26-0.03 0.45 0.03 0.58 0.1 0.23 0.11 0.4 0.29 0.5 0.55 0.05 0.15 0.08 0.36 0.05 0.6-0.02 0.2-0.1 0.47-0.16 0.73-0.05 0.21-0.16 0.5-0.24 0.7-0.2 0.44-0.42 0.88-0.67 1.3-0.26 0.42-0.81 0.55-1.24 0.29-0.41-0.26-0.55-0.81-0.29-1.23 0.12-0.19 0.22-0.38 0.32-0.57-0.11 0.05-0.23 0.1-0.36 0.16-0.02 0.02-0.34 0.15-0.52 0.17-0.29 0.04-0.52-0.05-0.67-0.15-0.05-0.04-0.64-0.49-0.28-1.18 0.05-0.09 0.24-0.42 0.46-0.77-0.01 0-0.02 0.01-0.02 0.02-0.48 0.37-0.98 0.66-1.44 0.77-0.38 0.09-0.61-0.05-0.75-0.15-0.21-0.15-0.36-0.38-0.37-0.69 0-0.09 0.01-0.18 0.04-0.3 0.02-0.08 0.22-0.4 0.22-0.4s-0.02 0.03-0.03 0.04l0.18-0.33c-0.11 0.05-0.21 0.07-0.31 0.08-0.36 0.04-0.71-0.07-0.94-0.51-0.17-0.3-0.17-0.61-0.05-0.93 0.07-0.17 0.26-0.36 0.36-0.53 0.19-0.33 0.41-0.64 0.62-0.96 0.1-0.16 0.2-0.32 0.31-0.48-0.04 0.03-0.07 0.06-0.11 0.09-0.12 0.09-0.7 0.61-1.1 0.78-0.29 0.13-0.55 0.14-0.75 0.1-0.22-0.04-0.37-0.14-0.48-0.24-0.16-0.16-0.26-0.36-0.28-0.59-0.01-0.14 0.01-0.32 0.09-0.51 0.04-0.09 0.19-0.3 0.23-0.35 0.14-0.26 0.27-0.52 0.43-0.78 0.14-0.23 0.28-0.46 0.43-0.69-0.33 0.26-0.67 0.51-1.01 0.73-0.52 0.32-0.86 0.26-0.99 0.23-0.42-0.11-0.66-0.38-0.7-0.84-0.01-0.13 0.01-0.35 0.13-0.59 0.02-0.05 0.06-0.11 0.1-0.18-0.27 0.02-0.45-0.08-0.57-0.16-0.22-0.16-0.37-0.39-0.38-0.72 0-0.08 0-0.18 0.04-0.3 0.03-0.07 0.22-0.39 0.22-0.39s-0.02 0.03-0.02 0.03c0.11-0.19 0.22-0.39 0.34-0.58 0.08-0.13 0.17-0.27 0.26-0.4-0.26 0.05-0.53-0.01-0.75-0.18-0.38-0.31-0.45-0.87-0.14-1.26 0.81-1 1.61-1.91 2.6-2.73 0.19-0.15 0.36-0.31 0.55-0.45 0.11-0.09 0.24-0.17 0.36-0.25-0.02 0.01-0.06 0.05-0.06 0.05s0.54-0.29 0.67-0.29c0.19 0 0.37 0.05 0.52 0.15 0.15 0.11 0.31 0.27 0.37 0.56 0.05 0.2 0.04 0.46-0.03 0.72-0.09 0.32-0.27 0.67-0.34 0.82-0.04 0.08-0.09 0.17-0.13 0.25z" fill="#c8a553" fill-rule="evenodd"/>
<path d="m62.22 27.55c-0.02-2.9 0.33-5.72 1.26-8.47 0.62-1.83 1.5-3.58 2.41-5.29 0.41-0.78 2.78-4.84 4.71-5.99 0.63-0.37 1.23-0.48 1.77-0.34 0.54 0.13 1.07 0.52 1.46 1.35 0.76 1.64 0.77 3.6 0.4 5.34-0.29 1.38-1.72 4.2-3.42 6.9-1.68 2.7-3.62 5.27-4.84 6.24-0.43 0.35-2.58 1.1-2.58 1.1-0.27 0.09-0.57 0.04-0.8-0.12-0.24-0.17-0.37-0.44-0.37-0.72zm1.8-1.26c0.37-0.15 0.71-0.29 0.84-0.4 1.12-0.89 2.88-3.3 4.44-5.79 1.55-2.48 2.92-5.05 3.18-6.31 0.29-1.38 0.33-2.93-0.27-4.23-0.08-0.18-0.15-0.31-0.26-0.36-0.12-0.06-0.23 0.03-0.37 0.11-0.23 0.12-0.47 0.31-0.71 0.53-1.52 1.42-3.09 4.19-3.4 4.79-0.86 1.62-1.7 3.28-2.29 5.02-0.74 2.17-1.08 4.38-1.16 6.64z" fill="#c8a553" fill-rule="evenodd"/>
<path d="m72.7 33.71c0.78-2.54 2.21-4.71 4.07-6.6 1.21-1.22 2.57-2.33 3.95-3.35 0.61-0.44 3.91-2.71 6.03-3.14 0.78-0.16 1.44-0.08 1.9 0.21 0.39 0.24 0.69 0.62 0.82 1.2 0.25 1.2-0.12 2.36-0.68 3.41-0.38 0.74-0.86 1.4-1.37 2.04-2.5 3.11-8.07 7.16-12.2 7.8-0.17 0.02-0.48 0-0.84-0.09-0.5-0.13-1.15-0.38-1.15-0.38-0.44-0.17-0.67-0.65-0.53-1.1zm2.33-0.21c3.75-0.62 8.73-4.32 10.99-7.14 0.44-0.55 0.86-1.12 1.19-1.75 0.36-0.69 0.67-1.43 0.51-2.21-0.03-0.11-0.15-0.08-0.27-0.08-0.32 0.02-0.71 0.13-1.12 0.29-1.84 0.68-4.08 2.25-4.55 2.59-1.3 0.96-2.6 2.01-3.73 3.17-1.45 1.47-2.62 3.12-3.35 5.02l0.33 0.11z" fill="#c8a553" fill-rule="evenodd"/>
<path d="m79.98 44.51c0.48-1.02 1.55-2.06 2.99-2.97 2-1.26 4.72-2.3 7.33-2.79 3.08-0.57 6-0.32 7.57 1.02 0.59 0.5 0.85 1.03 0.92 1.54 0.06 0.5-0.06 1-0.35 1.48-0.32 0.53-0.88 1.05-1.55 1.51-1.43 0.97-3.37 1.69-4.08 1.87-1.48 0.38-2.99 0.63-4.53 0.63-2.18 0.01-4.57 0.09-6.73-0.26-0.14-0.02-0.34-0.1-0.56-0.25-0.35-0.24-0.86-0.79-0.86-0.79-0.25-0.27-0.32-0.66-0.16-0.99h0.01zm2 0.29c2.04 0.31 4.26 0.22 6.3 0.22 1.39-0.01 2.75-0.24 4.09-0.58 0.73-0.19 2.96-1.03 4.13-2.11 0.28-0.25 0.54-0.49 0.51-0.77 0-0.15-0.12-0.28-0.3-0.43-0.46-0.39-1.08-0.62-1.8-0.75-1.24-0.24-2.74-0.16-4.29 0.13-2.38 0.45-4.87 1.39-6.69 2.54-0.85 0.53-1.56 1.1-2.01 1.69l0.06 0.06z" fill="#c8a553" fill-rule="evenodd"/>
<path d="m79.44 57.52c4.78-2.17 9.65-0.43 14.22 1.21 0.89 0.33 2.18 0.77 3.22 1.42 0.82 0.52 1.49 1.17 1.81 1.94 0.47 1.14 0.3 1.95-0.1 2.51-0.39 0.53-1.08 0.88-1.96 1.02-1.97 0.31-5.05-0.43-5.9-0.71-1.5-0.49-2.99-1-4.46-1.56-2.24-0.85-4.55-1.79-6.48-3.25-0.1-0.08-0.23-0.22-0.35-0.42-0.22-0.36-0.48-1.04-0.48-1.04-0.16-0.44 0.05-0.93 0.48-1.12zm1.61 1.28c1.75 1.28 3.84 2.11 5.85 2.88 1.45 0.55 2.91 1.05 4.39 1.53 0.73 0.24 3.37 0.9 5.06 0.64 0.34-0.05 0.64-0.1 0.79-0.31 0.13-0.17 0.04-0.41-0.11-0.76-0.18-0.46-0.62-0.81-1.11-1.11-0.92-0.58-2.08-0.97-2.87-1.25-3.86-1.39-7.95-3-12-1.62z" fill="#c8a553" fill-rule="evenodd"/>
<path d="m73.94 69.09c1.37-0.11 2.84-0.03 4.16 0.4 2.3 0.75 5.95 2.7 8.6 5.14 1.88 1.74 3.22 3.73 3.4 5.69 0.3 3.32-3.11 4.27-5.68 3.31-1.47-0.54-2.75-1.43-3.89-2.48-1.2-1.08-2.22-2.31-3.24-3.55-1.57-1.9-3.35-3.89-4.34-6.19-0.06-0.14-0.11-0.36-0.08-0.64 0.05-0.41 0.3-1.11 0.3-1.11 0.12-0.32 0.42-0.55 0.77-0.57zm0.73 1.8c0.95 2.06 2.58 3.84 4 5.57 0.97 1.17 1.93 2.34 3.06 3.36 0.98 0.89 2.06 1.67 3.31 2.14 1.41 0.52 3.44 0.33 3.28-1.48-0.14-1.58-1.32-3.13-2.83-4.53-2.44-2.25-5.82-4.07-7.94-4.76-0.91-0.29-1.9-0.38-2.86-0.35l-0.02 0.05z" fill="#c8a553" fill-rule="evenodd"/>
<path d="m64.48 76.49c2.3 1.39 6.25 5.68 8.59 10 1.65 3.06 2.44 6.14 1.57 8.3-1.12 2.82-4.25 2.6-6.14 0.79-2.19-2.08-3.04-5.69-3.71-8.51-0.63-2.64-1.22-5.36-1.53-8.06-0.05-0.34-0.13-1.69-0.13-1.69-0.03-0.33 0.14-0.66 0.42-0.83 0.29-0.17 0.65-0.17 0.93 0zm0.6 2.69c0.32 2.5 0.87 5.03 1.45 7.47 0.6 2.52 1.26 5.78 3.21 7.64 0.99 0.95 2.65 1.31 3.24-0.16 0.33-0.84 0.3-1.84 0.05-2.94-0.27-1.22-0.83-2.53-1.54-3.85-1.71-3.16-4.33-6.33-6.41-8.16z" fill="#c8a553" fill-rule="evenodd"/>
<path d="m53.75 79.53c1.65 2.77 3.05 6.01 3.25 9.28 0.12 1.82 0.13 3.89-0.2 5.69-0.22 1.16-0.71 3.56-1.7 5.15-0.85 1.34-2.04 2.12-3.56 1.74-1.02-0.26-1.82-0.91-2.38-1.78-0.36-0.56-0.62-1.18-0.83-1.81-0.97-2.88-0.45-6.47 0.29-9.33 0.72-2.82 1.46-5.5 2.58-8.18 0.05-0.13 0.18-0.32 0.39-0.49 0.32-0.27 0.99-0.62 0.99-0.62 0.42-0.21 0.93-0.05 1.17 0.35zm-1.04 1.78c-1 2.48-1.69 4.99-2.36 7.6-0.65 2.56-1.18 5.75-0.33 8.32 0.17 0.49 0.37 0.98 0.65 1.42 0.31 0.48 0.74 0.86 1.3 1 0.72 0.18 1.21-0.32 1.61-0.96 0.87-1.38 1.27-3.5 1.46-4.52 0.31-1.66 0.29-3.56 0.18-5.25-0.17-2.65-1.22-5.28-2.51-7.61z" fill="#c8a553" fill-rule="evenodd"/>
<path d="m41.98 77.61c-0.18 2.68-0.67 5.36-1.41 7.94-0.49 1.71-1.13 3.44-1.92 5.03-0.45 0.9-2.33 4.18-4.16 5.36-1.12 0.72-2.23 0.79-3.18-0.11-1-0.95-1.18-2.47-1.12-3.77 0.05-1 0.23-1.99 0.44-2.96 1.07-4.81 4.17-10.3 8.85-12.51 0.13-0.05 0.35-0.11 0.62-0.11 0.44 0.02 1.2 0.2 1.2 0.2 0.42 0.1 0.71 0.49 0.68 0.93zm-1.88 0.67c-4.12 2.03-6.77 6.94-7.72 11.21-0.19 0.87-0.36 1.75-0.4 2.65-0.04 0.81-0.06 1.8 0.56 2.4 0.22 0.2 0.47 0.16 0.72 0.04 0.5-0.24 1.01-0.74 1.5-1.3 1.09-1.28 2-2.93 2.28-3.5 0.75-1.49 1.35-3.12 1.81-4.72 0.64-2.21 1.07-4.49 1.28-6.77l-0.03-0.01z" fill="#c8a553" fill-rule="evenodd"/>
<path d="m31.35 71.08c-1.17 2.77-2.68 4.94-4.66 7.2-1.83 2.08-4.97 4.81-7.88 5.29-2.48 0.4-4.87-1.52-3.97-4.24 0.5-1.52 1.71-2.99 2.88-4.06 1.38-1.25 2.92-2.16 4.52-3.09 2.29-1.34 4.69-2.07 7.19-2.84 0.19-0.05 0.48-0.07 0.8 0.08 0.35 0.17 0.9 0.66 0.9 0.66 0.27 0.25 0.36 0.65 0.22 1zm-2.04 0.17c-2.14 0.66-4.2 1.32-6.17 2.47-1.49 0.87-2.93 1.71-4.21 2.88-0.96 0.87-1.98 2.05-2.39 3.3-0.43 1.28 0.81 2.09 1.99 1.9 2.53-0.41 5.22-2.89 6.81-4.7 1.64-1.86 2.94-3.66 3.97-5.85z" fill="#c8a553" fill-rule="evenodd"/>
<path d="m26.06 59.36c-2.1 1.77-4.33 3.37-6.82 4.56-2.11 1.01-4.51 2.04-6.87 2.27-1.47 0.14-3.17-0.2-4.38-0.92-0.94-0.56-1.6-1.35-1.81-2.28-0.21-0.96 0.05-2.15 1.21-3.46 1.37-1.53 3.61-2.47 6.13-2.94 3.58-0.66 7.72-0.42 10.43 0.04 0.2 0.03 0.54 0.18 0.9 0.42 0.55 0.37 1.22 0.95 1.22 0.95 0.2 0.17 0.31 0.42 0.31 0.68 0 0.27-0.12 0.51-0.32 0.68zm-2.47-0.98c-2.55-0.42-6.41-0.64-9.74-0.02-2.1 0.38-3.99 1.09-5.12 2.36-0.65 0.73-0.92 1.35-0.8 1.89 0.1 0.48 0.49 0.84 0.97 1.12 0.91 0.54 2.19 0.78 3.3 0.68 2.16-0.21 4.33-1.18 6.27-2.1 2.01-0.97 3.83-2.22 5.56-3.6l-0.44-0.33z" fill="#c8a553" fill-rule="evenodd"/>
<path d="m26 46.61c-2.4 0.97-5.17 1.1-7.73 0.94-1.61-0.1-3.27-0.5-4.8-1.01-2.17-0.72-4.58-1.52-6.16-3.28-0.82-0.91-0.99-1.78-0.82-2.53 0.14-0.68 0.6-1.3 1.25-1.77 0.82-0.6 1.97-0.97 2.98-1.02 2.38-0.11 6.42 0.82 9.85 2.31 2.35 1.02 4.4 2.32 5.5 3.69 0.1 0.12 0.23 0.39 0.31 0.72 0.1 0.43 0.17 1.02 0.17 1.02 0.05 0.39-0.18 0.78-0.55 0.93zm-1.39-1.63c-0.98-1.16-2.76-2.22-4.75-3.08-3.16-1.38-6.87-2.27-9.07-2.17-0.64 0.02-1.37 0.25-1.92 0.62-0.31 0.21-0.57 0.45-0.64 0.76-0.06 0.29 0.09 0.6 0.41 0.95 1.37 1.53 3.51 2.15 5.4 2.78 1.38 0.47 2.88 0.83 4.34 0.92 2.07 0.14 4.28 0.08 6.27-0.56l-0.04-0.22z" fill="#c8a553" fill-rule="evenodd"/>
<path d="m31.21 34.81c-3.28 0.37-8.65-1.65-12.35-4.76-2.57-2.17-4.3-4.86-4.18-7.57 0.05-1.06 0.56-1.91 1.47-2.45 1.59-0.93 3.19-0.81 4.68-0.15 1.33 0.57 2.57 1.59 3.59 2.55 1.16 1.09 2.15 2.3 3.13 3.55 1.6 2.02 3.27 4.31 4.38 6.66 0.05 0.1 0.1 0.27 0.11 0.49 0.02 0.33-0.05 0.9-0.05 0.9-0.05 0.41-0.37 0.74-0.79 0.78h0.01zm-1.06-1.74c-1.05-2.1-2.56-4.16-4-5.98-0.93-1.18-1.86-2.33-2.96-3.36-0.88-0.82-1.93-1.71-3.07-2.21-0.98-0.43-2.02-0.55-3.06 0.05-0.37 0.22-0.57 0.56-0.59 0.99-0.1 2.22 1.45 4.35 3.54 6.12 3 2.53 7.2 4.32 10.14 4.39z" fill="#c8a553" fill-rule="evenodd"/>
<path d="m40.06 26.98c-3-1.28-6.58-5.05-8.5-9.15-1.32-2.82-1.85-5.79-1-8.2 0.39-1.13 1.04-1.88 2.16-2.31 1.57-0.62 3.01-0.19 4.25 0.76 1.59 1.23 2.82 3.39 3.54 4.83 0.83 1.69 1.47 3.46 1.87 5.3 0.59 2.69 0.38 4.99-0.44 7.58-0.04 0.12-0.13 0.28-0.28 0.46-0.23 0.25-0.72 0.62-0.72 0.62-0.25 0.19-0.59 0.23-0.88 0.11zm0.22-1.89c0.68-2.21 0.86-4.18 0.35-6.5-0.37-1.69-0.96-3.32-1.73-4.88-0.52-1.06-1.34-2.56-2.41-3.65-0.87-0.9-1.91-1.55-3.12-1.08-0.59 0.23-0.92 0.64-1.13 1.24-0.7 2.02-0.17 4.49 0.94 6.85 1.62 3.46 4.51 6.7 7.09 8.03l0.01-0.01z" fill="#c8a553" fill-rule="evenodd"/>
</g>
</svg>
