<?xml version="1.0" encoding="UTF-8"?>
<svg version="1.1" viewBox="0 0 110 110" xmlns="http://www.w3.org/2000/svg">
<g class="layer">
<title>Layer 1</title>
<path d="m37.77 39.4c14.3-16.35 36.47-7.45 41.27 6.23 1.08 3.08 0.88 6.88-0.12 10.67-1.48 5.57-4.66 11.14-7.75 14.37-4.76 4.98-10.26 6.36-16.97 5.49-3.65-0.48-7.25-1.15-10.51-2.98-12.11-6.79-13.66-23.14-5.98-33.71 0.02-0.02 0.03-0.04 0.05-0.07h0.01zm1.37 1.16c-7.05 9.74-5.71 24.8 5.43 31.06 3.06 1.71 6.44 2.31 9.87 2.75 6.09 0.8 11.1-0.41 15.43-4.94 2.93-3.06 5.92-8.33 7.31-13.59 0.91-3.42 1.14-6.84 0.17-9.62-4.44-12.65-24.96-20.76-38.21-5.66z" fill="#c8a553" fill-rule="evenodd"/>
<path d="m54.95 5.71c0.01-0.5 0.42-0.89 0.92-0.88 0.49 0.02 0.88 0.43 0.87 0.92-0.18 7.29-0.02 14.59 0.38 21.87 0.03 0.5-0.35 0.92-0.84 0.95-0.5 0.03-0.92-0.35-0.95-0.85-0.4-7.33-0.56-14.67-0.38-22.01z" fill="#c8a553" fill-rule="evenodd"/>
<path d="m71.87 32.86c-0.28 0.42-0.84 0.52-1.25 0.24-0.41-0.29-0.51-0.84-0.23-1.25 3.78-5.5 7.8-10.8 12.13-15.88 0.32-0.37 0.89-0.42 1.27-0.1 0.37 0.32 0.42 0.89 0.1 1.27-4.29 5.03-8.27 10.28-12.02 15.73v-0.01z" fill="#c8a553" fill-rule="evenodd"/>
<path d="m82.38 46.78c-0.46 0.2-0.99 0-1.19-0.45-0.21-0.46 0-0.99 0.45-1.19 5.87-2.64 11.59-4.33 17.86-5.55 0.49-0.1 0.96 0.22 1.06 0.7 0.09 0.49-0.23 0.97-0.71 1.06-6.13 1.19-11.74 2.85-17.47 5.43z" fill="#c8a553" fill-rule="evenodd"/>
<path d="m82.36 64.48c-0.49-0.13-0.77-0.62-0.64-1.1s0.62-0.77 1.1-0.64c5.67 1.54 11.52 3.19 16.81 5.81 0.44 0.22 0.62 0.76 0.41 1.21-0.23 0.44-0.77 0.62-1.21 0.4-5.18-2.57-10.92-4.17-16.48-5.68h0.01z" fill="#c8a553" fill-rule="evenodd"/>
<path d="m71.64 78.83c-0.29-0.41-0.2-0.97 0.21-1.26 0.4-0.29 0.96-0.2 1.25 0.21 3.49 4.84 6.97 9.52 9.79 14.79 0.23 0.44 0.07 0.98-0.37 1.21-0.44 0.24-0.99 0.07-1.22-0.36-2.78-5.2-6.22-9.82-9.66-14.59z" fill="#c8a553" fill-rule="evenodd"/>
<path d="m55.26 82.63c-0.01-0.5 0.38-0.91 0.88-0.92s0.9 0.38 0.91 0.88c0.16 6.79 0.74 13.76-0.45 20.5-0.09 0.49-0.56 0.81-1.05 0.73-0.48-0.09-0.81-0.56-0.72-1.05 1.17-6.62 0.58-13.47 0.43-20.14z" fill="#c8a553" fill-rule="evenodd"/>
<path d="m38.82 78.57c0.23-0.44 0.77-0.62 1.21-0.39s0.61 0.77 0.38 1.21c-2.7 5.22-5.97 10.15-9.71 14.69-0.31 0.38-0.88 0.44-1.26 0.13-0.38-0.32-0.44-0.89-0.12-1.27 3.65-4.44 6.86-9.27 9.5-14.37z" fill="#c8a553" fill-rule="evenodd"/>
<path d="m28.27 63.5c0.44-0.22 0.98-0.05 1.21 0.4s0.05 0.98-0.39 1.21c-5.06 2.58-10.61 4.55-16.15 5.89-0.48 0.12-0.96-0.17-1.08-0.66-0.11-0.48 0.18-0.96 0.66-1.08 5.4-1.31 10.81-3.24 15.75-5.76z" fill="#c8a553" fill-rule="evenodd"/>
<path d="m28.82 44.9c0.46 0.18 0.7 0.7 0.52 1.16-0.18 0.47-0.7 0.7-1.16 0.52-5.16-1.97-10.25-4.11-15.42-6.04-0.46-0.18-0.7-0.69-0.53-1.16 0.18-0.46 0.7-0.7 1.16-0.52 5.17 1.93 10.27 4.08 15.43 6.04z" fill="#c8a553" fill-rule="evenodd"/>
<path d="m39.55 29.44c0.29 0.41 0.19 0.96-0.22 1.25-0.4 0.28-0.97 0.18-1.25-0.22-3.32-4.76-6.17-9.78-9.34-14.63-0.28-0.41-0.16-0.97 0.26-1.24 0.41-0.27 0.97-0.16 1.24 0.26 3.16 4.83 6.01 9.83 9.31 14.58z" fill="#c8a553" fill-rule="evenodd"/>
<path d="m47.35 34.84c1.56-1.23 3.31-2.13 5.27-2.53 4.34-0.87 9.4 0.25 13.86 2.66 1.18 0.58 2.23 1.26 3.16 2.01 0.62 0.46 1.22 0.94 1.8 1.45 5.36 4.74 8.44 11.49 5.78 18.19-3.8 9.61-14.14 18.66-24.93 17.5-2.57-0.27-5.06-1.12-7.33-2.39-0.04 0.02-0.08 0.03-0.12 0.05-0.13 0.04-0.33 0.07-0.57-0.02-1.97-0.7-3.81-1.75-5.72-2.62-0.31-0.15-0.52-0.47-0.52-0.82v-2.63c-0.39-0.52-0.75-1.05-1.09-1.59-3.37-5.39-4.25-12.08-0.74-17.99 2.56-4.29 6.01-8.26 9.86-11.42 0.38-0.31 0.95-0.26 1.27 0.13l0.02 0.02zm-9.32 27.58v-8.98c-0.15-0.22-0.21-0.49-0.13-0.77l0.97-3.46c0.76-2.72 1.97-5.83 3.65-8.64-1.8 2-3.42 4.19-4.77 6.46-3 5.03-2.38 10.7 0.28 15.39zm36.91-16.68c1.64 7.52-1.63 16.51-8.06 21.73-0.12 0.09-0.24 0.18-0.36 0.28-0.12 0.13-0.25 0.26-0.38 0.38 4.21-3.12 7.6-7.6 9.41-12.17 1.4-3.53 0.96-7.06-0.61-10.23v0.01zm-35.15 6.84c0.04 0.14 0.06 0.31 0.04 0.5v1.63c0.03-1.16 0.14-2.33 0.34-3.48l-0.38 1.35zm3.62-9.95c2.48-4.05 6.09-7.25 10.36-8.69-0.27 0.04-0.53 0.09-0.79 0.14-2.64 0.53-4.84 2.14-6.65 4.23-1.12 1.29-2.09 2.77-2.92 4.32zm-0.1 25.87c0.02-0.01 0.05-0.02 0.06-0.03 0.24-0.1 0.55-0.12 0.91 0.01 0.24 0.09 0.54 0.29 0.85 0.52 0.27 0.2 0.55 0.45 0.78 0.56-0.54-0.5-1.04-1.04-1.52-1.6-3.07-3.59-4.47-7.94-4.56-12.33v9.44c1.02 1.27 2.19 2.43 3.48 3.43zm7.24 2.1c0.27 0.03 0.54 0.04 0.81 0.06 0.88 0.04 1.79 0.01 2.72-0.08-0.5-0.09-1.01-0.22-1.52-0.38-1.97-0.6-3.84-1.6-5.38-2.98-0.05 0.03-0.11 0.06-0.16 0.09-0.44 0.18-0.94-0.01-1.15-0.43l-1.62-3.21c-0.49-0.96-0.91-1.94-1.26-2.92-0.44-0.73-0.8-1.5-1.1-2.29 0.51 2.98 1.75 5.86 3.87 8.34 1.33 1.56 2.95 2.93 4.79 3.8zm13.4-34.75c0.64 0.4 1.28 0.85 1.92 1.39 1.33 1.11 2.43 2.53 3.3 4.16 0.18 0.16 0.36 0.34 0.54 0.52 3.53 3.73 4.27 9.01 2.96 13.61-0.42 1.47-1.06 2.88-1.88 4.14-0.06 0.23-0.12 0.46-0.19 0.7 4.25-7.26 4.34-16.82-2.15-22.03-0.83-0.62-1.71-1.17-2.62-1.68-0.55-0.28-1.14-0.54-1.77-0.76-0.03-0.02-0.07-0.03-0.11-0.05zm-11.79 1.65c0.39-0.05 0.79-0.09 1.21-0.11 0.23-0.02 0.47-0.04 0.71-0.06 1.57-0.1 3.12 0.03 4.61 0.4 1.48-0.06 2.97 0.09 4.45 0.51 0.62 0.17 1.25 0.38 1.86 0.62-0.09-0.08-0.19-0.17-0.29-0.25-4.32-3.61-8.83-3.37-12.55-1.11zm13.17 26.88c-0.21 0.09-0.42 0.18-0.64 0.25-0.08 0.03-0.17 0.06-0.25 0.09-1.86 1.59-4.24 2.74-7.11 3.15-2.86 0.4-5.3-0.11-7.3-1.26-0.59-0.23-1.15-0.48-1.68-0.76 1.35 1.22 3 2.1 4.74 2.64 3.84 1.18 7.42 0.29 10.51-2.34 0.63-0.55 1.21-1.14 1.73-1.77zm-1.17-23.92c2.51 1.99 4.3 4.64 5.34 7.55-0.34-1.96-0.92-3.83-1.76-5.48-1.05-0.9-2.28-1.57-3.58-2.07zm-16.39 1.05c-0.43 0.55-0.84 1.13-1.22 1.74-0.25 0.53-0.44 1.1-0.57 1.7 1.34-2.26 3.27-4.19 5.81-5.43-1.52 0.4-2.87 1.09-4.02 1.99zm3.44 23.61c-0.13-0.08-0.27-0.17-0.4-0.27-0.11-0.03-0.22-0.07-0.32-0.1 0.15 0.1 0.31 0.19 0.47 0.28 0.08 0.03 0.17 0.07 0.25 0.09zm6.54-25.52c-1.57 0.19-3.12 0.63-4.61 1.27-2.07 0.89-3.7 2.26-4.91 3.93 2.36-1.97 5.51-3.23 9.29-3.19 2.68 0.04 4.9 0.71 6.66 1.82-1.54-1.81-3.67-3.19-6.43-3.83zm-4.81 4.55c1.64-0.1 3.42 0.09 5.26 0.64 2.26 0.2 4.45 0.96 6.21 2.2 0.39 0.16 0.77 0.36 1.14 0.59 0.18 0.1 0.36 0.22 0.53 0.33-1.59-2.61-4.43-4.45-8.59-4.5-1.65-0.02-3.18 0.25-4.55 0.74zm-6.08 15.61c-0.17-0.75-0.22-1.58-0.11-2.47 0.03-0.28 0.09-0.55 0.16-0.82-0.57-0.89-1.05-1.81-1.46-2.73-0.01 0.83 0.05 1.67 0.17 2.48 0.15 1.06 0.41 2.09 0.76 3.05 0.15 0.17 0.32 0.33 0.48 0.49zm1.04-12.15c-0.71 0.82-1.29 1.72-1.74 2.66 0.14 0.6 0.33 1.21 0.55 1.81 0.02-0.11 0.05-0.22 0.08-0.33 0.7-2.52 2.24-4.33 4.19-5.48-1.14 0.29-2.18 0.75-3.08 1.34zm0.45 5.44c0.61-1.01 1.4-1.97 2.31-2.83 1.83-1.74 4.18-3.07 6.66-3.69h-0.14c-3.76-0.06-7.54 1.67-8.65 5.7-0.08 0.29-0.14 0.56-0.18 0.82zm3.18 9.62c0.03 0.01 0.07 0.02 0.1 0.03-0.2-0.09-0.4-0.19-0.59-0.3 0.16 0.09 0.32 0.18 0.49 0.27zm14.73-7.13c-0.03-0.07-0.06-0.14-0.09-0.22-0.02 0.24-0.05 0.48-0.1 0.72 0.03-0.01 0.06-0.02 0.09-0.02 0.04-0.16 0.07-0.32 0.1-0.48zm-10.65-5.59c0.55-0.09 1.09-0.12 1.61-0.12 0.76 0 1.49 0.09 2.15 0.26 0.3-0.03 0.59-0.05 0.88-0.06 0.46-0.02 0.91-0.01 1.36 0.04-1.9-1.12-4.06-0.97-6-0.12zm6.29 10.16c0.28-0.28 0.54-0.58 0.78-0.89 0.09-0.16 0.17-0.32 0.23-0.5-0.01 0-0.02 0-0.03 0.01-2.28 0.5-7.87 1.17-11.77 0.07 1.18 1.15 2.53 2.17 4.06 2.99 1.76 0.15 3.67-0.12 5.2-0.77 0.58-0.24 1.1-0.54 1.53-0.91zm2.1-7.41c-0.53-0.33-1.11-0.55-1.72-0.7 0.44 0.63 0.73 1.41 0.83 2.34 0.49 0.34 0.9 0.77 1.2 1.29 0.16-1 0.08-2-0.31-2.93zm-12.79 0.88c-0.07 0.1-0.14 0.2-0.2 0.3-0.31 0.48-0.57 0.98-0.76 1.48 0.44-0.63 0.93-1.21 1.48-1.74 0.4-0.38 0.83-0.73 1.3-1.07-0.64 0.29-1.26 0.63-1.82 1.03zm11.7 3.29c-0.04-0.11-0.09-0.22-0.15-0.32-0.07 0.15-0.15 0.28-0.24 0.42 0.1-0.03 0.24-0.06 0.39-0.1zm-10.23 0.46c-0.19-0.34-0.31-0.72-0.34-1.14-0.02-0.24 0.02-0.49 0.11-0.73-0.41 0.47-0.79 0.98-1.13 1.53 0.43 0.14 0.89 0.25 1.36 0.34zm6.51-5.4c-1.8 0.27-3.6 1.02-5.05 2.03 0.29-0.13 0.6-0.24 0.94-0.35 1.69-0.51 4-0.67 5.91-0.19-0.37-0.73-1.01-1.22-1.8-1.49zm2.09 3.46c-0.09-0.04-0.18-0.07-0.28-0.11-1.25-0.42-2.79-0.44-4.13-0.23-0.87 0.13-1.66 0.36-2.23 0.67-0.17 0.09-0.32 0.19-0.42 0.29-0.03 0.03-0.07 0.07-0.08 0.1 0.04 0.34 0.29 0.59 0.61 0.79 0.49 0.31 1.16 0.48 1.88 0.53 1.13 0.1 2.39-0.1 3.36-0.6 0.62-0.34 1.12-0.81 1.29-1.44z" fill="#c8a553" fill-rule="evenodd"/>
</g>
</svg>
