<?xml version="1.0" encoding="UTF-8"?>
<svg data-name="Layer 1" viewBox="0 0 100 80" xmlns="http://www.w3.org/2000/svg">
<title>144all</title>
<g class="layer">
<title>Layer 1</title>
<path d="m89.84 64.37a17.31 17.31 0 0 1-3.29-3.19c-2.32-2.69-4.95-5.69-10.21-5.69s-7.89 3-10.21 5.69c-2.1 2.41-3.76 4.31-7.19 4.31s-5.1-1.9-7.2-4.31c-2.32-2.69-4.95-5.69-10.21-5.69s-7.89 3-10.21 5.69c-2.09 2.41-3.75 4.31-7.19 4.31s-5.09-1.9-7.19-4.31a17.14 17.14 0 0 0-5.33-4.61 2 2 0 0 0-1.76 3.59 13.91 13.91 0 0 1 4.07 3.64c2.33 2.69 4.96 5.69 10.21 5.69s7.89-3 10.21-5.69c2.1-2.41 3.76-4.31 7.19-4.31s5.09 1.9 7.19 4.31c2.32 2.69 4.95 5.69 10.22 5.69s7.89-3 10.21-5.69c2.09-2.41 3.75-4.31 7.19-4.31s5.1 1.9 7.19 4.31a20.53 20.53 0 0 0 4.11 3.91 2 2 0 1 0 2.2-3.34z" fill="#e5bc9e"/>
<path d="m89.84 49.37a17.34 17.34 0 0 1-3.29-3.19c-2.32-2.69-4.95-5.69-10.21-5.69s-7.89 3-10.21 5.69c-2.1 2.41-3.76 4.31-7.2 4.31s-5.09-1.9-7.19-4.31c-2.32-2.69-4.95-5.69-10.21-5.69s-7.89 3-10.21 5.69c-2.09 2.41-3.75 4.31-7.19 4.31s-5.09-1.9-7.19-4.31a17.14 17.14 0 0 0-5.33-4.61 2 2 0 0 0-1.76 3.59 13.91 13.91 0 0 1 4.07 3.64c2.33 2.69 4.96 5.69 10.21 5.69s7.89-3 10.21-5.69c2.1-2.41 3.75-4.31 7.19-4.31s5.1 1.9 7.19 4.31c2.32 2.69 4.95 5.69 10.21 5.69s7.89-3 10.21-5.69c2.1-2.41 3.76-4.31 7.2-4.31s5.1 1.9 7.19 4.31a20.52 20.52 0 0 0 4.11 3.91 2 2 0 1 0 2.2-3.34z" fill="#e5bc9e"/>
<path d="m89.84 33.37a17.31 17.31 0 0 1-3.29-3.19c-2.32-2.69-4.95-5.69-10.21-5.69s-7.89 3-10.21 5.69c-2.1 2.41-3.76 4.31-7.19 4.31s-5.1-1.9-7.2-4.31c-2.32-2.69-4.95-5.69-10.21-5.69s-7.89 3-10.21 5.69c-2.09 2.41-3.75 4.31-7.19 4.31s-5.09-1.9-7.19-4.31a17.14 17.14 0 0 0-5.33-4.61 2 2 0 0 0-1.76 3.59 13.91 13.91 0 0 1 4.07 3.64c2.33 2.69 4.96 5.69 10.21 5.69s7.89-3 10.21-5.69c2.1-2.41 3.76-4.31 7.19-4.31s5.09 1.9 7.19 4.31c2.32 2.69 4.95 5.69 10.22 5.69s7.89-3 10.21-5.69c2.09-2.41 3.75-4.31 7.19-4.31s5.1 1.9 7.19 4.31a20.53 20.53 0 0 0 4.11 3.91 2 2 0 1 0 2.2-3.34z" fill="#e5bc9e"/>
<path d="m89.84 18.37a17.34 17.34 0 0 1-3.29-3.19c-2.32-2.69-4.95-5.69-10.21-5.69s-7.89 3-10.21 5.69c-2.1 2.41-3.76 4.31-7.2 4.31s-5.09-1.9-7.19-4.31c-2.32-2.69-4.95-5.69-10.21-5.69s-7.89 3-10.21 5.69c-2.09 2.41-3.75 4.31-7.19 4.31s-5.09-1.9-7.19-4.31a17.14 17.14 0 0 0-5.33-4.61 2 2 0 0 0-1.76 3.59 13.91 13.91 0 0 1 4.07 3.64c2.33 2.69 4.96 5.69 10.21 5.69s7.89-3 10.21-5.69c2.1-2.41 3.75-4.31 7.19-4.31s5.1 1.9 7.19 4.31c2.32 2.69 4.95 5.69 10.21 5.69s7.89-3 10.21-5.69c2.1-2.41 3.76-4.31 7.2-4.31s5.1 1.9 7.19 4.31a20.52 20.52 0 0 0 4.11 3.91 2 2 0 1 0 2.2-3.34z" fill="#e5bc9e"/>
</g>
</svg>
