<?xml version="1.0" encoding="UTF-8"?>
<svg viewBox="0 0 96 96" xmlns="http://www.w3.org/2000/svg">
<g class="layer">
<title>Layer 1</title>
<path d="m90.47 36.38-3.87-4.7a6.47 6.47 0 0 0-4-2.25v-6.49a5.6 5.6 0 0 0-5.58-5.59h-2.26v-10.28h5.55a3.57 3.57 0 0 0 0-7.14h-20.6l-5.36 1.4a3 3 0 0 0-2.15 3.82l0.08 0.28a3 3 0 0 0 3.32 2.17c5.28-0.7 2.19-0.53 12.49-0.53v10.28h-2.29a5.59 5.59 0 0 0-5.58 5.59v6.56a6.51 6.51 0 0 0-3.54 2.18l-3.87 4.7a24.2 24.2 0 0 0-5.53 15.39v9.93a8.87 8.87 0 0 0-12.11 5.84 5.63 5.63 0 0 0-5.38 4.07c-1-0.14-2.06-0.3-3.09-0.49-5.38-1-9.27 2.09-9.27 7.09a12.16 12.16 0 0 0 6.48 10.4h-4.91a3.71 3.71 0 0 0 0 7.39h66.5a10.51 10.51 0 0 0 10.5-10.48v-33.75a24.2 24.2 0 0 0-5.53-15.39zm-9.84-7h-18.41v-2.25h18.41v2.25zm-25.29-23.76a1.06 1.06 0 0 1-1.14-0.75 1.3 1.3 0 0 1 0-1.08 1 1 0 0 1 0.65-0.49l5.23-1.37h20.23a1.57 1.57 0 0 1 0 3.14h-20c-0.31-0.07-0.14-0.07-4.97 0.55zm14.75 1.45h2.67v10.28h-2.67v-10.28zm-7.87 15.87a3.58 3.58 0 0 1 3.58-3.59h11.25a3.59 3.59 0 0 1 3.58 3.59v2.19h-18.41v-2.19zm-26.53 46.64a1 1 0 0 0 1.31-0.81c1.34-8.29 14.57-7.84 13.53 2.39a64.19 64.19 0 0 1-18.68 0.69 3.65 3.65 0 0 1 3.84-2.27zm-16.26 8.63c0-3.63 2.71-5.9 6.91-5.13a68.18 68.18 0 0 0 15.31 1.1 75.08 75.08 0 0 0 9.87-1.18c3.67-0.53 6.51 1.39 6.51 5.19 0 4-3.18 8.5-7.26 9.28a64.72 64.72 0 0 1-24.07 0c-3.87-0.71-7.27-5.05-7.27-9.26zm-2.18 14.11a1.7 1.7 0 0 1 1.75-1.71h39.51a1.71 1.71 0 1 1 0 3.41h-39.51a1.7 1.7 0 0 1-1.75-1.7zm68.25 1.68h-7.24a10.62 10.62 0 0 0 3-3.27 1 1 0 0 0-1.74-1 8.53 8.53 0 0 1-7.4 4.27c-11.39 0-10.35 0-10.26-0.12a3.7 3.7 0 0 0-3.35-5.29h-4.85c6.64-3.42 9.17-14.06 2.26-17a8.39 8.39 0 0 0-3.41-0.63 9.09 9.09 0 0 0-3.17-8.06c-0.1-0.08-0.06 0.75-0.06-11.11a22.19 22.19 0 0 1 5.07-14.11l3.87-4.68a4.48 4.48 0 0 1 3.39-1.62h6.65a4.4 4.4 0 0 1 3.42 1.62c3.78 4.58 5.64 6.47 7.21 10.2a1 1 0 0 0 0.92 0.62 1 1 0 0 0 0.93-1.39c-1.71-4.07-3.68-6-7.51-10.7-0.1-0.12-0.21-0.23-0.32-0.35h8.72a4.44 4.44 0 0 1 3.43 1.62l3.87 4.7a22.19 22.19 0 0 1 5.07 14.07c0 0.26 2.21 0.17-28.92 0.17a4.32 4.32 0 0 0-4.32 4.31v20.06a4.33 4.33 0 0 0 4.32 4.32h28.92v4.89a8.51 8.51 0 0 1-8.5 8.48zm8.5-15.37h-28.92a2.32 2.32 0 0 1-2.32-2.32v-20.06a2.32 2.32 0 0 1 2.32-2.31h28.92v24.69z" fill="#8a6143" stroke="#8a6143"/>
<path d="m30 79a66.57 66.57 0 0 0 16.33 0 1 1 0 1 0-0.24-2 64.66 64.66 0 0 1-15.85 0 1 1 0 1 0-0.24 2zm-23.61 9.61a6.4 6.4 0 0 0-6.39 6.39 1 1 0 0 0 1 1.06h10.78a1 1 0 0 0 1-1.06 6.41 6.41 0 0 0-6.39-6.39zm-4.29 5.46a4.4 4.4 0 0 1 8.59 0h-8.59z" fill="#8a6143" stroke="#8a6143"/>
</g>
</svg>
