<?xml version="1.0" encoding="UTF-8"?>
<svg viewBox="0 0 930 930" xmlns="http://www.w3.org/2000/svg">
<g class="layer">
<title>Layer 1</title>
<path d="m549.88 768.32c45.38-28.14 79.38-72.81 93.55-125.57m70.92-53.08c0 101.31-53.48 190.14-133.8 239.96h-298.32c-80.33-49.82-133.82-138.65-133.82-239.96 0-13.95 1.01-27.65 2.97-41.05h560.01c1.95 13.39 2.96 27.1 2.96 41.05z" fill="none" stroke="#8a6143" stroke-miterlimit="10" stroke-width="21"/>
<path d="m162.66 678.34-34.55-39.87-70.31-81.11c-2.96-3.42-0.53-8.75 3.99-8.75h714.01c22.17 0 41.04 16.15 44.47 38.04l39.17 249.84c0.04 0.27 0.06 0.53 0.06 0.8 0 2.54-1.88 4.76-4.51 5.08-20.81 2.5-40.16-11.09-44.88-31.52l-45.63-197.76a6.25 6.25 0 0 0-6.07-4.83h-51.47m-433.11 270.94 8.4-49.58h298.32l8.4 49.58c0.4 1.48-0.72 2.93-2.25 2.93h-310.63a2.32 2.32 0 0 1-2.24-2.93zm580.63-832.82-241.7 199.19a157.91 157.91 0 0 0-50.31 74.8l-8.19 26.2c-8.3 26.56-24.5 49.85-46.34 66.83-2.62 2.04-5.31 3.98-8.08 5.83l-28.67 19.09c-0.68 0.45-1.59 0.27-2.04-0.41l-61.77-92.71-64.43-96.69c-0.45-0.68-0.27-1.59 0.41-2.04l28.66-19.1c22.51-15 48.91-22.9 75.79-22.82 4.07 0.01 8.15 0.21 12.22 0.58l27.34 2.53c28.55 2.65 57.25-2.53 83.02-14.92 1.82-0.87 3.61-1.77 5.38-2.71l276.9-146.37c1.75-0.92 3.33 1.47 1.81 2.72zm-505.14 211.74-85.64 57.07m113.97-14.5-85.64 57.07m114.06-14.56-85.64 57.07m113.97-14.51-85.64 57.07m113.98-14.5-85.65 57.07" fill="none" stroke="#8a6143" stroke-miterlimit="10" stroke-width="21"/>
</g>
</svg>
