<?xml version="1.0" encoding="UTF-8"?>
<svg version="1.2" viewBox="0 0 350 170" xmlns="http://www.w3.org/2000/svg">
<g class="layer">
<title>Layer 1</title>
<g transform="translate(8) matrix(1 0 0 1 -19.471 -93.471)">
<g fill="#8a6143">
<g transform="translate(35.583 191.43)">
<path d="m87.14-39.5c0.45-0.88 1.13-1.27 2.03-1.14 0.92 0.12 1.71 0.5 2.38 1.11 0.67 0.6 0.85 1.27 0.53 2-0.54 1.24-1.18 2.94-1.91 5.11-0.72 2.17-1.65 4.51-2.78 7.04-1.14 2.53-2.51 4.99-4.14 7.38-1.62 2.39-3.58 4.42-5.86 6.09-2.27 1.67-4.91 2.69-7.91 3.07-3.6 0.46-6.63-0.23-9.07-2.07-2.44-1.83-3.92-4.72-4.43-8.67-0.28-2.24-0.43-4.65-0.45-7.23-0.01-2.6 0.3-5.49 0.92-8.67l0.05-0.41c0.38-2.06 0.29-3.41-0.25-4.03-0.53-0.63-1.43-0.85-2.69-0.69s-2.77 0.34-4.53 0.56c-0.75 0.1-1.47 0.3-2.15 0.6-0.69 0.29-1.33 1.16-1.9 2.62-0.1 0.29-0.2 0.6-0.29 0.92-0.1 0.33-0.2 0.64-0.3 0.93-0.44 1.5-0.84 2.86-1.2 4.09-0.36 1.22-0.65 2.22-0.89 3-2.72 8.5-6.45 15.49-11.19 20.97-4.73 5.48-10.73 8.68-18 9.61-3.95 0.5-7.34 0.08-10.17-1.25-2.84-1.34-5.07-3.24-6.69-5.74-1.63-2.49-2.63-5.11-2.98-7.89-0.36-2.79-0.13-5.53 0.67-8.23 0.79-2.7 2.11-4.97 3.95-6.83s4.11-2.97 6.83-3.31c1.02-0.13 1.58 0.22 1.69 1.04 0.28 2.25 1.47 3.94 3.59 5.08 2.11 1.15 4.57 1.55 7.36 1.19 2.38-0.3 4.76-1.21 7.12-2.72 2.37-1.51 4.5-3.69 6.41-6.56 1.91-2.88 3.4-6.45 4.45-10.74 0.82-3.35 1.74-6.91 2.79-10.67 1.05-3.77 2.1-7.72 3.17-11.86-3.32-0.49-6.29-0.09-8.92 1.17-2.63 1.28-4.64 3.13-6.04 5.55-1.38 2.43-1.89 5.1-1.53 8.02 0.19 1.43 0.72 2.59 1.6 3.48 0.87 0.9 1.85 1.28 2.93 1.14 0.62 1.03 0.82 2.33 0.6 3.91-0.22 1.57-0.84 3.14-1.85 4.69-1.01 1.54-2.39 2.91-4.14 4.11-1.74 1.18-3.83 1.93-6.28 2.25-2.79 0.35-5.23-0.04-7.31-1.19-2.09-1.16-3.75-2.83-5-5.02-1.24-2.19-2.02-4.58-2.34-7.17-0.56-4.35-0.17-8.59 1.17-12.7 1.34-4.12 3.52-7.87 6.54-11.25 3.02-3.4 6.72-6.24 11.1-8.52 4.37-2.29 9.32-3.78 14.84-4.48 6.88-0.88 11.54 0.07 14 2.83s3.02 6.82 1.69 12.18c-0.86 4.67-1.93 9.5-3.22 14.5 0.01 0.08-0.01 0.15-0.08 0.22-0.5 2.08-0.41 3.35 0.27 3.81 0.67 0.47 1.46 0.65 2.36 0.54 0.53-0.07 1.27-0.18 2.22-0.33 0.95-0.17 1.9-0.35 2.84-0.53 1.35-0.32 2.19-0.93 2.52-1.83 0.33-0.91 0.72-2.29 1.18-4.14 1.48-6.89 3-12.76 4.55-17.63 1.56-4.86 3.45-8.64 5.67-11.34 2.22-2.71 4.96-4.27 8.22-4.69 2.58-0.32 4.77 0.22 6.58 1.61 1.8 1.4 2.93 3.9 3.39 7.5 0.47 3.68 0.05 7.62-1.25 11.83-1.29 4.2-3.33 8.17-6.11 11.92-2.77 3.74-6.16 6.73-10.16 8.95-1.87 1.07-2.64 2.96-2.29 5.68 0.3 2.38 1.25 4.34 2.87 5.87 1.62 1.52 3.65 2.13 6.1 1.81 1.84-0.22 3.61-0.9 5.29-2.01 1.69-1.12 2.96-2.6 3.83-4.44zm-16.36-21.05c-0.48 2.69-0.65 4.37-0.5 5.05 0.16 0.68 0.47 0.98 0.95 0.92 1.02-0.13 2.09-0.89 3.19-2.28 1.1-1.38 1.99-2.96 2.66-4.73s0.94-3.27 0.78-4.5c-0.22-1.71-1.04-2.48-2.47-2.3-1.43 0.19-2.45 1.07-3.08 2.64-0.62 1.57-1.13 3.31-1.53 5.2z"/>
</g>
</g>
<g fill="#8a6143">
<g transform="translate(123.94 180.19)">
<path d="m10.81-1.38c-3.47 0.44-6.27-0.66-8.4-3.29s-3.48-6.23-4.05-10.78c-0.36-2.87-0.4-5.96-0.09-9.27 0.3-3.32 0.94-6.63 1.93-9.94 1-3.31 2.39-6.37 4.18-9.18 1.78-2.82 3.96-5.16 6.56-7.05 2.6-1.9 5.67-3.07 9.2-3.52 2.05-0.25 3.66-0.27 4.83-0.03 1.16 0.23 2.07 0.58 2.72 1.05 0.64 0.47 1.19 0.87 1.64 1.19 0.46 0.32 1.03 0.43 1.72 0.34 1.15-0.14 2.04-0.58 2.67-1.31 0.63-0.74 1.35-1.49 2.16-2.25s1.99-1.24 3.54-1.44c1.37-0.16 2.35 0.06 2.94 0.67s0.96 1.49 1.11 2.64c0.25 1.91-0.04 3.87-0.86 5.88-0.81 2-1.61 4.57-2.38 7.72-1.23 3.96-1.49 6.9-0.79 8.81 0.69 1.92 2.16 2.73 4.4 2.45 1.77-0.22 3.24-0.88 4.41-1.97 1.18-1.09 2.17-2.52 2.98-4.28 0.44-0.88 1.1-1.26 1.97-1.12 0.89 0.13 1.66 0.51 2.33 1.11s0.87 1.27 0.61 2c-0.92 2.52-1.89 5.32-2.92 8.4-1.02 3.08-2.22 6.05-3.58 8.91-1.35 2.87-3.01 5.3-4.98 7.31-1.96 2.01-4.36 3.2-7.21 3.56-3.54 0.45-6.22-0.66-8.04-3.32-1.83-2.68-2.7-6.16-2.63-10.44l-0.42 0.05c-1.51 4.39-3.58 8.23-6.2 11.51-2.62 3.27-5.73 5.14-9.35 5.59zm7.52-22.42c1.77-0.22 3.25-0.93 4.45-2.12s2.08-2.56 2.64-4.11 0.76-3.04 0.58-4.47c-0.22-1.71-0.87-2.97-1.95-3.8s-2.42-1.14-4.05-0.93c-1.77 0.21-3.25 0.88-4.42 2-1.17 1.11-2.02 2.44-2.55 4-0.52 1.55-0.69 3.07-0.5 4.57 0.22 1.69 0.85 2.97 1.89 3.85 1.04 0.87 2.35 1.21 3.91 1.01z"/>
</g>
</g>
<g fill="#8a6143">
<g transform="translate(176.38 173.52)">
<path d="m13.48-57.81c-2.44 0.31-4.62 0.06-6.53-0.77-1.9-0.83-3.01-2.61-3.36-5.34-0.46-3.6 0.23-6.19 2.07-7.77 1.83-1.58 4.14-2.55 6.93-2.9 2.59-0.32 4.85-0.03 6.8 0.89 1.95 0.91 2.99 3 3.13 6.25 0.13 3.15-0.68 5.47-2.43 6.93-1.75 1.47-3.95 2.38-6.61 2.71zm-4.31 56.64c-3.4 0.44-5.97-0.49-7.72-2.8-1.74-2.3-2.83-5.22-3.28-8.75-0.3-2.38-0.38-4.93-0.25-7.64 0.14-2.72 0.42-5.35 0.86-7.91 1.45-7.7 3.04-13.69 4.77-17.95 1.74-4.27 4.07-6.59 7-6.97 2.31-0.29 3.66 1.1 4.04 4.16 0.26 2.03 0.14 4.17-0.37 6.42-0.5 2.24-1 4.45-1.49 6.63-0.48 2.16-0.6 4.16-0.37 5.98 0.22 1.71 0.8 2.94 1.77 3.69 0.95 0.74 2.11 1.02 3.46 0.84 1.57-0.19 2.83-0.83 3.77-1.92s1.81-2.45 2.62-4.08c0.44-0.88 1.1-1.27 1.97-1.17 0.89 0.09 1.66 0.46 2.33 1.11 0.68 0.64 0.88 1.28 0.61 1.92-0.53 1.19-1.13 2.86-1.8 5.02-0.65 2.15-1.48 4.5-2.46 7.04-1 2.55-2.19 5-3.58 7.35-1.4 2.35-3.07 4.36-5 6.03s-4.22 2.67-6.88 3z"/>
</g>
</g>
<g fill="#8a6143">
<g transform="translate(201.48 170.32)">
<path d="m39.09-33.39c0.44-0.88 1.12-1.27 2.04-1.14 0.91 0.12 1.7 0.49 2.35 1.11 0.67 0.6 0.85 1.27 0.54 2-0.56 1.18-1.18 2.87-1.86 5.06-0.68 2.2-1.53 4.56-2.57 7.06-1.03 2.51-2.29 4.96-3.79 7.33-1.5 2.38-3.26 4.39-5.3 6.03-2.03 1.64-4.45 2.64-7.23 2.99-2.8 0.35-5.08 0.11-6.85-0.74-1.76-0.84-3.1-2.05-4.03-3.64-0.93-1.58-1.5-3.22-1.7-4.9-0.31-2.4-0.25-4.79 0.17-7.19 0.41-2.4 0.96-4.71 1.64-6.94 0.69-2.24 1.27-4.28 1.77-6.14 0.48-1.86 0.66-3.41 0.51-4.63-0.07-0.55-0.57-1.3-1.5-2.25-0.92-0.95-2.44-1.67-4.56-2.15-0.45 1.42-0.98 3.08-1.59 5-0.62 1.92-1.25 3.8-1.88 5.64-0.64 1.84-1.15 3.37-1.55 4.59-0.29 0.94-0.91 1.35-1.87 1.24-0.95-0.13-1.78-0.52-2.47-1.19-0.71-0.66-0.9-1.34-0.58-2.02 0.79-1.47 1.6-3.59 2.41-6.36 0.82-2.75 1.53-5.35 2.14-7.79-1.09-0.2-1.99-0.67-2.7-1.41s-1.18-2.03-1.41-3.87c-0.18-1.43 0.02-2.89 0.59-4.38s1.48-2.8 2.71-3.92c1.23-1.13 2.78-1.8 4.62-2.03 3.19-0.41 6.34-0.19 9.45 0.65 3.13 0.85 5.76 2.09 7.89 3.72 2.15 1.63 3.34 3.36 3.57 5.21 0.25 1.9 0.12 3.74-0.38 5.53s-1.01 3.62-1.54 5.48c-0.53 1.87-0.65 3.85-0.38 5.96 0.19 1.43 0.82 2.57 1.89 3.4s2.77 1.09 5.08 0.8c1.56-0.2 2.8-0.86 3.73-1.99 0.94-1.12 1.82-2.5 2.64-4.12z"/>
</g>
</g>
<g fill="#c8a553">
<g transform="translate(27.354 186.91)">
<path d="m87.14-39.5c0.45-0.88 1.13-1.27 2.03-1.14 0.92 0.12 1.71 0.5 2.38 1.11 0.67 0.6 0.85 1.27 0.53 2-0.54 1.24-1.18 2.94-1.91 5.11-0.72 2.17-1.65 4.51-2.78 7.04-1.14 2.53-2.51 4.99-4.14 7.38-1.62 2.39-3.58 4.42-5.86 6.09-2.27 1.67-4.91 2.69-7.91 3.07-3.6 0.46-6.63-0.23-9.07-2.07-2.44-1.83-3.92-4.72-4.43-8.67-0.28-2.24-0.43-4.65-0.45-7.23-0.01-2.6 0.3-5.49 0.92-8.67l0.05-0.41c0.38-2.06 0.29-3.41-0.25-4.03-0.53-0.63-1.43-0.85-2.69-0.69s-2.77 0.34-4.53 0.56c-0.75 0.1-1.47 0.3-2.15 0.6-0.69 0.29-1.33 1.16-1.9 2.62-0.1 0.29-0.2 0.6-0.29 0.92-0.1 0.33-0.2 0.64-0.3 0.93-0.44 1.5-0.84 2.86-1.2 4.09-0.36 1.22-0.65 2.22-0.89 3-2.72 8.5-6.45 15.49-11.19 20.97-4.73 5.48-10.73 8.68-18 9.61-3.95 0.5-7.34 0.08-10.17-1.25-2.84-1.34-5.07-3.24-6.69-5.74-1.63-2.49-2.63-5.11-2.98-7.89-0.36-2.79-0.13-5.53 0.67-8.23 0.79-2.7 2.11-4.97 3.95-6.83s4.11-2.97 6.83-3.31c1.02-0.13 1.58 0.22 1.69 1.04 0.28 2.25 1.47 3.94 3.59 5.08 2.11 1.15 4.57 1.55 7.36 1.19 2.38-0.3 4.76-1.21 7.12-2.72 2.37-1.51 4.5-3.69 6.41-6.56 1.91-2.88 3.4-6.45 4.45-10.74 0.82-3.35 1.74-6.91 2.79-10.67 1.05-3.77 2.1-7.72 3.17-11.86-3.32-0.49-6.29-0.09-8.92 1.17-2.63 1.28-4.64 3.13-6.04 5.55-1.38 2.43-1.89 5.1-1.53 8.02 0.19 1.43 0.72 2.59 1.6 3.48 0.87 0.9 1.85 1.28 2.93 1.14 0.62 1.03 0.82 2.33 0.6 3.91-0.22 1.57-0.84 3.14-1.85 4.69-1.01 1.54-2.39 2.91-4.14 4.11-1.74 1.18-3.83 1.93-6.28 2.25-2.79 0.35-5.23-0.04-7.31-1.19-2.09-1.16-3.75-2.83-5-5.02-1.24-2.19-2.02-4.58-2.34-7.17-0.56-4.35-0.17-8.59 1.17-12.7 1.34-4.12 3.52-7.87 6.54-11.25 3.02-3.4 6.72-6.24 11.1-8.52 4.37-2.29 9.32-3.78 14.84-4.48 6.88-0.88 11.54 0.07 14 2.83s3.02 6.82 1.69 12.18c-0.86 4.67-1.93 9.5-3.22 14.5 0.01 0.08-0.01 0.15-0.08 0.22-0.5 2.08-0.41 3.35 0.27 3.81 0.67 0.47 1.46 0.65 2.36 0.54 0.53-0.07 1.27-0.18 2.22-0.33 0.95-0.17 1.9-0.35 2.84-0.53 1.35-0.32 2.19-0.93 2.52-1.83 0.33-0.91 0.72-2.29 1.18-4.14 1.48-6.89 3-12.76 4.55-17.63 1.56-4.86 3.45-8.64 5.67-11.34 2.22-2.71 4.96-4.27 8.22-4.69 2.58-0.32 4.77 0.22 6.58 1.61 1.8 1.4 2.93 3.9 3.39 7.5 0.47 3.68 0.05 7.62-1.25 11.83-1.29 4.2-3.33 8.17-6.11 11.92-2.77 3.74-6.16 6.73-10.16 8.95-1.87 1.07-2.64 2.96-2.29 5.68 0.3 2.38 1.25 4.34 2.87 5.87 1.62 1.52 3.65 2.13 6.1 1.81 1.84-0.22 3.61-0.9 5.29-2.01 1.69-1.12 2.96-2.6 3.83-4.44zm-16.36-21.05c-0.48 2.69-0.65 4.37-0.5 5.05 0.16 0.68 0.47 0.98 0.95 0.92 1.02-0.13 2.09-0.89 3.19-2.28 1.1-1.38 1.99-2.96 2.66-4.73s0.94-3.27 0.78-4.5c-0.22-1.71-1.04-2.48-2.47-2.3-1.43 0.19-2.45 1.07-3.08 2.64-0.62 1.57-1.13 3.31-1.53 5.2z"/>
</g>
</g>
<g fill="#c8a553">
<g transform="translate(115.71 175.67)">
<path d="m10.81-1.38c-3.47 0.44-6.27-0.66-8.4-3.29s-3.48-6.23-4.05-10.78c-0.36-2.87-0.4-5.96-0.09-9.27 0.3-3.32 0.94-6.63 1.93-9.94 1-3.31 2.39-6.37 4.18-9.18 1.78-2.82 3.96-5.16 6.56-7.05 2.6-1.9 5.67-3.07 9.2-3.52 2.05-0.25 3.66-0.27 4.83-0.03 1.16 0.23 2.07 0.58 2.72 1.05 0.64 0.47 1.19 0.87 1.64 1.19 0.46 0.32 1.03 0.43 1.72 0.34 1.15-0.14 2.04-0.58 2.67-1.31 0.63-0.74 1.35-1.49 2.16-2.25s1.99-1.24 3.54-1.44c1.37-0.16 2.35 0.06 2.94 0.67s0.96 1.49 1.11 2.64c0.25 1.91-0.04 3.87-0.86 5.88-0.81 2-1.61 4.57-2.38 7.72-1.23 3.96-1.49 6.9-0.79 8.81 0.69 1.92 2.16 2.73 4.4 2.45 1.77-0.22 3.24-0.88 4.41-1.97 1.18-1.09 2.17-2.52 2.98-4.28 0.44-0.88 1.1-1.26 1.97-1.12 0.89 0.13 1.66 0.51 2.33 1.11s0.87 1.27 0.61 2c-0.92 2.52-1.89 5.32-2.92 8.4-1.02 3.08-2.22 6.05-3.58 8.91-1.35 2.87-3.01 5.3-4.98 7.31-1.96 2.01-4.36 3.2-7.21 3.56-3.54 0.45-6.22-0.66-8.04-3.32-1.83-2.68-2.7-6.16-2.63-10.44l-0.42 0.05c-1.51 4.39-3.58 8.23-6.2 11.51-2.62 3.27-5.73 5.14-9.35 5.59zm7.52-22.42c1.77-0.22 3.25-0.93 4.45-2.12s2.08-2.56 2.64-4.11 0.76-3.04 0.58-4.47c-0.22-1.71-0.87-2.97-1.95-3.8s-2.42-1.14-4.05-0.93c-1.77 0.21-3.25 0.88-4.42 2-1.17 1.11-2.02 2.44-2.55 4-0.52 1.55-0.69 3.07-0.5 4.57 0.22 1.69 0.85 2.97 1.89 3.85 1.04 0.87 2.35 1.21 3.91 1.01z"/>
</g>
</g>
<g fill="#c8a553">
<g transform="translate(168.16 169)">
<path d="m13.48-57.81c-2.44 0.31-4.62 0.06-6.53-0.77-1.9-0.83-3.01-2.61-3.36-5.34-0.46-3.6 0.23-6.19 2.07-7.77 1.83-1.58 4.14-2.55 6.93-2.9 2.59-0.32 4.85-0.03 6.8 0.89 1.95 0.91 2.99 3 3.13 6.25 0.13 3.15-0.68 5.47-2.43 6.93-1.75 1.47-3.95 2.38-6.61 2.71zm-4.31 56.64c-3.4 0.44-5.97-0.49-7.72-2.8-1.74-2.3-2.83-5.22-3.28-8.75-0.3-2.38-0.38-4.93-0.25-7.64 0.14-2.72 0.42-5.35 0.86-7.91 1.45-7.7 3.04-13.69 4.77-17.95 1.74-4.27 4.07-6.59 7-6.97 2.31-0.29 3.66 1.1 4.04 4.16 0.26 2.03 0.14 4.17-0.37 6.42-0.5 2.24-1 4.45-1.49 6.63-0.48 2.16-0.6 4.16-0.37 5.98 0.22 1.71 0.8 2.94 1.77 3.69 0.95 0.74 2.11 1.02 3.46 0.84 1.57-0.19 2.83-0.83 3.77-1.92s1.81-2.45 2.62-4.08c0.44-0.88 1.1-1.27 1.97-1.17 0.89 0.09 1.66 0.46 2.33 1.11 0.68 0.64 0.88 1.28 0.61 1.92-0.53 1.19-1.13 2.86-1.8 5.02-0.65 2.15-1.48 4.5-2.46 7.04-1 2.55-2.19 5-3.58 7.35-1.4 2.35-3.07 4.36-5 6.03s-4.22 2.67-6.88 3z"/>
</g>
</g>
<g fill="#c8a553">
<g transform="translate(193.25 165.81)">
<path d="m39.09-33.39c0.44-0.88 1.12-1.27 2.04-1.14 0.91 0.12 1.7 0.49 2.35 1.11 0.67 0.6 0.85 1.27 0.54 2-0.56 1.18-1.18 2.87-1.86 5.06-0.68 2.2-1.53 4.56-2.57 7.06-1.03 2.51-2.29 4.96-3.79 7.33-1.5 2.38-3.26 4.39-5.3 6.03-2.03 1.64-4.45 2.64-7.23 2.99-2.8 0.35-5.08 0.11-6.85-0.74-1.76-0.84-3.1-2.05-4.03-3.64-0.93-1.58-1.5-3.22-1.7-4.9-0.31-2.4-0.25-4.79 0.17-7.19 0.41-2.4 0.96-4.71 1.64-6.94 0.69-2.24 1.27-4.28 1.77-6.14 0.48-1.86 0.66-3.41 0.51-4.63-0.07-0.55-0.57-1.3-1.5-2.25-0.92-0.95-2.44-1.67-4.56-2.15-0.45 1.42-0.98 3.08-1.59 5-0.62 1.92-1.25 3.8-1.88 5.64-0.64 1.84-1.15 3.37-1.55 4.59-0.29 0.94-0.91 1.35-1.87 1.24-0.95-0.13-1.78-0.52-2.47-1.19-0.71-0.66-0.9-1.34-0.58-2.02 0.79-1.47 1.6-3.59 2.41-6.36 0.82-2.75 1.53-5.35 2.14-7.79-1.09-0.2-1.99-0.67-2.7-1.41s-1.18-2.03-1.41-3.87c-0.18-1.43 0.02-2.89 0.59-4.38s1.48-2.8 2.71-3.92c1.23-1.13 2.78-1.8 4.62-2.03 3.19-0.41 6.34-0.19 9.45 0.65 3.13 0.85 5.76 2.09 7.89 3.72 2.15 1.63 3.34 3.36 3.57 5.21 0.25 1.9 0.12 3.74-0.38 5.53s-1.01 3.62-1.54 5.48c-0.53 1.87-0.65 3.85-0.38 5.96 0.19 1.43 0.82 2.57 1.89 3.4s2.77 1.09 5.08 0.8c1.56-0.2 2.8-0.86 3.73-1.99 0.94-1.12 1.82-2.5 2.64-4.12z"/>
</g>
</g>
<g fill="#8a6143">
<g transform="translate(119.05 264.89)">
<path d="m28.83-2.5c-4.84 0.62-9.29 0.17-13.36-1.38-4.08-1.53-7.5-4.32-10.27-8.35-2.77-4.04-4.6-9.45-5.48-16.25-0.8-6.19-0.49-12.23 0.92-18.11 1.41-5.9 3.71-11.26 6.89-16.1 3.18-4.83 6.99-8.81 11.45-11.95 4.47-3.15 9.32-5.06 14.57-5.74 6.47-0.84 11.48-0.14 15.04 2.1 3.57 2.23 5.65 5.55 6.22 9.97 0.4 3 0.18 5.83-0.65 8.5-0.84 2.67-2.07 5.06-3.69 7.17-1.63 2.1-3.43 3.8-5.41 5.09-1.97 1.3-3.9 2.07-5.81 2.32-1.44 0.18-2.55-0.11-3.34-0.86-0.78-0.76-0.97-1.73-0.57-2.89 2-5.38 2.43-9.13 1.29-11.25-1.14-2.14-3.14-3.02-5.99-2.66-3.06 0.4-5.71 1.71-7.95 3.94-2.23 2.23-3.87 4.95-4.91 8.15-1.03 3.21-1.33 6.52-0.89 9.92 0.4 3.07 1.49 5.76 3.28 8.08 1.79 2.33 4.27 4.06 7.42 5.21 3.16 1.14 6.98 1.43 11.47 0.84 3.19-0.41 6.37-1.31 9.55-2.69 3.18-1.37 5.45-3.43 6.83-6.17 0.44-0.88 1.09-1.27 1.97-1.14 0.88 0.12 1.66 0.49 2.32 1.09 0.68 0.61 0.89 1.28 0.63 2.02-3.17 9.19-7.25 16.42-12.23 21.7-5 5.28-11.43 8.42-19.3 9.44z"/>
</g>
</g>
<g fill="#8a6143">
<g transform="translate(175.76 257.53)">
<path d="m8.67-1.13c-3.6 0.47-6.25-0.2-7.94-2.03-1.68-1.82-2.72-4.22-3.11-7.22-0.33-2.58-0.37-5.44-0.12-8.59 0.24-3.14 0.68-6.24 1.33-9.3 2.17-10.38 4.03-19.09 5.58-26.14 1.54-7.04 3.2-12.42 5-16.15s4.06-5.77 6.78-6.11c2.11-0.28 3.54 0.34 4.29 1.87s0.56 4-0.59 7.39c-2.06 6.02-3.79 11.55-5.17 16.6-1.39 5.05-2.38 9.79-2.97 14.23-0.29 2.04-0.45 3.98-0.45 5.81 0 1.84 0.41 3.27 1.23 4.3 0.83 1.03 2.27 1.42 4.3 1.16 1.77-0.23 3.26-0.89 4.47-1.97 1.2-1.1 2.25-2.53 3.12-4.31 0.45-0.89 1.13-1.27 2.03-1.14 0.92 0.11 1.71 0.48 2.38 1.09 0.66 0.6 0.83 1.28 0.51 2.01-0.53 1.17-1.14 2.86-1.82 5.05-0.69 2.2-1.55 4.56-2.57 7.08-1.01 2.52-2.26 4.97-3.76 7.34-1.49 2.37-3.26 4.37-5.3 6.02-2.03 1.65-4.44 2.65-7.22 3.01z"/>
</g>
</g>
<g fill="#8a6143">
<g transform="translate(201.46 254.2)">
<path d="m10.81-1.41c-3.47 0.45-6.27-0.64-8.4-3.26-2.14-2.63-3.5-6.22-4.1-10.78-0.36-2.85-0.4-5.94-0.11-9.25 0.3-3.32 0.93-6.64 1.91-9.96 0.99-3.31 2.37-6.38 4.16-9.2 1.78-2.82 3.96-5.18 6.56-7.06 2.59-1.9 5.65-3.07 9.19-3.53 2.03-0.26 3.64-0.28 4.81-0.05 1.16 0.23 2.07 0.58 2.72 1.05 0.64 0.46 1.19 0.85 1.65 1.17 0.47 0.32 1.04 0.44 1.72 0.36 1.16-0.16 2.05-0.6 2.67-1.35 0.64-0.73 1.36-1.48 2.16-2.25 0.8-0.75 1.98-1.23 3.53-1.43 1.36-0.18 2.35 0.04 2.94 0.65 0.6 0.61 0.98 1.49 1.12 2.64 0.25 1.91-0.03 3.87-0.84 5.88s-1.61 4.58-2.37 7.72c-1.22 3.96-1.49 6.9-0.79 8.81 0.71 1.92 2.18 2.73 4.43 2.44 1.77-0.23 3.23-0.89 4.4-1.97s2.16-2.51 2.99-4.28c0.43-0.89 1.09-1.27 1.97-1.14 0.88 0.12 1.66 0.49 2.32 1.11 0.67 0.6 0.87 1.27 0.61 2-0.9 2.53-1.87 5.33-2.89 8.4-1.02 3.08-2.21 6.05-3.56 8.92-1.36 2.87-3.01 5.31-4.97 7.33-1.95 2.03-4.35 3.22-7.2 3.58-3.53 0.46-6.22-0.64-8.05-3.3-1.84-2.66-2.72-6.14-2.66-10.45l-0.42 0.06c-1.5 4.41-3.56 8.25-6.17 11.53-2.62 3.28-5.73 5.14-9.33 5.61zm7.47-22.43c1.76-0.23 3.24-0.94 4.42-2.13 1.2-1.19 2.08-2.56 2.64-4.12 0.57-1.57 0.75-3.06 0.57-4.49-0.22-1.69-0.87-2.96-1.96-3.78-1.08-0.83-2.43-1.14-4.04-0.94-1.78 0.23-3.26 0.91-4.43 2.03-1.16 1.12-2.01 2.45-2.54 4-0.53 1.56-0.69 3.08-0.49 4.58 0.22 1.7 0.85 2.98 1.91 3.85 1.05 0.86 2.36 1.2 3.92 1z"/>
</g>
</g>
<g fill="#8a6143">
<g transform="translate(253.89 247.4)">
<path d="m39.02-33.48c0.43-0.89 1.11-1.27 2.03-1.15 0.91 0.12 1.7 0.49 2.36 1.1 0.66 0.6 0.84 1.28 0.53 2.01-0.55 1.17-1.16 2.86-1.85 5.05-0.68 2.2-1.52 4.56-2.54 7.08-1.03 2.52-2.28 4.97-3.77 7.34s-3.26 4.37-5.3 6.02c-2.03 1.65-4.43 2.65-7.21 3.01-2.8 0.37-5.08 0.13-6.85-0.71-1.77-0.85-3.12-2.06-4.04-3.63-0.93-1.58-1.5-3.22-1.72-4.91-0.32-2.38-0.27-4.78 0.14-7.18 0.41-2.41 0.96-4.72 1.64-6.94 0.67-2.23 1.26-4.27 1.75-6.14 0.49-1.86 0.65-3.41 0.5-4.63-0.08-0.55-0.58-1.3-1.5-2.25s-2.44-1.67-4.56-2.15c-0.45 1.43-0.99 3.1-1.6 5.01-0.62 1.91-1.23 3.79-1.86 5.64-0.62 1.86-1.13 3.39-1.53 4.61-0.29 0.94-0.92 1.35-1.87 1.22-0.95-0.12-1.77-0.51-2.47-1.17-0.71-0.66-0.9-1.32-0.58-2 0.78-1.48 1.58-3.6 2.39-6.38 0.81-2.76 1.51-5.36 2.09-7.79-1.06-0.21-1.95-0.68-2.67-1.41-0.72-0.74-1.19-2.03-1.42-3.87-0.19-1.43 0.01-2.89 0.58-4.38 0.56-1.49 1.45-2.8 2.69-3.92 1.23-1.13 2.77-1.82 4.6-2.06 3.2-0.41 6.36-0.19 9.47 0.65 3.13 0.84 5.76 2.07 7.91 3.69 2.14 1.63 3.33 3.36 3.56 5.2 0.25 1.9 0.13 3.75-0.37 5.54-0.5 1.78-1 3.6-1.52 5.48-0.52 1.87-0.64 3.85-0.36 5.95 0.19 1.44 0.82 2.57 1.89 3.39 1.08 0.83 2.78 1.09 5.08 0.8 1.57-0.21 2.82-0.87 3.75-1.98 0.93-1.13 1.8-2.51 2.63-4.14z"/>
</g>
</g>
<g fill="#8a6143">
<g transform="translate(294.18 242.17)">
<path d="m19.19-2.48c-4.09 0.53-7.56 0.05-10.42-1.44-2.86-1.5-5.11-3.68-6.77-6.55-1.65-2.86-2.69-6.12-3.13-9.76-0.43-3.65-0.27-7.37 0.49-11.16 0.75-3.79 2.08-7.35 3.98-10.69 1.92-3.33 4.41-6.13 7.47-8.39 3.07-2.26 6.68-3.66 10.83-4.19 3.2-0.41 5.88-0.16 8.03 0.77 2.16 0.93 3.84 2.32 5.05 4.17 1.21 1.84 1.96 3.89 2.25 6.13 0.32 2.46-0.04 5-1.08 7.62-1.04 2.63-2.68 4.9-4.92 6.81s-5.03 3.08-8.36 3.5c-1.43 0.19-2.84 0.28-4.23 0.25s-2.7-0.31-3.94-0.84c-0.38-0.16-0.76-0.12-1.14 0.11-0.38 0.22-0.53 0.67-0.44 1.34 0.23 1.78 1.44 2.98 3.62 3.63 2.2 0.65 4.76 0.78 7.69 0.4 3.47-0.45 6.94-1.8 10.41-4.04 3.47-2.25 6.14-5.3 8-9.14 0.44-0.88 1.12-1.25 2.03-1.13s1.71 0.48 2.37 1.08c0.67 0.61 0.84 1.28 0.52 2.02-3.42 8.87-7.52 15.82-12.3 20.82-4.77 5.02-10.11 7.91-16.01 8.68zm-0.22-30.47c1.96-0.25 3.41-1.08 4.37-2.49 0.97-1.4 1.37-2.75 1.21-4.04-0.16-1.16-0.68-2.1-1.57-2.82-0.88-0.72-2.1-0.97-3.67-0.76-1.98 0.25-3.47 1.06-4.47 2.43-1 1.38-1.41 2.75-1.23 4.11 0.14 1.09 0.66 2.01 1.56 2.77 0.9 0.75 2.16 1.02 3.8 0.8z"/>
</g>
</g>
<g fill="#c8a553">
<g transform="translate(110.81 260.4)">
<path d="m28.83-2.5c-4.84 0.62-9.29 0.17-13.36-1.38-4.08-1.53-7.5-4.32-10.27-8.35-2.77-4.04-4.6-9.45-5.48-16.25-0.8-6.19-0.49-12.23 0.92-18.11 1.41-5.9 3.71-11.26 6.89-16.1 3.18-4.83 6.99-8.81 11.45-11.95 4.47-3.15 9.32-5.06 14.57-5.74 6.47-0.84 11.48-0.14 15.04 2.1 3.57 2.23 5.65 5.55 6.22 9.97 0.4 3 0.18 5.83-0.65 8.5-0.84 2.67-2.07 5.06-3.69 7.17-1.63 2.1-3.43 3.8-5.41 5.09-1.97 1.3-3.9 2.07-5.81 2.32-1.44 0.18-2.55-0.11-3.34-0.86-0.78-0.76-0.97-1.73-0.57-2.89 2-5.38 2.43-9.13 1.29-11.25-1.14-2.14-3.14-3.02-5.99-2.66-3.06 0.4-5.71 1.71-7.95 3.94-2.23 2.23-3.87 4.95-4.91 8.15-1.03 3.21-1.33 6.52-0.89 9.92 0.4 3.07 1.49 5.76 3.28 8.08 1.79 2.33 4.27 4.06 7.42 5.21 3.16 1.14 6.98 1.43 11.47 0.84 3.19-0.41 6.37-1.31 9.55-2.69 3.18-1.37 5.45-3.43 6.83-6.17 0.44-0.88 1.09-1.27 1.97-1.14 0.88 0.12 1.66 0.49 2.32 1.09 0.68 0.61 0.89 1.28 0.63 2.02-3.17 9.19-7.25 16.42-12.23 21.7-5 5.28-11.43 8.42-19.3 9.44z"/>
</g>
</g>
<g fill="#c8a553">
<g transform="translate(167.52 253.04)">
<path d="m8.67-1.13c-3.6 0.47-6.25-0.2-7.94-2.03-1.68-1.82-2.72-4.22-3.11-7.22-0.33-2.58-0.37-5.44-0.12-8.59 0.24-3.14 0.68-6.24 1.33-9.3 2.17-10.38 4.03-19.09 5.58-26.14 1.54-7.04 3.2-12.42 5-16.15s4.06-5.77 6.78-6.11c2.11-0.28 3.54 0.34 4.29 1.87s0.56 4-0.59 7.39c-2.06 6.02-3.79 11.55-5.17 16.6-1.39 5.05-2.38 9.79-2.97 14.23-0.29 2.04-0.45 3.98-0.45 5.81 0 1.84 0.41 3.27 1.23 4.3 0.83 1.03 2.27 1.42 4.3 1.16 1.77-0.23 3.26-0.89 4.47-1.97 1.2-1.1 2.25-2.53 3.12-4.31 0.45-0.89 1.13-1.27 2.03-1.14 0.92 0.11 1.71 0.48 2.38 1.09 0.66 0.6 0.83 1.28 0.51 2.01-0.53 1.17-1.14 2.86-1.82 5.05-0.69 2.2-1.55 4.56-2.57 7.08-1.01 2.52-2.26 4.97-3.76 7.34-1.49 2.37-3.26 4.37-5.3 6.02-2.03 1.65-4.44 2.65-7.22 3.01z"/>
</g>
</g>
<g fill="#c8a553">
<g transform="translate(193.22 249.71)">
<path d="m10.81-1.41c-3.47 0.45-6.27-0.64-8.4-3.26-2.14-2.63-3.5-6.22-4.1-10.78-0.36-2.85-0.4-5.94-0.11-9.25 0.3-3.32 0.93-6.64 1.91-9.96 0.99-3.31 2.37-6.38 4.16-9.2 1.78-2.82 3.96-5.18 6.56-7.06 2.59-1.9 5.65-3.07 9.19-3.53 2.03-0.26 3.64-0.28 4.81-0.05 1.16 0.23 2.07 0.58 2.72 1.05 0.64 0.46 1.19 0.85 1.65 1.17 0.47 0.32 1.04 0.44 1.72 0.36 1.16-0.16 2.05-0.6 2.67-1.35 0.64-0.73 1.36-1.48 2.16-2.25 0.8-0.75 1.98-1.23 3.53-1.43 1.36-0.18 2.35 0.04 2.94 0.65 0.6 0.61 0.98 1.49 1.12 2.64 0.25 1.91-0.03 3.87-0.84 5.88s-1.61 4.58-2.37 7.72c-1.22 3.96-1.49 6.9-0.79 8.81 0.71 1.92 2.18 2.73 4.43 2.44 1.77-0.23 3.23-0.89 4.4-1.97s2.16-2.51 2.99-4.28c0.43-0.89 1.09-1.27 1.97-1.14 0.88 0.12 1.66 0.49 2.32 1.11 0.67 0.6 0.87 1.27 0.61 2-0.9 2.53-1.87 5.33-2.89 8.4-1.02 3.08-2.21 6.05-3.56 8.92-1.36 2.87-3.01 5.31-4.97 7.33-1.95 2.03-4.35 3.22-7.2 3.58-3.53 0.46-6.22-0.64-8.05-3.3-1.84-2.66-2.72-6.14-2.66-10.45l-0.42 0.06c-1.5 4.41-3.56 8.25-6.17 11.53-2.62 3.28-5.73 5.14-9.33 5.61zm7.47-22.43c1.76-0.23 3.24-0.94 4.42-2.13 1.2-1.19 2.08-2.56 2.64-4.12 0.57-1.57 0.75-3.06 0.57-4.49-0.22-1.69-0.87-2.96-1.96-3.78-1.08-0.83-2.43-1.14-4.04-0.94-1.78 0.23-3.26 0.91-4.43 2.03-1.16 1.12-2.01 2.45-2.54 4-0.53 1.56-0.69 3.08-0.49 4.58 0.22 1.7 0.85 2.98 1.91 3.85 1.05 0.86 2.36 1.2 3.92 1z"/>
</g>
</g>
<g fill="#c8a553">
<g transform="translate(245.65 242.91)">
<path d="m39.02-33.48c0.43-0.89 1.11-1.27 2.03-1.15 0.91 0.12 1.7 0.49 2.36 1.1 0.66 0.6 0.84 1.28 0.53 2.01-0.55 1.17-1.16 2.86-1.85 5.05-0.68 2.2-1.52 4.56-2.54 7.08-1.03 2.52-2.28 4.97-3.77 7.34s-3.26 4.37-5.3 6.02c-2.03 1.65-4.43 2.65-7.21 3.01-2.8 0.37-5.08 0.13-6.85-0.71-1.77-0.85-3.12-2.06-4.04-3.63-0.93-1.58-1.5-3.22-1.72-4.91-0.32-2.38-0.27-4.78 0.14-7.18 0.41-2.41 0.96-4.72 1.64-6.94 0.67-2.23 1.26-4.27 1.75-6.14 0.49-1.86 0.65-3.41 0.5-4.63-0.08-0.55-0.58-1.3-1.5-2.25s-2.44-1.67-4.56-2.15c-0.45 1.43-0.99 3.1-1.6 5.01-0.62 1.91-1.23 3.79-1.86 5.64-0.62 1.86-1.13 3.39-1.53 4.61-0.29 0.94-0.92 1.35-1.87 1.22-0.95-0.12-1.77-0.51-2.47-1.17-0.71-0.66-0.9-1.32-0.58-2 0.78-1.48 1.58-3.6 2.39-6.38 0.81-2.76 1.51-5.36 2.09-7.79-1.06-0.21-1.95-0.68-2.67-1.41-0.72-0.74-1.19-2.03-1.42-3.87-0.19-1.43 0.01-2.89 0.58-4.38 0.56-1.49 1.45-2.8 2.69-3.92 1.23-1.13 2.77-1.82 4.6-2.06 3.2-0.41 6.36-0.19 9.47 0.65 3.13 0.84 5.76 2.07 7.91 3.69 2.14 1.63 3.33 3.36 3.56 5.2 0.25 1.9 0.13 3.75-0.37 5.54-0.5 1.78-1 3.6-1.52 5.48-0.52 1.87-0.64 3.85-0.36 5.95 0.19 1.44 0.82 2.57 1.89 3.39 1.08 0.83 2.78 1.09 5.08 0.8 1.57-0.21 2.82-0.87 3.75-1.98 0.93-1.13 1.8-2.51 2.63-4.14z"/>
</g>
</g>
<g fill="#c8a553">
<g transform="translate(285.94 237.68)">
<path d="m19.19-2.48c-4.09 0.53-7.56 0.05-10.42-1.44-2.86-1.5-5.11-3.68-6.77-6.55-1.65-2.86-2.69-6.12-3.13-9.76-0.43-3.65-0.27-7.37 0.49-11.16 0.75-3.79 2.08-7.35 3.98-10.69 1.92-3.33 4.41-6.13 7.47-8.39 3.07-2.26 6.68-3.66 10.83-4.19 3.2-0.41 5.88-0.16 8.03 0.77 2.16 0.93 3.84 2.32 5.05 4.17 1.21 1.84 1.96 3.89 2.25 6.13 0.32 2.46-0.04 5-1.08 7.62-1.04 2.63-2.68 4.9-4.92 6.81s-5.03 3.08-8.36 3.5c-1.43 0.19-2.84 0.28-4.23 0.25s-2.7-0.31-3.94-0.84c-0.38-0.16-0.76-0.12-1.14 0.11-0.38 0.22-0.53 0.67-0.44 1.34 0.23 1.78 1.44 2.98 3.62 3.63 2.2 0.65 4.76 0.78 7.69 0.4 3.47-0.45 6.94-1.8 10.41-4.04 3.47-2.25 6.14-5.3 8-9.14 0.44-0.88 1.12-1.25 2.03-1.13s1.71 0.48 2.37 1.08c0.67 0.61 0.84 1.28 0.52 2.02-3.42 8.87-7.52 15.82-12.3 20.82-4.77 5.02-10.11 7.91-16.01 8.68zm-0.22-30.47c1.96-0.25 3.41-1.08 4.37-2.49 0.97-1.4 1.37-2.75 1.21-4.04-0.16-1.16-0.68-2.1-1.57-2.82-0.88-0.72-2.1-0.97-3.67-0.76-1.98 0.25-3.47 1.06-4.47 2.43-1 1.38-1.41 2.75-1.23 4.11 0.14 1.09 0.66 2.01 1.56 2.77 0.9 0.75 2.16 1.02 3.8 0.8z"/>
</g>
</g>
<g fill="#8a6143">
<g transform="translate(273.86 153.88)">
<path d="m5.17-0.52c-3.8 0.47-6.05-2.17-6.76-7.9-0.55-4.51 2.59-13.24 9.43-26.21 7.01-13.28 12.74-20.19 17.18-20.73 0.85-0.1 1.7 0.06 2.56 0.5 0.85 0.44 1.33 1.09 1.44 1.94-0.02-0.07-2.28 3.04-6.8 9.34-2.61 3.66-4.95 7.07-7.03 10.24-2.08 3.15-3.89 6.1-5.44 8.82-4.36 7.81-6.33 13.36-5.92 16.64 0.11 0.93 0.49 1.84 1.14 2.74 0.66 0.9 1.44 1.29 2.37 1.17 1.65-0.19 3.32-1.05 5.02-2.56 1.71-1.52 3.3-3.35 4.78-5.49s2.7-4.31 3.67-6.5c0.97-2.18 1.57-4.09 1.82-5.71-0.69-1.45-1.17-3.28-1.44-5.49-0.66-5.36 0.88-7.99 4.61-7.87 0.7-0.02 1.22 0.27 1.56 0.89 0.33 0.61 0.55 1.35 0.66 2.22 0.21 1.78 0.16 3.6-0.16 5.46-0.31 1.86-0.54 3.41-0.67 4.64 0.49 1.63 1.35 3.22 2.59 4.77 1.24 1.56 2.65 2.23 4.22 2.03 1.58-0.19 3.27-1.56 5.05-4.11 0.37-0.55 0.77-0.85 1.2-0.9 0.35-0.04 0.6 0.18 0.73 0.67 0.06 0.44-0.15 1.08-0.6 1.94-1.91 2.91-4.08 4.52-6.5 4.81-3.5 0.44-6.65-1.79-9.44-6.67-0.97 3.31-2.46 6.54-4.47 9.7-2 3.16-4.27 5.8-6.81 7.92-2.53 2.13-5.2 3.36-7.99 3.7z"/>
</g>
</g>
<g fill="#8a6143">
<g transform="translate(313.03 149.07)">
<path d="m5.17 21.7c-2.29 0.28-4.41-0.43-6.36-2.15-1.97-1.81-3.06-3.92-3.29-6.36 1 0.97 2.29 2.08 3.89 3.33 2.08 1.56 4.02 2.23 5.81 2.01 4.07-0.5 8.07-4.29 12-11.37 1.36-2.5 2.73-5.38 4.11-8.63s2.63-6.83 3.73-10.76l2.88-10.38-14.25 14.28c-4.4 4.39-8.06 6.76-11 7.13-1.58 0.2-2.9-0.22-3.97-1.25s-1.68-2.15-1.83-3.36c-0.37-3.08 1.65-8.46 6.08-16.13 4.42-7.72 7.97-11.75 10.62-12.08 2.21-0.28 3.41 0.41 3.61 2.05 0.09 0.65-2.63 4.76-8.15 12.34-5.48 7.5-8.08 12.43-7.78 14.79 0.11 0.93 0.77 1.32 1.98 1.17 2.3-0.28 6.91-3.86 13.83-10.74 2.84-2.88 5.35-5.51 7.51-7.89 2.18-2.37 3.99-4.49 5.44-6.34 0.49-0.78 0.98-1.55 1.47-2.3s0.94-1.51 1.34-2.29c1.17-1.74 2.43-2.7 3.8-2.86 1.93-0.24 2.99 0.43 3.19 2 0.03 0.29-1.19 2.84-3.64 7.64-1.28 2.62-2.31 4.65-3.08 6.09-0.76 1.44-1.19 2.35-1.28 2.73-1.7 4.56-4.33 11.23-7.89 20.02-5.58 12.02-11.83 18.46-18.77 19.31z"/>
</g>
</g>
</g>
</g>
</svg>
