<?xml version="1.0" encoding="UTF-8"?>
<svg version="1.1" viewBox="0 0 930 900" xmlns="http://www.w3.org/2000/svg">
<g class="layer">
<title>Layer 1</title>
<path d="m759.13 565.59c-16.92-46.75-27.01-76.28-33.67-95.67-9-26.47-12.36-36.37-18.91-49.09-3.36-6.66-5.88-13.62-7.8-20.83 0.24-10.14-1.14-19.69-4.62-28.15-1.02-10.38-1.38-21.07-1.92-32.53-1.92-47.89-4.38-107.61-48.97-177.65-15.9-24.91-30.43-37.51-43.27-48.55-8.22-7.2-15.42-13.5-22.09-22.21-1.56-41.65-25.03-68.6-66.68-75.8-36.73-6.42-85.4 3.48-130.24 26.35-46.75 24.01-81.02 57.68-93.93 92.49-0.36 0.78-1.26 3.06-2.58 6.42-26.59 66.56-48.31 126.4-64.64 177.65-14.1 43.93-23.77 80.78-29.05 109.47-6.78 37.09-5.94 60.92 2.34 73.22 2.28 3.36 5.4 5.76 8.76 7.44 0.24 0.24 0.48 0.48 0.78 0.66 0.24 0.12 0.48 0.12 0.66 0.12 0.12 0 0.24 0.12 0.24 0.24-0.66 3.96-1.44 8.58-2.34 13.5-6.78 36.73-18.01 98.01-7.44 155.45 2.7 15.12 13.38 28.15 27.91 37.15-0.24 8.34-0.78 16.92-1.56 25.33-3.36 37.15-7.08 79.4 46.75 94.41 4.26 1.26 6.66 7.2 10.02 16.8 5.88 16.44 13.98 39.19 47.65 39.19 11.7 0 26.47-2.7 45.31-9.48 36.19-12.84 60.92-33.79 71.78-60.38 11.04-27.13 7.8-59.06-9.78-94.65-7.56-15.12-15.12-54.5-15.12-71.9 0-1.92-0.78-3.6-2.04-4.86 1.38-10.26 2.04-21.19 2.04-33.37 0-44.95-24.13-93.87-45.49-137.08-12.84-26.05-25.15-50.89-29.29-70.04 31.63 53.06 75.5 81.98 120.34 78.62 27.37-2.04 52.04-16.32 70.4-39.43-5.4 39.79-6.78 89.55 1.8 129.58-36.97 24.31-34.33 102.63-30.07 131.68 3.18 21.43 0.9 36.85-6.78 46.99-6.96 9.12-18.79 14.52-35.95 16.56-3.36 0.36-5.94 3.06-6.3 6.3-1.92 23.53 15.66 46.87 47.29 62.66 20.53 10.26 46.21 16.8 72.44 16.8 30.31 0 61.16-8.7 85.65-30.67 4.86-4.38 7.86-9.66 9.6-15.78 24.13-0.48 47.53-13.98 66.38-38.65 33.01-43.39 52.7-124.6 22.51-208.5v0.12l-0.12 0.06v0.01zm-525.99-243.31c16.32-50.89 37.99-110.31 64.46-176.63 1.44-3.6 2.34-5.94 2.7-6.78 3.72-10.26 9.9-20.53 17.83-30.43-11.58 31.45-14.1 71.42-16.56 112.77-3.96 63.68-8.22 135.76-46.75 187.55-1.44 1.92-1.02 4.74 0.9 6.06 0.78 0.54 1.68 0.9 2.7 0.9 1.38 0 2.58-0.54 3.48-1.68 40.09-53.96 44.47-127.42 48.43-192.3 3.36-55.34 6.42-104.55 28.87-135.28 13.62-11.94 29.83-22.99 48.31-32.47 42.13-21.55 87.51-30.97 121.36-25.15 24.31 4.26 53.18 18.49 54.98 61.82-4.62 4.26-9.36 8.1-14.28 11.28-1.44-13.08-6.18-24.31-14.52-32.89-11.04-11.4-27.49-17.47-47.65-17.47-2.34 0-4.38 1.92-4.38 4.38s2.04 4.38 4.38 4.38c17.71 0 31.99 5.04 41.35 14.88 7.68 7.86 11.7 18.79 12.18 31.57-8.7 4.5-17.89 7.56-27.37 9.66-2.46-11.46-8.1-21.43-16.92-28.93-14.88-12.6-37.75-18.73-62.84-16.68-2.46 0.24-4.26 2.34-4.08 4.74 0.12 2.46 2.34 4.26 4.74 4.08 22.87-1.8 43.39 3.48 56.42 14.52 7.44 6.42 12.06 14.4 13.98 24.01-9.24 1.56-18.79 2.46-28.27 3.06-3.18-7.8-8.76-14.22-16.8-18.49-21.85-11.82-56.24-7.56-78.74 1.56-2.28 0.9-3.36 3.48-2.46 5.76 0.9 2.16 3.48 3.24 5.76 2.34 21.43-8.58 52.7-11.94 71.3-1.92 5.16 2.82 8.88 6.54 11.4 11.16-3.36 0.12-6.78 0.36-10.14 0.48-46.21 1.68-93.93 3.6-105.99 64.34-7.56 37.51-7.08 68.84-6.66 96.33 0.9 52.7 1.56 94.41-53.96 152.08-13.74 14.28-28.63 20.53-42.91 26.47-15.54 6.54-31.57 13.26-43.15 30.31-6.18-10.92-9.9-47.53 29.17-169.55l-0.12 0.12h-0.12l-0.03 0.04zm125.38 163.49c20.59 41.77 44.05 89.25 44.05 130.9 0 39.19-6.3 63.86-24.13 94.41-18.13 30.97-71.18 58.58-100.59 44.41-3.48-1.8-7.8-0.24-9.48 3.24s-0.12 7.68 3.24 9.36c7.44 3.6 15.9 5.28 24.79 5.28 35.05 0 76.94-25.69 94.17-55.34 6.54-11.04 11.46-21.55 15.3-32.11 2.7 15.12 6.66 30.97 10.8 41.65-4.26 19.51-40.09 38.53-58.34 48.31-6.84 3.6-11.7 6.18-14.1 8.1-1.92 1.56-2.16 4.38-0.54 6.18 0.9 1.14 2.16 1.68 3.36 1.68 1.02 0 2.04-0.48 2.82-1.02 1.56-1.44 6.66-4.08 12.6-7.2 18.13-9.66 47.89-25.57 59.12-44.83 13.26 29.41 15.66 55.34 6.78 77.18-1.02 2.34-2.16 4.74-3.48 7.08-15.42 5.64-36.37-1.68-53.54-9.12-2.28-1.02-4.86 0-5.88 2.28-0.9 2.28 0.12 4.86 2.34 5.88 13.74 5.94 29.95 11.94 44.83 11.94 1.68 0 3.36-0.12 5.04-0.36-6.78 8.46-15.66 15.9-26.35 22.33-24.55-1.38-38.95-9.78-52.94-18.25-6.78-4.08-13.86-8.22-21.85-11.46-2.28-0.9-4.86 0.24-5.64 2.46-1.02 2.28 0.12 4.86 2.34 5.76 7.32 2.94 13.74 6.78 20.59 10.92 11.58 6.96 24.43 14.64 43.51 17.89-4.08 1.8-8.1 3.48-12.48 5.04-59.84 21.31-67.46-0.24-74.78-21.19-3.96-10.92-7.98-22.33-19.63-25.57-40.57-11.28-40.33-37.63-36.49-79.64 0.54-6.42 1.14-13.2 1.44-19.81 8.88 3.36 18.37 5.4 28.27 5.4 1.92 0 3.96-0.12 5.88-0.24 15.66-1.26 66.92-11.28 69.26-91.05 0.48-12.72-8.7-30.19-19.03-50.35-11.16-21.55-23.77-45.85-23.11-62.66 0.12-3.84-2.94-7.2-6.78-7.32-3.96-0.12-7.2 2.94-7.32 6.78-0.78 20.59 12.06 45.49 24.55 69.74 8.76 16.92 17.83 34.33 17.59 43.39-2.04 66.26-39.97 76.16-56.3 77.36-11.58 0.9-23.23-1.68-33.25-6.3-0.9-2.82-3.6-4.86-6.78-4.86-0.48 0-0.9 0.24-1.38 0.36-10.38-6.84-17.83-16.2-19.69-26.71-10.02-54.86 0.9-114.69 7.44-150.4 1.56-8.34 2.82-15.54 3.6-20.83 0.24-2.04-0.48-4.08-1.68-5.64-0.12-0.12-0.24-0.12-0.36-0.24 6.06-8.58 13.62-13.62 22.51-17.89-1.8 4.26-3.18 7.56-4.26 10.14-4.86 11.7-4.98 12.18-4.5 27.91 0.12 6.06 0.36 14.28 0.36 26.71 0 2.28 1.38 5.28 5.04 13.74 10.38 22.87 31.99 70.64 9.12 91.71-1.8 1.68-1.92 4.5-0.36 6.3 0.9 0.9 2.16 1.38 3.24 1.38 1.14 0 2.16-0.36 3.06-1.14 27.61-25.45 4.14-77.06-6.96-101.85-1.92-4.14-4.08-8.88-4.38-10.38 0-12.3-0.12-20.53-0.36-26.59-0.24-9.48 1.14-17.59 3.96-24.31 1.68-4.08 4.14-10.02 7.56-18.73 0.66-0.36 1.38-0.66 2.16-0.9 14.88-6.18 31.75-13.26 47.65-29.83 11.28-11.58 20.29-22.63 27.61-33.37 4.26 20.95 16.8 46.39 30.55 74.36v-0.24l0.18 0.12 0.03 0.05zm102.51-11.7c-44.17 3.36-87.87-30.55-117.39-90.69 15.54-34.45 15.12-66.02 14.52-100.47-0.48-26.95-0.9-57.32 6.3-93.39 10.02-49.93 46.51-51.25 92.73-53.06 13.08-0.48 26.83-1.02 40.45-2.7 29.29 3.36 47.17 30.73 57.26 53.42 27.25 62.06 24.91 155.33-4.98 195.78-2.16 2.94-4.38 7.86-6.42 14.28-13.98 44.59-45.37 74.12-82.58 76.94l0.12-0.12-0.01 0.01zm74.66 365.81c36.73-6.84 76.16-30.19 84.92-53.72 0.9-2.28-0.24-4.86-2.46-5.64-2.34-0.78-4.86 0.36-5.76 2.58-9 24.13-59.72 49.57-96.57 49.99-2.46-1.02-4.86-2.16-7.08-3.24-23.41-11.58-37.75-27.49-39.43-43.27 17.89-3.06 30.85-10.02 39.31-21.07 10.26-13.26 13.26-32.11 9.6-57.56-5.4-36.25-2.16-94.17 19.81-114.69 3.84 12.36 8.76 23.53 15.18 32.47 2.58 3.48 6.78 8.76 12.06 15.54 2.46 3.06 5.16 6.42 7.98 10.14-2.94 15.12-2.34 31.09-1.56 46.75 2.16 40.09 4.14 78.08-56.66 97.23-2.34 0.78-3.6 3.24-2.82 5.64 0.54 1.8 2.28 3.06 4.14 3.06 0.48 0 0.78-0.12 1.26-0.24 67.34-21.31 65.12-64.46 62.96-106.11-0.66-12.36-1.38-25.03 0-36.85 16.92 21.85 37.75 50.11 53.54 77.48 23.65 40.87 29.53 68.48 16.92 79.76-30.97 27.91-76.94 31.87-115.23 21.73h-0.12l0.01 0.02zm189.6-74.24c-15.78 20.59-34.57 32.11-53.96 33.01-1.68-41.23-47.17-105.45-94.95-166.07-5.16-6.66-9.36-11.82-11.7-15.12-16.44-22.75-24.31-68.48-21.85-125.62 1.56-35.59 6.84-65.78 11.82-83.9 1.02-2.58 1.92-5.16 2.7-7.86 0.12-0.24 0-0.48 0-0.66 1.38-3.84 2.7-6.54 3.84-8.1 16.98-22.87 25.93-59.84 26.71-99.45 0.24 0.54 0.48 1.14 0.66 1.68 11.46 32.35 25.93 72.44 25.93 100.35 0 24.13-4.38 48.19-8.58 71.66-8.1 44.95-16.44 91.59 5.52 140.02 0.66 1.56 2.28 2.58 3.96 2.58 0.66 0 1.26-0.12 1.8-0.48 2.28-1.02 3.24-3.6 2.28-5.88-20.83-45.97-13.08-89.13-4.86-134.86 4.26-23.77 8.7-48.31 8.7-73.1 0-29.53-14.64-70.4-26.47-103.29-3.72-10.38-7.08-20.05-9.78-28.39-2.34-28.27-8.7-56.42-19.27-80.66-11.28-25.45-25.93-43.27-43.03-53.18 16.02-4.62 31.45-12.06 45.37-24.25 6.42 7.56 13.26 13.62 20.41 19.81 12.72 10.92 25.81 22.33 40.57 45.49 42.61 66.8 44.83 122.02 46.87 170.69 0.9 22.33 1.92 42.61 6.54 61.4-0.78 24.01-10.92 52.94-19.63 77.6-5.4 15.18-10.5 29.65-12.6 40.87-15.3 78.62-1.14 106.59 13.74 136.06 5.94 11.82 12.18 24.13 16.92 40.45 0.9 3.06 3.72 5.04 6.78 5.04 0.66 0 1.38 0 1.92-0.24 3.84-1.02 5.94-4.98 4.86-8.7-5.04-17.59-11.46-30.55-17.83-42.91-14.4-28.51-26.95-53.18-12.6-126.94 2.04-10.38 6.96-24.25 12.18-38.95 5.94-16.92 12.6-35.83 16.68-54.32 5.28 10.8 8.58 20.29 17.11 45.19 6.66 19.51 16.8 48.91 33.67 95.85 19.51 53.96 17.11 106.47 3.84 147.1-4.14-20.59-13.5-43.51-23.41-67.34-11.58-28.03-23.65-57.02-26.59-82.7-0.24-2.34-2.46-4.08-4.86-3.84-2.46 0.24-4.14 2.46-3.84 4.86 3.06 26.83 15.18 56.42 27.13 85.16 12.36 29.83 24.01 58.16 24.91 81.32-5.04 11.58-11.04 21.97-17.59 30.55l0.12-0.12-0.18 0.18 0.04 0.01zm-377.81-238.39c15 29.65 27.85 55.22 27.85 104.79 0 2.46-1.92 4.38-4.38 4.38s-4.38-1.92-4.38-4.38c0-47.41-12.36-72.2-26.83-100.83-8.88-17.59-18.91-37.63-27.13-65.12-0.66-2.34 0.54-4.86 2.94-5.52 2.34-0.66 4.86 0.54 5.52 2.94 7.98 26.83 17.47 45.61 26.59 63.74h-0.12-0.06zm284.24-274.4c1.68 7.98 1.56 12.18 1.44 18.61v5.4c0 2.34-2.04 4.38-4.38 4.38-2.46 0-4.38-2.04-4.38-4.38v-5.52c0.12-5.94 0.12-9.66-1.26-16.68-2.34-11.58-3.72-21.31-4.86-29.83-3.24-24.13-5.4-39.97-28.39-71.96-1.44-1.92-1.02-4.74 1.02-6.18 2.04-1.38 4.74-0.9 6.18 1.02 24.25 33.79 26.59 51.5 29.95 75.92 1.14 8.46 2.34 17.89 4.74 29.29h-0.12l0.06-0.06v-0.01z" fill="#8a6143" stroke="#8a6143"/>
</g>
</svg>
